<svg width="392" height="397" viewBox="0 0 392 397" fill="none" xmlns="http://www.w3.org/2000/svg">
<path d="M194.852 368.076C285.507 369.657 360.311 295.611 361.932 202.689C363.553 109.767 291.376 33.1575 200.722 31.5762C110.067 29.995 35.2627 104.041 33.6419 196.963C32.0211 289.885 104.197 366.494 194.852 368.076Z" stroke="#F2F2F2" stroke-width="44.8734" stroke-miterlimit="10"/>
<path d="M237.566 26.1826C236.541 26.6317 235.456 26.9205 234.348 27.039C235.531 26.3365 236.429 25.2211 236.876 23.8966C235.762 24.5463 234.547 24.9957 233.285 25.2253C232.455 24.2904 231.348 23.6616 230.134 23.436C228.921 23.2104 227.668 23.4005 226.57 23.9769C225.471 24.5534 224.588 25.4842 224.057 26.6257C223.525 27.7671 223.375 29.0558 223.629 30.2929C221.401 30.1438 219.229 29.5163 217.254 28.4509C215.278 27.3855 213.544 25.9062 212.163 24.1089C211.425 25.3643 211.179 26.8602 211.477 28.2933C211.774 29.7263 212.592 30.9894 213.765 31.8263C212.874 31.7707 212.008 31.4993 211.24 31.0342L211.238 31.109C211.214 32.4379 211.64 33.734 212.442 34.7773C213.245 35.8206 214.375 36.547 215.641 36.8332C215.162 36.9526 214.671 37.0093 214.179 37.0022C213.826 36.9981 213.475 36.9594 213.13 36.8867C213.468 38.0349 214.148 39.0457 215.075 39.778C216.002 40.5102 217.128 40.9274 218.298 40.9712C216.283 42.534 213.814 43.3577 211.288 43.3098C210.84 43.3035 210.392 43.2707 209.947 43.2116C212.484 44.9433 215.454 45.8908 218.503 45.9415C228.834 46.1217 234.626 37.4561 234.758 29.8512C234.763 29.6044 234.767 29.3577 234.771 29.1034C235.884 28.3027 236.85 27.3066 237.625 26.1612L237.566 26.1826Z" fill="#1D9BF0"/>
<path d="M279.522 48.255C279.568 45.5756 278.865 42.9392 277.495 40.658C276.125 38.3768 274.145 36.5464 271.791 35.3833C269.437 34.2203 266.806 33.7734 264.21 34.0955C261.614 34.4177 259.162 35.4954 257.144 37.2011C255.126 38.9067 253.627 41.1689 252.824 43.7198C252.02 46.2707 251.947 49.0035 252.612 51.5946C253.277 54.1858 254.652 56.5267 256.575 58.3403C258.499 60.1539 260.889 61.3642 263.464 61.828L263.635 52.0321L260.184 51.9719L260.255 47.9189L263.727 47.9795L263.781 44.8912C263.842 41.3767 265.919 39.4755 269.041 39.53C270.067 39.5624 271.09 39.6702 272.101 39.8527L272.04 43.3074L270.319 43.2773C270.025 43.2317 269.725 43.2544 269.441 43.3437C269.157 43.4331 268.897 43.5869 268.678 43.7936C268.46 44.0004 268.29 44.2548 268.181 44.538C268.072 44.8211 268.027 45.1258 268.048 45.4294L268.002 48.0541L271.796 48.1203L271.127 52.1628L267.939 52.1072L267.768 61.903C270.989 61.4309 273.942 59.7976 276.096 57.2963C278.25 54.795 279.465 51.5895 279.522 48.255Z" fill="#1877F2"/>
<path d="M303.452 56.0929L289.618 63.9599L289.335 80.1418L293.205 82.5206L293.466 66.3384L303.35 60.7212L313.032 66.6796L312.749 82.8615L316.693 80.619L316.975 64.4221L303.452 56.0929Z" fill="#F26322"/>
<path d="M304.929 82.7249L302.968 83.8575L301.018 82.6716L301.301 66.4748L297.357 68.7323L297.075 84.9141L302.887 88.4713L308.798 85.1186L309.081 68.9368L305.211 66.543L304.929 82.7249Z" fill="#F26322"/>
<g opacity="0.2">
<path d="M325.718 113.352C325.379 113.356 325.049 113.472 324.779 113.683C324.509 113.894 324.312 114.189 324.219 114.523C324.125 114.858 324.139 115.215 324.26 115.54C324.38 115.865 324.599 116.142 324.885 116.329L330.395 119.664C330.85 119.936 331.365 120.083 331.891 120.094C332.175 120.099 332.459 120.061 332.732 119.982L341.15 117.683C341.782 117.515 342.343 117.14 342.748 116.615C343.152 116.09 343.378 115.443 343.39 114.775L343.41 113.638L325.718 113.352Z" fill="white"/>
</g>
<g opacity="0.12">
<path d="M325.718 113.352C325.379 113.356 325.049 113.472 324.779 113.683C324.509 113.894 324.312 114.189 324.219 114.523C324.125 114.858 324.139 115.215 324.26 115.54C324.38 115.865 324.599 116.142 324.885 116.329L330.395 119.664C330.85 119.936 331.365 120.083 331.891 120.094C332.175 120.099 332.459 120.061 332.732 119.982L341.15 117.683C341.782 117.515 342.343 117.14 342.748 116.615C343.152 116.09 343.378 115.443 343.39 114.775L343.41 113.638L325.718 113.352Z" fill="white"/>
</g>
<path d="M333.228 89.8757L335.383 95.1868L335.063 113.515L332.761 120.005L341.179 117.706C341.811 117.538 342.372 117.163 342.776 116.638C343.181 116.113 343.407 115.466 343.419 114.797L343.756 95.4525C343.777 94.7762 343.579 94.112 343.192 93.5638C342.806 93.0157 342.253 92.6145 341.62 92.4232L333.228 89.8757Z" fill="url(#paint0_linear_1_47)"/>
<path d="M322.198 113.096L324.673 111.785C325.011 111.6 325.295 111.325 325.495 110.989C325.694 110.653 325.803 110.268 325.808 109.875L325.98 100.012C325.994 99.5631 326.139 99.1288 326.397 98.7653C326.654 98.4017 327.012 98.1256 327.424 97.9726L335.376 95.1866L335.415 92.9433C335.427 92.2544 335.219 91.5806 334.823 91.0242C334.427 90.4678 333.865 90.0592 333.221 89.8607C332.948 89.7729 332.663 89.7251 332.377 89.7188C331.838 89.7152 331.306 89.8499 330.83 90.1107L321.692 95.2397C321.23 95.4998 320.843 95.8808 320.571 96.3438C320.299 96.8068 320.151 97.3353 320.143 97.8756L319.903 111.612C319.897 111.824 319.933 112.035 320.008 112.233C320.082 112.431 320.194 112.611 320.338 112.764C320.481 112.917 320.653 113.039 320.842 113.123C321.032 113.207 321.237 113.252 321.443 113.255C321.704 113.266 321.963 113.211 322.198 113.096Z" fill="url(#paint1_linear_1_47)"/>
<path d="M335.056 113.515L325.718 113.352C325.378 113.355 325.049 113.472 324.779 113.683C324.509 113.894 324.312 114.188 324.219 114.523C324.125 114.858 324.139 115.214 324.26 115.54C324.38 115.865 324.599 116.142 324.885 116.329L330.395 119.664C330.85 119.935 331.365 120.083 331.891 120.094C332.175 120.098 332.458 120.06 332.732 119.982C333.367 119.804 333.928 119.42 334.332 118.887C334.736 118.355 334.961 117.703 334.973 117.029L335.056 113.515Z" fill="url(#paint2_linear_1_47)"/>
<path d="M322.198 113.096L324.673 111.785C325.011 111.6 325.295 111.325 325.495 110.989C325.694 110.653 325.803 110.268 325.808 109.875L325.98 100.012C325.994 99.5631 326.139 99.1288 326.397 98.7653C326.654 98.4017 327.012 98.1256 327.424 97.9726L335.376 95.1866L335.415 92.9433C335.427 92.2544 335.219 91.5806 334.823 91.0242C334.427 90.4678 333.865 90.0592 333.221 89.8607C332.948 89.7729 332.663 89.7251 332.377 89.7188C331.838 89.7152 331.306 89.8499 330.83 90.1107L321.692 95.2397C321.23 95.4998 320.843 95.8808 320.571 96.3438C320.299 96.8068 320.151 97.3353 320.143 97.8756L319.903 111.612C319.897 111.824 319.933 112.035 320.008 112.233C320.082 112.431 320.194 112.611 320.338 112.764C320.481 112.917 320.653 113.039 320.842 113.123C321.032 113.207 321.237 113.252 321.443 113.255C321.704 113.266 321.963 113.211 322.198 113.096Z" fill="url(#paint3_linear_1_47)"/>
<path d="M335.056 113.515L325.718 113.352C325.378 113.355 325.049 113.472 324.779 113.683C324.509 113.894 324.312 114.188 324.219 114.523C324.125 114.858 324.139 115.214 324.26 115.54C324.38 115.865 324.599 116.142 324.885 116.329L330.395 119.664C330.85 119.935 331.365 120.083 331.891 120.094C332.175 120.098 332.458 120.06 332.732 119.982C333.367 119.804 333.928 119.42 334.332 118.887C334.736 118.355 334.961 117.703 334.973 117.029L335.056 113.515Z" fill="url(#paint4_linear_1_47)"/>
<path fill-rule="evenodd" clip-rule="evenodd" d="M340.584 152.605C340.568 152.656 340.535 152.699 340.49 152.727C340.446 152.755 340.393 152.766 340.341 152.757L339.568 152.744C339.444 152.742 339.378 152.741 339.352 152.583L338.671 149.789C338.61 149.482 338.566 149.171 338.541 148.859C338.509 149.171 338.455 149.48 338.379 149.784L337.601 152.553C337.585 152.604 337.551 152.647 337.506 152.675C337.462 152.703 337.409 152.714 337.357 152.705L336.577 152.692C336.445 152.69 336.387 152.689 336.353 152.531L335.328 148.534C335.318 148.507 335.314 148.479 335.318 148.451C335.323 148.422 335.334 148.396 335.352 148.374C335.369 148.352 335.392 148.335 335.418 148.326C335.444 148.316 335.473 148.314 335.5 148.32L335.996 148.328C336.134 148.331 336.207 148.377 336.233 148.519L336.862 151.38C336.918 151.702 336.954 152.028 336.969 152.355C337.019 152.031 337.086 151.71 337.168 151.393L337.948 148.534C337.966 148.48 338.001 148.434 338.048 148.403C338.095 148.373 338.151 148.36 338.206 148.367L338.819 148.378C338.877 148.374 338.935 148.392 338.982 148.427C339.029 148.461 339.063 148.512 339.079 148.569L339.758 151.438C339.833 151.756 339.883 152.08 339.909 152.406C339.958 152.108 340.008 151.757 340.079 151.444L340.749 148.583C340.752 148.464 340.876 148.413 341.008 148.416L341.467 148.424C341.495 148.419 341.523 148.422 341.549 148.433C341.574 148.443 341.597 148.461 341.614 148.483C341.63 148.506 341.641 148.533 341.644 148.561C341.647 148.589 341.643 148.618 341.631 148.644L340.584 152.605ZM344.725 152.879C344.442 152.883 344.161 152.825 343.902 152.709C343.642 152.592 343.41 152.42 343.221 152.205C343.032 151.989 342.89 151.734 342.805 151.457C342.72 151.18 342.694 150.888 342.728 150.6C342.71 150.312 342.749 150.023 342.845 149.751C342.941 149.479 343.091 149.231 343.285 149.021C343.48 148.812 343.714 148.646 343.974 148.534C344.234 148.423 344.514 148.368 344.796 148.373C345.078 148.378 345.355 148.442 345.611 148.563C345.867 148.684 346.096 148.858 346.283 149.074C346.47 149.29 346.611 149.543 346.697 149.818C346.784 150.093 346.813 150.383 346.785 150.671C346.739 152.054 345.994 152.901 344.725 152.879ZM344.792 148.998C344.063 148.985 343.638 149.516 343.619 150.608C343.599 151.7 343.991 152.275 344.735 152.288C345.479 152.301 345.882 151.77 345.902 150.648C345.922 149.526 345.5 149.01 344.778 148.998L344.792 148.998ZM350.78 149.177C350.778 149.304 350.653 149.377 350.471 149.329C350.279 149.274 350.081 149.238 349.882 149.221C349.576 149.216 349.146 149.568 349.133 150.36L349.091 152.731C349.089 152.828 348.979 152.908 348.862 152.906L348.461 152.899C348.409 152.901 348.359 152.883 348.319 152.849C348.279 152.816 348.253 152.768 348.245 152.716L348.315 148.708C348.321 148.654 348.348 148.604 348.39 148.57C348.431 148.536 348.484 148.52 348.537 148.525L348.785 148.529C348.832 148.525 348.878 148.538 348.918 148.564C348.957 148.59 348.986 148.629 349.001 148.675L349.139 149.171C349.271 148.965 349.45 148.796 349.661 148.679C349.871 148.561 350.107 148.498 350.347 148.496C350.683 148.502 350.943 148.641 350.889 148.827L350.78 149.177ZM360.403 153.085L360.177 153.081C360.024 153.078 359.937 153.025 359.911 152.897L359.829 152.529C359.69 152.734 359.5 152.897 359.279 153.002C359.058 153.107 358.814 153.151 358.571 153.128C357.477 153.109 356.921 152.351 356.947 150.856C356.917 150.542 356.949 150.226 357.041 149.926C357.132 149.625 357.282 149.347 357.481 149.107C357.639 148.947 357.827 148.822 358.035 148.741C358.242 148.659 358.464 148.623 358.686 148.634C358.922 148.631 359.154 148.69 359.361 148.806C359.567 148.923 359.741 149.092 359.864 149.298L359.907 146.831C359.909 146.726 360.019 146.653 360.136 146.655L360.516 146.662C360.541 146.659 360.568 146.662 360.593 146.669C360.618 146.677 360.641 146.69 360.661 146.707C360.681 146.724 360.697 146.745 360.71 146.769C360.722 146.792 360.729 146.818 360.731 146.845L360.626 152.894C360.622 152.922 360.612 152.948 360.598 152.971C360.584 152.995 360.565 153.015 360.543 153.031C360.521 153.047 360.496 153.058 360.469 153.063C360.443 153.068 360.416 153.068 360.389 153.062L360.403 153.085ZM358.85 149.251C358.708 149.233 358.565 149.256 358.435 149.317C358.305 149.378 358.194 149.475 358.115 149.597C357.897 149.985 357.795 150.431 357.822 150.878C357.802 152.037 358.093 152.521 358.757 152.533C359.42 152.544 359.802 152.027 359.821 150.936C359.84 149.844 359.493 149.239 358.836 149.228L358.85 149.251ZM355.58 153.046L354.939 153.035C354.887 153.032 354.837 153.017 354.793 152.99C354.749 152.963 354.712 152.925 354.686 152.881L353.088 150.743L353.052 152.822C353.05 152.919 352.94 153 352.823 152.998L352.443 152.991C352.391 152.994 352.34 152.977 352.3 152.943C352.26 152.909 352.234 152.861 352.228 152.808L352.334 146.736C352.337 146.709 352.345 146.684 352.358 146.66C352.371 146.637 352.388 146.617 352.409 146.6C352.43 146.584 352.453 146.572 352.478 146.565C352.504 146.558 352.53 146.557 352.556 146.56L352.935 146.567C353.052 146.569 353.16 146.646 353.158 146.75L353.09 150.654L354.801 148.784C354.832 148.74 354.873 148.705 354.921 148.682C354.968 148.659 355.021 148.65 355.073 148.654L355.642 148.664C355.796 148.666 355.844 148.794 355.755 148.875L353.929 150.668L355.687 152.816C355.758 152.899 355.712 153.026 355.566 153.023L355.58 153.046ZM366.939 149.055C366.897 148.957 367.008 148.869 367.132 148.871L367.628 148.88C367.688 148.876 367.748 148.893 367.798 148.928C367.847 148.962 367.884 149.013 367.902 149.072L368.848 151.736C368.89 151.864 368.923 152.044 368.957 152.194C368.96 152.06 369.066 151.8 369.143 151.577L369.982 149.108C370.001 149.052 370.039 149.004 370.088 148.974C370.138 148.943 370.197 148.932 370.254 148.941L370.743 148.949C370.867 148.952 370.961 149.035 370.93 149.132L369.197 153.904C369.112 154.156 368.971 154.385 368.785 154.572C368.6 154.759 368.375 154.901 368.128 154.985L367.893 155.063C367.841 155.079 367.785 155.08 367.733 155.066C367.681 155.051 367.633 155.023 367.595 154.983L367.446 154.734C367.437 154.71 367.434 154.684 367.435 154.658C367.436 154.632 367.443 154.607 367.454 154.584C367.466 154.561 367.482 154.541 367.501 154.525C367.52 154.508 367.543 154.496 367.567 154.489L367.736 154.425C367.968 154.316 368.17 154.15 368.323 153.941C368.476 153.732 368.575 153.487 368.611 153.228L366.939 149.055ZM364.106 148.744C365.339 148.765 365.959 149.614 365.927 151.02L365.892 153.024C365.882 153.078 365.854 153.126 365.811 153.16C365.769 153.194 365.716 153.21 365.663 153.207L365.444 153.203C365.284 153.2 365.204 153.146 365.17 153.011L365.096 152.636C364.98 152.832 364.813 152.992 364.615 153.098C364.416 153.204 364.193 153.252 363.969 153.237C362.817 153.217 362.094 152.374 362.119 150.961C362.144 149.547 362.852 148.7 364.092 148.721L364.106 148.744ZM364.039 152.617C364.768 152.63 365.127 152.12 365.147 150.991C365.167 149.862 364.825 149.355 364.096 149.342C363.366 149.329 363.043 149.862 363.024 150.954C363.005 152.046 363.28 152.582 364.002 152.594L364.039 152.617ZM371.424 152.193C371.496 152.223 371.56 152.27 371.611 152.331C371.664 152.384 371.706 152.448 371.732 152.52C371.76 152.591 371.773 152.668 371.772 152.745C371.77 152.822 371.754 152.898 371.724 152.968C371.694 153.038 371.651 153.101 371.597 153.153C371.539 153.206 371.475 153.25 371.405 153.284C371.334 153.307 371.26 153.318 371.185 153.318C371.108 153.317 371.031 153.3 370.96 153.269C370.891 153.235 370.828 153.191 370.772 153.139C370.723 153.084 370.684 153.02 370.659 152.95C370.632 152.878 370.618 152.802 370.619 152.725C370.616 152.672 370.617 152.62 370.622 152.568C370.638 152.515 370.661 152.466 370.69 152.419C370.742 152.334 370.813 152.264 370.898 152.213C370.989 152.167 371.089 152.143 371.191 152.144C371.257 152.135 371.323 152.139 371.388 152.155L371.424 152.193ZM371.021 152.275C370.963 152.298 370.91 152.332 370.866 152.377C370.814 152.42 370.775 152.476 370.754 152.54C370.726 152.598 370.712 152.662 370.714 152.726C370.702 152.788 370.701 152.851 370.711 152.913C370.74 152.968 370.776 153.019 370.817 153.065C370.857 153.116 370.909 153.155 370.969 153.18C371.028 153.208 371.092 153.222 371.158 153.22C371.218 153.223 371.278 153.212 371.333 153.186C371.394 153.164 371.449 153.129 371.496 153.084C371.541 153.039 371.579 152.986 371.608 152.929C371.632 152.872 371.646 152.812 371.648 152.75C371.648 152.684 371.637 152.617 371.614 152.555C371.593 152.495 371.559 152.441 371.515 152.396C371.472 152.345 371.418 152.305 371.357 152.281C371.296 152.269 371.235 152.268 371.174 152.278C371.113 152.257 371.049 152.248 370.985 152.252L371.021 152.275ZM371.209 152.398C371.28 152.394 371.35 152.411 371.412 152.447C371.436 152.461 371.455 152.482 371.468 152.508C371.48 152.533 371.485 152.562 371.483 152.59C371.482 152.628 371.468 152.665 371.444 152.694C371.416 152.725 371.381 152.748 371.341 152.76L371.474 153.054L371.299 153.051L371.187 152.779L371.107 152.778L371.102 153.047L370.949 153.045L370.961 152.394L371.209 152.398ZM371.109 152.681L371.189 152.682C371.22 152.693 371.253 152.694 371.284 152.684C371.289 152.673 371.291 152.662 371.291 152.65C371.292 152.639 371.289 152.627 371.285 152.617C371.294 152.593 371.295 152.566 371.286 152.542C371.253 152.532 371.218 152.531 371.184 152.54L371.111 152.539L371.109 152.681Z" fill="#005CB9"/>
<path fill-rule="evenodd" clip-rule="evenodd" d="M345.914 146.594C346.662 144.911 347.873 143.489 349.398 142.502C350.923 141.515 352.695 141.006 354.498 141.038C356.301 141.069 358.055 141.64 359.544 142.679C361.034 143.719 362.194 145.182 362.883 146.89C362.931 147.017 363.02 147.123 363.136 147.192C363.251 147.26 363.386 147.285 363.518 147.264C363.649 147.243 363.77 147.176 363.86 147.074C363.949 146.973 364.002 146.844 364.01 146.707C364.014 146.628 364.003 146.549 363.978 146.475C363.197 144.553 361.886 142.907 360.206 141.737C358.526 140.568 356.549 139.926 354.518 139.891C352.487 139.855 350.489 140.428 348.769 141.538C347.049 142.648 345.682 144.247 344.835 146.141C344.803 146.214 344.787 146.292 344.787 146.372C344.786 146.45 344.801 146.526 344.829 146.598C344.858 146.67 344.9 146.735 344.953 146.79C345.007 146.846 345.07 146.889 345.14 146.919C345.21 146.949 345.285 146.965 345.36 146.965C345.478 146.967 345.594 146.933 345.693 146.866C345.791 146.8 345.868 146.705 345.914 146.594Z" fill="#F38B00"/>
<path d="M345.015 194.817L343.826 194.796L343.925 189.121L345.479 189.148L347.246 192.447L347.303 189.179L348.485 189.2L348.386 194.876L347.131 194.854L345.083 190.951L345.015 194.817Z" fill="black"/>
<path d="M353.146 189.281L349.52 189.218L349.421 194.894L353.047 194.957L353.066 193.873L350.724 193.832L350.748 192.449L352.915 192.486L352.935 191.35L350.776 191.312L350.792 190.355L353.127 190.396L353.146 189.281Z" fill="black"/>
<path d="M353.897 189.295L358.275 189.371L358.255 190.493L356.708 190.466L356.629 195.02L355.345 194.997L355.425 190.443L353.878 190.416L353.897 189.295Z" fill="black"/>
<path d="M359.001 193.774C359.473 194.174 360.04 194.442 360.644 194.551C361.656 194.681 362.11 194.128 362.155 193.65C362.241 192.941 361.638 192.781 360.714 192.578C359.791 192.374 359.102 192.161 359.028 190.94C358.978 190.027 359.744 189.217 361.209 189.302C361.72 189.322 362.218 189.467 362.662 189.724L362.646 190.614C362.152 190.226 361.557 189.997 360.935 189.956C360.802 189.93 360.665 189.932 360.532 189.962C360.399 189.992 360.274 190.048 360.163 190.129C360.052 190.209 359.957 190.312 359.886 190.43C359.814 190.548 359.766 190.68 359.745 190.818C359.729 191.782 360.504 191.691 361.252 191.899C362.297 192.194 362.862 192.48 362.813 193.564C362.765 194.648 361.902 195.216 360.596 195.194C360.02 195.17 359.457 195.006 358.955 194.716L359.001 193.774Z" fill="black"/>
<path d="M364.906 189.487L364.847 192.867C364.825 194.138 365.341 194.685 366.041 194.698C366.741 194.71 367.335 194.167 367.357 192.91L367.416 189.53L368.109 189.543L368.05 192.878C368.02 194.62 367.154 195.315 366.009 195.295C364.863 195.275 364.131 194.604 364.162 192.832L364.22 189.475L364.906 189.487Z" fill="black"/>
<path d="M370.757 189.589L370.1 189.577L370.001 195.253L370.658 195.264L370.757 189.589Z" fill="black"/>
<path d="M371.902 189.609L376.134 189.682L376.122 190.355L374.335 190.324L374.247 195.327L373.584 195.315L373.671 190.313L371.891 190.282L371.902 189.609Z" fill="black"/>
<path d="M380.402 189.757L377.155 189.7L377.056 195.376L380.303 195.432L380.314 194.782L377.702 194.736L377.739 192.62L380.351 192.666L380.362 192L377.751 191.955L377.778 190.384L380.39 190.43L380.402 189.757Z" fill="black"/>
<path d="M359.086 233.255C358.037 233.233 357.002 233.504 356.092 234.041C355.182 234.577 354.433 235.358 353.924 236.299C353.582 235.609 353.11 234.994 352.536 234.49C351.961 233.987 351.295 233.604 350.577 233.365C349.858 233.125 349.1 233.033 348.346 233.094C347.592 233.154 346.857 233.367 346.183 233.718C345.926 233.858 345.68 234.016 345.445 234.192L345.531 229.227C345.537 228.913 345.421 228.611 345.208 228.385C344.996 228.16 344.705 228.03 344.399 228.025C344.094 228.02 343.798 228.139 343.578 228.357C343.358 228.575 343.232 228.873 343.226 229.186L343.055 238.975C343.054 240.283 343.478 241.555 344.259 242.589C345.04 243.623 346.135 244.362 347.371 244.688C348.607 245.015 349.914 244.911 351.087 244.392C352.26 243.874 353.232 242.971 353.85 241.826C354.31 242.757 355.003 243.546 355.859 244.113C356.714 244.679 357.701 245.002 358.719 245.05C359.736 245.098 360.748 244.867 361.651 244.383C362.554 243.899 363.316 243.178 363.858 242.293C364.401 241.409 364.705 240.393 364.739 239.35C364.774 238.306 364.537 237.272 364.054 236.353C363.571 235.434 362.859 234.663 361.99 234.119C361.121 233.575 360.126 233.277 359.108 233.256L359.086 233.255ZM348.751 242.515C348.067 242.503 347.403 242.283 346.841 241.884C346.279 241.485 345.845 240.923 345.595 240.271C345.344 239.619 345.288 238.905 345.434 238.22C345.579 237.535 345.92 236.909 346.412 236.421C346.904 235.934 347.526 235.607 348.199 235.482C348.872 235.357 349.566 235.44 350.194 235.719C350.821 235.998 351.353 236.462 351.723 237.051C352.093 237.641 352.283 238.33 352.271 239.031C352.255 239.971 351.875 240.866 351.215 241.519C350.555 242.173 349.669 242.531 348.751 242.515ZM358.921 242.692C358.236 242.682 357.571 242.463 357.008 242.064C356.445 241.666 356.01 241.104 355.759 240.452C355.507 239.799 355.451 239.085 355.596 238.399C355.741 237.713 356.081 237.086 356.574 236.599C357.067 236.111 357.69 235.784 358.363 235.659C359.037 235.534 359.732 235.617 360.359 235.898C360.987 236.178 361.519 236.643 361.888 237.233C362.257 237.824 362.447 238.514 362.433 239.215C362.425 239.68 362.328 240.138 362.147 240.564C361.966 240.991 361.705 241.376 361.379 241.699C361.053 242.022 360.668 242.276 360.246 242.446C359.825 242.616 359.374 242.7 358.921 242.692Z" fill="#0081C6"/>
<path d="M372.408 243.429L369.561 239.34L372.549 235.353C372.708 235.104 372.771 234.804 372.723 234.511C372.676 234.217 372.523 233.953 372.294 233.771C372.065 233.589 371.778 233.502 371.489 233.527C371.2 233.552 370.931 233.688 370.735 233.907L368.128 237.37L365.643 233.841C365.457 233.605 365.19 233.452 364.897 233.412C364.604 233.372 364.307 233.45 364.068 233.628C363.828 233.806 363.665 234.072 363.611 234.37C363.558 234.668 363.618 234.976 363.78 235.23L366.664 239.312L363.675 243.299C363.505 243.547 363.434 243.852 363.477 244.152C363.521 244.452 363.675 244.723 363.907 244.91C364.14 245.096 364.434 245.184 364.729 245.155C365.023 245.125 365.295 244.981 365.489 244.752L368.089 241.311L370.574 244.84C370.759 245.076 371.026 245.23 371.32 245.27C371.613 245.309 371.91 245.232 372.149 245.054C372.388 244.875 372.551 244.61 372.605 244.311C372.659 244.013 372.599 243.705 372.437 243.452L372.408 243.429Z" fill="#0081C6"/>
<path d="M356.236 267.771C356.231 267.377 356.081 267.001 355.814 266.718C355.548 266.435 355.186 266.268 354.803 266.25L330.392 265.824C330.009 265.83 329.643 265.986 329.367 266.259C329.091 266.532 328.927 266.902 328.907 267.294L328.481 291.709C328.487 292.102 328.639 292.477 328.905 292.76C329.171 293.042 329.532 293.21 329.914 293.23L354.303 293.655C354.686 293.651 355.054 293.496 355.33 293.223C355.606 292.949 355.77 292.578 355.788 292.185L356.236 267.771ZM341.654 284.982C342.447 284.965 343.233 284.82 343.982 284.552C344.028 284.535 344.077 284.535 344.122 284.553C344.167 284.57 344.205 284.603 344.229 284.646C344.674 285.576 345.266 286.426 345.98 287.16C346.072 287.318 345.888 287.412 345.888 287.412C344.559 288.101 343.082 288.435 341.595 288.385C340.451 288.397 339.316 288.176 338.256 287.737C337.195 287.297 336.231 286.647 335.417 285.824C334.603 285 333.956 284.02 333.514 282.939C333.072 281.858 332.842 280.698 332.839 279.525C332.835 278.349 333.067 277.185 333.52 276.104C333.973 275.023 334.638 274.049 335.473 273.242C336.308 272.435 337.295 271.812 338.375 271.411C339.454 271.011 340.601 270.842 341.746 270.914C343.541 270.963 345.284 271.533 346.775 272.558C347.106 272.788 347.105 272.885 347.015 273.011C346.457 273.755 345.956 274.541 345.514 275.363C345.502 275.392 345.483 275.418 345.459 275.438C345.435 275.458 345.407 275.471 345.376 275.477C345.346 275.483 345.315 275.482 345.285 275.473C345.256 275.464 345.229 275.447 345.207 275.425C344.11 274.654 342.806 274.252 341.476 274.275C340.802 274.262 340.131 274.389 339.506 274.649C338.881 274.908 338.313 275.295 337.838 275.786C337.363 276.278 336.99 276.862 336.741 277.505C336.493 278.148 336.374 278.836 336.393 279.527C336.387 280.24 336.519 280.947 336.78 281.608C337.042 282.268 337.428 282.869 337.917 283.376C338.406 283.883 338.988 284.286 339.629 284.561C340.27 284.837 340.958 284.98 341.654 284.982ZM349.237 285.369C348.759 285.361 348.295 285.207 347.902 284.928C347.51 284.649 347.207 284.257 347.032 283.802C346.858 283.347 346.818 282.848 346.92 282.37C347.022 281.891 347.259 281.454 347.603 281.114C347.947 280.774 348.381 280.545 348.851 280.458C349.321 280.371 349.806 280.428 350.244 280.623C350.682 280.818 351.053 281.142 351.312 281.554C351.57 281.965 351.703 282.446 351.695 282.936C351.683 283.592 351.418 284.217 350.957 284.674C350.496 285.13 349.877 285.38 349.237 285.369Z" fill="#0075C9"/>
<path d="M297.849 313.278L299.119 313.3L299.068 316.202L301.753 316.249L301.803 313.355L303.058 313.377L302.934 320.488L301.665 320.466L301.717 317.475L299.047 317.428L298.995 320.419L297.725 320.397L297.849 313.278ZM307.024 318.233C306.997 318.504 306.872 318.754 306.673 318.935C306.475 319.116 306.217 319.214 305.952 319.209C305.687 319.204 305.433 319.098 305.241 318.91C305.049 318.722 304.932 318.468 304.915 318.196L304.969 315.138L303.758 315.117L303.704 318.175C303.693 318.79 303.921 319.384 304.338 319.826C304.755 320.268 305.325 320.522 305.925 320.533C306.525 320.543 307.105 320.309 307.536 319.882C307.968 319.454 308.217 318.869 308.227 318.254L308.281 315.196L307.077 315.175L307.024 318.233ZM311.643 315.322C311.38 315.304 311.116 315.344 310.87 315.441C310.624 315.537 310.401 315.687 310.217 315.88L310.258 313.525L309.047 313.504L308.971 317.871C308.946 318.216 308.989 318.563 309.097 318.891C309.204 319.22 309.374 319.523 309.597 319.783C309.82 320.043 310.092 320.255 310.395 320.406C310.699 320.558 311.03 320.646 311.367 320.665C311.715 320.678 312.063 320.62 312.389 320.496C312.716 320.371 313.015 320.181 313.27 319.937C313.526 319.694 313.731 319.401 313.876 319.076C314.02 318.751 314.101 318.399 314.113 318.042C314.126 317.698 314.072 317.354 313.954 317.03C313.837 316.707 313.658 316.411 313.429 316.159C313.199 315.906 312.923 315.703 312.617 315.561C312.31 315.419 311.979 315.34 311.642 315.329L311.643 315.322ZM311.606 319.51C311.313 319.533 311.019 319.465 310.764 319.315C310.509 319.164 310.305 318.938 310.178 318.667C310.05 318.395 310.006 318.09 310.051 317.792C310.096 317.494 310.228 317.216 310.429 316.996C310.63 316.776 310.892 316.623 311.179 316.558C311.467 316.493 311.766 316.518 312.039 316.631C312.312 316.743 312.545 316.938 312.708 317.189C312.871 317.44 312.957 317.736 312.953 318.037C312.948 318.41 312.807 318.768 312.558 319.041C312.309 319.313 311.969 319.481 311.606 319.51ZM316.19 315.708C316.18 315.593 316.196 315.477 316.237 315.37C316.278 315.263 316.343 315.166 316.426 315.089C316.51 315.011 316.609 314.955 316.718 314.923C316.826 314.892 316.939 314.886 317.05 314.907C317.489 314.969 317.89 315.194 318.177 315.54L318.982 314.604C318.76 314.32 318.481 314.088 318.164 313.924C317.847 313.76 317.5 313.667 317.145 313.652C316.861 313.615 316.573 313.639 316.299 313.723C316.026 313.808 315.772 313.951 315.556 314.143C315.34 314.334 315.165 314.571 315.044 314.837C314.924 315.102 314.859 315.391 314.854 315.684C314.812 318.092 317.707 317.38 317.684 318.726C317.655 318.935 317.551 319.126 317.392 319.262C317.233 319.397 317.031 319.468 316.825 319.459C316.566 319.457 316.313 319.384 316.091 319.249C315.869 319.114 315.686 318.92 315.561 318.689L314.669 319.608C314.907 319.943 315.218 320.216 315.577 320.405C315.936 320.594 316.333 320.695 316.737 320.699C317.016 320.731 317.298 320.705 317.567 320.621C317.836 320.538 318.084 320.398 318.298 320.212C318.512 320.026 318.687 319.796 318.811 319.538C318.935 319.28 319.006 318.999 319.02 318.712C319.066 316.042 316.134 316.821 316.154 315.67M322.237 315.394C321.899 315.401 321.566 315.476 321.256 315.617C320.947 315.757 320.668 315.959 320.436 316.212C320.204 316.464 320.023 316.762 319.904 317.086C319.786 317.411 319.732 317.757 319.745 318.103L319.669 322.478L320.873 322.499L320.914 320.136C321.094 320.333 321.313 320.49 321.557 320.595C321.8 320.699 322.062 320.75 322.326 320.744C322.663 320.743 322.996 320.674 323.306 320.541C323.617 320.408 323.899 320.214 324.136 319.97C324.374 319.725 324.562 319.435 324.69 319.116C324.818 318.797 324.884 318.455 324.883 318.111C324.884 317.754 324.817 317.4 324.685 317.07C324.552 316.74 324.358 316.441 324.112 316.188C323.866 315.936 323.574 315.735 323.252 315.599C322.93 315.463 322.586 315.393 322.237 315.394ZM322.376 319.593C321.982 319.586 321.607 319.419 321.334 319.129C321.06 318.839 320.911 318.449 320.918 318.045C320.925 317.642 321.088 317.257 321.371 316.977C321.655 316.696 322.035 316.543 322.429 316.549C322.823 316.556 323.197 316.723 323.471 317.013C323.744 317.304 323.894 317.693 323.887 318.097C323.88 318.501 323.717 318.885 323.433 319.165C323.15 319.446 322.769 319.6 322.376 319.593ZM333.763 319.859C333.033 319.846 332.856 319.529 332.865 319.043L332.902 316.897L334.011 316.916L334.03 315.839L332.935 315.82L332.96 314.384L331.725 314.924L331.649 319.298C331.634 319.534 331.67 319.771 331.754 319.991C331.838 320.211 331.968 320.41 332.135 320.573C332.302 320.736 332.501 320.86 332.72 320.936C332.938 321.012 333.17 321.038 333.4 321.012C333.563 321.019 333.727 321.009 333.889 320.983L334.208 319.859L333.777 319.852" fill="#45535E"/>
<path d="M330.654 316.932C330.427 316.521 330.102 316.175 329.708 315.929C329.411 315.744 329.081 315.621 328.737 315.567L328.759 314.266C328.932 314.194 329.08 314.072 329.186 313.914C329.291 313.756 329.349 313.57 329.351 313.379C329.356 313.117 329.259 312.864 329.081 312.676C328.904 312.488 328.661 312.38 328.406 312.375C328.15 312.371 327.903 312.47 327.72 312.652C327.536 312.834 327.43 313.084 327.425 313.345C327.417 313.535 327.465 313.723 327.562 313.885C327.66 314.047 327.802 314.175 327.971 314.253L327.949 315.554C327.652 315.593 327.362 315.679 327.091 315.808L323.723 313.094C323.753 313 323.769 312.902 323.771 312.803C323.786 312.651 323.77 312.497 323.724 312.351C323.678 312.206 323.603 312.072 323.504 311.957C323.405 311.843 323.284 311.751 323.148 311.687C323.013 311.624 322.866 311.589 322.716 311.587C322.567 311.584 322.419 311.613 322.281 311.672C322.143 311.731 322.019 311.819 321.916 311.93C321.813 312.041 321.733 312.172 321.682 312.316C321.631 312.46 321.61 312.613 321.619 312.765C321.616 312.91 321.64 313.053 321.691 313.188C321.742 313.323 321.818 313.446 321.915 313.55C322.012 313.655 322.128 313.739 322.257 313.797C322.386 313.856 322.524 313.887 322.665 313.891C322.866 313.9 323.064 313.849 323.237 313.744L323.46 313.92L326.485 316.216C326.315 316.368 326.165 316.542 326.038 316.732C325.781 317.117 325.637 317.568 325.621 318.034L325.619 318.161C325.618 318.485 325.669 318.807 325.77 319.114C325.862 319.37 325.993 319.61 326.159 319.824L325.12 320.853C324.967 320.794 324.801 320.782 324.643 320.82C324.484 320.857 324.339 320.942 324.228 321.064C324.116 321.185 324.042 321.338 324.014 321.503C323.987 321.667 324.008 321.836 324.075 321.989C324.141 322.141 324.25 322.27 324.388 322.359C324.526 322.448 324.687 322.492 324.849 322.488C325.012 322.483 325.17 322.429 325.303 322.333C325.436 322.236 325.538 322.101 325.597 321.946C325.658 321.77 325.662 321.578 325.606 321.4L326.683 320.341C326.826 320.45 326.981 320.54 327.145 320.611C327.487 320.775 327.858 320.863 328.236 320.87L328.308 320.871C328.748 320.872 329.181 320.76 329.568 320.544C329.954 320.329 330.281 320.017 330.519 319.638C330.772 319.244 330.911 318.785 330.922 318.313C330.935 317.85 330.827 317.391 330.609 316.984L330.654 316.932ZM329.331 319.153C329.211 319.308 329.06 319.433 328.889 319.522C328.717 319.611 328.529 319.66 328.337 319.667L328.278 319.666C328.059 319.659 327.844 319.596 327.654 319.483C327.436 319.361 327.253 319.183 327.123 318.965C326.983 318.76 326.908 318.516 326.909 318.266L326.91 318.184C326.909 317.944 326.969 317.708 327.083 317.498C327.204 317.269 327.381 317.076 327.596 316.939C327.815 316.796 328.071 316.724 328.33 316.735C328.562 316.734 328.791 316.794 328.994 316.909C329.198 317.023 329.369 317.189 329.493 317.391C329.62 317.597 329.696 317.832 329.715 318.075C329.717 318.128 329.716 318.18 329.712 318.232C329.701 318.576 329.562 318.903 329.324 319.146L329.331 319.153Z" fill="#F8761F"/>
<path d="M279.414 340.596L279.141 356.239L266.506 356.019L279.414 340.596Z" fill="#03363D"/>
<path d="M279.512 334.987C279.482 336.705 278.787 338.34 277.581 339.534C276.375 340.728 274.757 341.382 273.081 341.353C271.405 341.323 269.81 340.613 268.647 339.378C267.483 338.143 266.846 336.484 266.876 334.767L279.512 334.987Z" fill="#03363D"/>
<path d="M281.22 356.283C281.25 354.565 281.944 352.93 283.15 351.736C284.356 350.542 285.975 349.888 287.651 349.917C289.326 349.946 290.921 350.657 292.085 351.892C293.249 353.127 293.886 354.786 293.856 356.503L281.22 356.283Z" fill="#03363D"/>
<path d="M281.318 350.659L281.591 335.023L294.234 335.244L281.318 350.659Z" fill="#03363D"/>
<path d="M251.367 358.695C251.285 358.798 251.188 358.946 251.06 359.145C249.738 360.839 248.166 362.31 246.401 363.507L245.973 363.807L245.902 367.859L245.804 373.513C240.806 372.455 235.67 372.252 230.606 372.911C235.449 371.836 240.312 372.07 245.204 372.754L245.526 354.284L244.877 354.273C244.839 354.377 244.793 354.496 244.739 354.622C243.469 358.168 241.415 361.366 238.738 363.965L238.375 364.287L238.292 369.058L238.268 370.434C238.264 370.643 238.261 370.845 238.257 371.077C235.339 370.933 232.423 371.391 229.681 372.424C232.183 371.238 234.892 370.579 237.647 370.483L238.009 349.71L237.36 349.699C237.313 349.885 237.281 350.041 237.235 350.19C236.592 352.303 236.094 354.486 235.278 356.529C232.786 362.581 229.226 368.111 224.777 372.839C224.606 373.023 224.361 373.221 224.336 373.437C224.273 374.124 224.311 374.828 224.298 375.576C233.548 372.416 242.612 373.651 251.638 376.217L251.944 358.705L251.367 358.695Z" fill="#213476"/>
<path d="M195.018 360.644L188.09 365.011L194.862 369.617L187.933 373.984L181.162 369.341L188.09 364.974L181.317 360.412L188.246 356.045L195.018 360.644ZM187.872 375.382L194.801 371.015L201.573 375.621L194.644 379.988L187.872 375.382ZM194.863 369.565L201.791 365.198L195.018 360.636L201.91 356.268L208.675 360.874L201.754 365.242L208.519 369.848L201.597 374.215L194.863 369.565Z" fill="#0061FF"/>
<path d="M145.921 358.942C145.908 359.222 145.938 359.503 146.008 359.774C146.084 360.006 146.175 360.232 146.281 360.452C146.324 360.516 146.346 360.592 146.343 360.67C146.337 360.726 146.319 360.78 146.289 360.828C146.259 360.875 146.218 360.915 146.171 360.943L145.587 361.322C145.519 361.374 145.437 361.404 145.352 361.408C145.247 361.396 145.15 361.347 145.078 361.268C144.96 361.131 144.853 360.984 144.757 360.829C144.672 360.663 144.58 360.489 144.489 360.271C144.161 360.674 143.747 360.995 143.279 361.21C142.811 361.425 142.302 361.528 141.789 361.51C141.457 361.522 141.125 361.466 140.814 361.345C140.503 361.224 140.219 361.04 139.977 360.806C139.75 360.547 139.576 360.244 139.464 359.915C139.352 359.586 139.305 359.237 139.326 358.89C139.347 358.542 139.436 358.202 139.586 357.889C139.737 357.577 139.946 357.298 140.203 357.069C140.84 356.56 141.636 356.308 142.441 356.36C142.764 356.366 143.085 356.396 143.403 356.452C143.745 356.503 144.086 356.584 144.45 356.672L144.462 355.992C144.524 355.456 144.379 354.916 144.057 354.489C143.645 354.159 143.128 353.998 142.606 354.037C142.274 354.031 141.943 354.066 141.619 354.14C141.284 354.214 140.955 354.316 140.636 354.444L140.312 354.558L140.167 354.556C140.035 354.553 139.979 354.455 139.982 354.261L139.99 353.804C139.982 353.691 140.004 353.578 140.054 353.476C140.126 353.395 140.215 353.331 140.313 353.286C140.684 353.109 141.073 352.975 141.473 352.888C141.937 352.774 142.414 352.722 142.891 352.733C143.752 352.673 144.602 352.956 145.264 353.522C145.523 353.841 145.717 354.209 145.835 354.605C145.954 355.002 145.994 355.418 145.953 355.831L145.901 358.822L145.921 358.942ZM142.197 360.298C142.518 360.3 142.837 360.247 143.141 360.143C143.478 360.032 143.779 359.831 144.013 359.559C144.163 359.392 144.273 359.192 144.337 358.974C144.401 358.708 144.435 358.435 144.438 358.161L144.445 357.772C144.173 357.695 143.896 357.637 143.616 357.6C143.332 357.557 143.044 357.532 142.756 357.525C142.276 357.479 141.795 357.603 141.393 357.876C141.116 358.135 140.946 358.495 140.921 358.879C140.895 359.263 141.015 359.642 141.255 359.938C141.379 360.062 141.526 360.158 141.689 360.22C141.851 360.282 142.024 360.309 142.197 360.298ZM149.475 361.427C149.354 361.44 149.232 361.406 149.134 361.332C149.04 361.228 148.974 361.1 148.943 360.962L146.917 353.716C146.879 353.594 146.855 353.468 146.843 353.341C146.839 353.31 146.842 353.278 146.852 353.248C146.861 353.219 146.878 353.192 146.899 353.17C146.921 353.147 146.947 353.131 146.976 353.121C147.005 353.111 147.036 353.108 147.066 353.113L147.956 353.128C148.083 353.115 148.21 353.152 148.312 353.231C148.402 353.333 148.463 353.459 148.488 353.594L149.905 359.797L151.435 353.645C151.439 353.577 151.456 353.511 151.487 353.451C151.517 353.39 151.559 353.337 151.611 353.295C151.663 353.253 151.723 353.222 151.787 353.206C151.851 353.189 151.918 353.187 151.983 353.198L152.713 353.211C152.842 353.199 152.971 353.236 153.076 353.315C153.17 353.413 153.229 353.54 153.245 353.677L154.595 359.953L156.279 353.73C156.309 353.595 156.374 353.472 156.468 353.374C156.572 353.304 156.696 353.272 156.82 353.283L157.666 353.297C157.697 353.294 157.728 353.298 157.756 353.309C157.785 353.32 157.811 353.338 157.833 353.36C157.854 353.383 157.87 353.41 157.88 353.44C157.889 353.47 157.892 353.502 157.888 353.533C157.891 353.583 157.89 353.633 157.886 353.683C157.871 353.762 157.848 353.839 157.816 353.913L155.501 361.091C155.468 361.227 155.397 361.35 155.298 361.447C155.196 361.516 155.075 361.548 154.954 361.538L154.173 361.524C154.044 361.536 153.915 361.5 153.81 361.421C153.716 361.317 153.657 361.185 153.641 361.044L152.338 355.037L150.833 360.995C150.808 361.134 150.745 361.262 150.651 361.366C150.542 361.437 150.413 361.466 150.285 361.449L149.475 361.427ZM161.143 361.885C160.672 361.879 160.202 361.816 159.745 361.696C159.383 361.612 159.032 361.48 158.701 361.304C158.585 361.245 158.487 361.153 158.421 361.037C158.392 360.953 158.376 360.864 158.375 360.775L158.383 360.296C158.387 360.102 158.461 360.013 158.6 360.016C158.653 360.009 158.707 360.01 158.76 360.019L158.985 360.12C159.304 360.273 159.64 360.386 159.986 360.459C160.34 360.54 160.701 360.584 161.064 360.59C161.525 360.629 161.988 360.531 162.397 360.306C162.546 360.218 162.67 360.09 162.756 359.937C162.842 359.783 162.887 359.609 162.886 359.432C162.892 359.311 162.874 359.19 162.834 359.076C162.793 358.963 162.731 358.858 162.65 358.77C162.386 358.538 162.075 358.369 161.739 358.275L160.426 357.834C159.855 357.672 159.35 357.327 158.983 356.851C158.697 356.458 158.544 355.98 158.547 355.489C158.549 355.129 158.641 354.776 158.813 354.462C158.985 354.172 159.213 353.921 159.483 353.726C159.77 353.509 160.095 353.349 160.44 353.256C160.814 353.153 161.201 353.107 161.588 353.119C161.791 353.12 161.993 353.136 162.193 353.167C162.404 353.171 162.593 353.234 162.782 353.274L163.305 353.433C163.436 353.48 163.562 353.54 163.681 353.612C163.786 353.669 163.877 353.75 163.947 353.848C164.008 353.939 164.037 354.047 164.029 354.156L164.022 354.598C164.018 354.792 163.943 354.895 163.805 354.893C163.683 354.876 163.564 354.836 163.457 354.775C162.913 354.513 162.32 354.377 161.719 354.378C161.301 354.345 160.881 354.428 160.504 354.619C160.364 354.701 160.249 354.822 160.172 354.967C160.095 355.112 160.058 355.276 160.066 355.441C160.061 355.565 160.082 355.689 160.126 355.804C160.171 355.92 160.238 356.024 160.324 356.111C160.617 356.354 160.954 356.532 161.315 356.637L162.599 357.079C163.146 357.234 163.634 357.555 163.999 358.001C164.267 358.383 164.405 358.845 164.392 359.316C164.39 359.689 164.304 360.056 164.139 360.389C163.97 360.707 163.737 360.983 163.454 361.2C163.151 361.436 162.806 361.608 162.438 361.706C162.029 361.827 161.605 361.888 161.18 361.886L161.143 361.885Z" fill="#252F3E"/>
<path fill-rule="evenodd" clip-rule="evenodd" d="M162.815 366.447C159.507 368.667 155.624 369.812 151.673 369.731C146.678 369.672 141.887 367.703 138.239 364.209C137.96 363.942 138.25 363.595 138.553 363.803C142.111 365.988 146.116 367.299 150.254 367.63C154.391 367.962 158.547 367.306 162.397 365.715C162.897 365.506 163.318 366.082 162.815 366.447Z" fill="#FF9900"/>
<path fill-rule="evenodd" clip-rule="evenodd" d="M164.088 365.019C163.717 364.503 161.568 364.728 160.588 364.83C160.296 364.863 160.257 364.608 160.523 364.41C162.259 363.214 165.061 363.614 165.382 364.031C165.703 364.448 165.23 367.327 163.608 368.683C163.356 368.895 163.125 368.779 163.239 368.497C163.62 367.583 164.466 365.519 164.088 365.019Z" fill="#FF9900"/>
<path d="M109.869 357.341C117.424 357.472 123.658 351.302 123.793 343.558C123.928 335.815 117.913 329.431 110.359 329.299C102.804 329.167 96.5703 335.338 96.4352 343.081C96.3002 350.825 102.315 357.209 109.869 357.341Z" fill="#2CA01C"/>
<path d="M100.236 343.147C100.213 344.592 100.75 345.987 101.729 347.027C102.708 348.066 104.049 348.665 105.459 348.691L106.189 348.704L106.224 346.677L105.495 346.665C104.635 346.608 103.83 346.215 103.247 345.566C102.664 344.917 102.347 344.063 102.362 343.18C102.378 342.298 102.724 341.455 103.33 340.827C103.935 340.199 104.753 339.834 105.614 339.808L107.438 339.839L107.253 350.435C107.244 350.973 107.443 351.492 107.807 351.878C108.171 352.265 108.671 352.487 109.195 352.496L109.45 337.855L105.649 337.789C104.239 337.764 102.876 338.315 101.861 339.32C100.846 340.325 100.261 341.701 100.236 343.147ZM114.769 337.948L114.039 337.935L114.004 339.954L114.733 339.967C115.593 340.023 116.398 340.416 116.981 341.065C117.564 341.714 117.881 342.568 117.866 343.451C117.85 344.333 117.504 345.176 116.898 345.804C116.293 346.433 115.475 346.798 114.614 346.824L112.79 346.792L112.975 336.196C112.979 335.93 112.933 335.666 112.838 335.419C112.742 335.172 112.601 334.946 112.42 334.756C112.24 334.565 112.024 334.412 111.786 334.307C111.548 334.202 111.292 334.146 111.033 334.142L110.777 348.821L114.578 348.888C115.988 348.912 117.351 348.361 118.366 347.357C119.381 346.352 119.966 344.975 119.991 343.529C120.016 342.083 119.48 340.687 118.501 339.647C117.521 338.608 116.178 338.01 114.768 337.985L114.769 337.948Z" fill="white"/>
<path d="M77.8078 311.527C77.3641 311.514 76.9223 311.594 76.5095 311.761C76.0967 311.929 75.7216 312.182 75.4071 312.503C75.0927 312.825 74.8456 313.209 74.6809 313.631C74.5162 314.054 74.4375 314.507 74.4494 314.962C74.4437 315.398 74.5219 315.831 74.6794 316.236C74.837 316.641 75.0708 317.01 75.3676 317.322C75.6644 317.634 76.0183 317.883 76.4091 318.055C76.8 318.227 77.2201 318.318 77.6455 318.324C78.0835 318.35 78.5222 318.284 78.9339 318.128C79.3455 317.972 79.7213 317.73 80.0374 317.418C80.3535 317.106 80.603 316.73 80.7703 316.314C80.9376 315.898 81.0189 315.451 81.0093 315.001C81.0298 314.556 80.9624 314.11 80.8113 313.692C80.6601 313.274 80.4281 312.891 80.1293 312.566C79.8305 312.242 79.4709 311.983 79.072 311.804C78.6732 311.626 78.2432 311.532 77.8078 311.527Z" fill="#73C41D"/>
<path d="M75.6846 298.542C72.9792 298.495 70.3202 299.271 68.0439 300.773C65.7676 302.274 63.9761 304.433 62.8961 306.977C61.8161 309.521 61.4961 312.335 61.9764 315.064C62.4568 317.793 63.716 320.314 65.5948 322.309C67.4736 324.303 69.8876 325.681 72.5316 326.268C75.1756 326.855 77.9308 326.626 80.4487 325.608C82.9667 324.59 85.1344 322.831 86.6776 320.551C88.2209 318.272 89.0704 315.575 89.1188 312.802C89.1837 309.083 87.8047 305.492 85.2853 302.818C82.7659 300.143 79.3124 298.606 75.6846 298.542ZM71.4055 311.67C70.855 311.575 70.3202 311.402 69.8163 311.156C68.9959 310.689 68.2987 310.025 67.7848 309.221C67.1161 308.435 66.3977 307.695 65.6342 307.006C65.9619 307.047 66.2873 307.105 66.609 307.18C67.4702 307.427 68.2995 307.778 69.0793 308.226C69.2945 308.335 69.4998 308.464 69.6928 308.611C70.0865 308.891 70.4458 309.219 70.7631 309.587C71.1571 310.012 71.4796 310.347 71.8226 310.765C71.1076 308.997 70.1539 307.341 68.9894 305.846C68.84 305.626 70.1664 306.562 70.5174 306.942C71.2535 307.754 71.7717 308.747 72.0215 309.826L72.5764 311.9C72.5764 311.9 71.9143 311.784 71.4055 311.67ZM77.6221 319.67C77.023 319.683 76.4276 319.57 75.873 319.338C75.3183 319.106 74.8162 318.76 74.3976 318.32C73.9791 317.881 73.653 317.358 73.4397 316.784C73.2264 316.211 73.1303 315.598 73.1575 314.984L73.3171 305.831L74.7178 305.856L74.6201 311.457L74.7686 311.31C75.186 310.895 75.6851 310.576 76.2324 310.376C76.7797 310.175 77.3624 310.097 77.9415 310.146C79.1736 310.188 80.3385 310.73 81.1798 311.653C82.0211 312.576 82.4699 313.804 82.4276 315.067C82.3852 316.33 81.8551 317.525 80.9539 318.388C80.0527 319.251 78.8542 319.712 77.6221 319.67Z" fill="#73C41D"/>
<path d="M85.5557 323.376L86.4682 323.392L86.4646 323.601L86.1215 323.595L86.1055 324.508L85.8719 324.503L85.8878 323.591L85.552 323.585L85.5557 323.376Z" fill="#73C41D"/>
<path d="M87.2439 324.086L87.6208 323.412L87.8764 323.416L87.8568 324.538L87.6597 324.535L87.6736 323.735L87.2971 324.386L87.173 324.384L86.8195 323.72L86.8055 324.52L86.6157 324.517L86.6353 323.395L86.8835 323.399L87.2439 324.086Z" fill="#73C41D"/>
<path d="M50.9832 275.904L54.4339 275.964C54.6324 275.995 54.8351 275.982 55.0285 275.927C55.2218 275.871 55.4014 275.773 55.555 275.641C55.7087 275.508 55.833 275.343 55.9194 275.158C56.0059 274.972 56.0527 274.769 56.0565 274.563C56.054 274.359 56.0106 274.157 55.9289 273.97C55.8472 273.784 55.729 273.616 55.5816 273.478C55.4342 273.34 55.2607 273.235 55.0719 273.169C54.8832 273.102 54.6831 273.076 54.484 273.092L51.0333 273.032C50.9789 273.031 50.9259 273.05 50.8848 273.087C50.8437 273.124 50.8173 273.175 50.8109 273.23L50.7676 275.713C50.7754 275.766 50.8014 275.814 50.841 275.849C50.8805 275.884 50.931 275.903 50.9832 275.904Z" fill="#34313F"/>
<path d="M50.8833 281.631L54.4435 281.693C55.5378 281.712 56.2043 281.155 56.2219 280.146C56.2243 279.92 56.1802 279.697 56.0924 279.49C56.0046 279.283 55.875 279.097 55.7123 278.945C55.5495 278.793 55.3573 278.679 55.1481 278.608C54.9389 278.538 54.7175 278.514 54.4985 278.537L50.9384 278.475C50.8839 278.474 50.831 278.494 50.7899 278.53C50.7487 278.567 50.7224 278.618 50.716 278.673L50.6683 281.41C50.6691 281.469 50.6921 281.524 50.7322 281.565C50.7723 281.606 50.8265 281.63 50.8833 281.631Z" fill="#34313F"/>
<path d="M63.8965 260.203L53.5005 270.494L55.1711 270.523C57.7682 270.569 59.2782 272.278 59.2462 274.11C59.2255 274.75 59.0242 275.37 58.6665 275.894C58.3089 276.419 57.8105 276.827 57.2316 277.067C57.1951 277.081 57.1637 277.107 57.1412 277.14C57.1188 277.173 57.1065 277.212 57.1058 277.252C57.1051 277.292 57.1161 277.331 57.1373 277.365C57.1586 277.399 57.1891 277.425 57.2251 277.441C57.821 277.717 58.3233 278.168 58.6682 278.737C59.013 279.307 59.1847 279.969 59.1616 280.639C59.1253 282.717 57.7394 284.354 55.1058 284.308L47.9053 284.182C47.8528 284.182 47.8024 284.161 47.7639 284.124C47.7254 284.088 47.7016 284.038 47.6971 283.984L47.8351 276.073L36.4225 287.326C36.39 287.36 36.3679 287.404 36.3586 287.451C36.3493 287.498 36.3533 287.547 36.3701 287.592C36.3869 287.637 36.4158 287.676 36.4535 287.705C36.4911 287.734 36.536 287.751 36.5829 287.755L63.5245 288.225C63.5729 288.226 63.6196 288.207 63.6544 288.172C63.6893 288.138 63.7093 288.091 63.7102 288.041L64.1928 260.373C64.2472 260.18 64.0156 260.071 63.8965 260.203Z" fill="#34313F"/>
<path fill-rule="evenodd" clip-rule="evenodd" d="M33.9731 221.069C35.0145 219.984 36.4325 219.366 37.9168 219.35C39.4011 219.334 40.8306 219.921 41.8925 220.983C42.3169 221.409 42.6706 221.903 42.9397 222.445C43.8282 222.057 44.7864 221.865 45.7518 221.881C47.5566 221.972 49.2554 222.78 50.489 224.132C51.7226 225.485 52.3942 227.276 52.3619 229.128C52.3296 230.98 51.5959 232.747 50.3159 234.056C49.0359 235.365 47.31 236.112 45.5031 236.141C45.0449 236.137 44.5885 236.084 44.1412 235.982C43.4947 237.114 42.4525 237.952 41.2262 238.325C39.9998 238.698 38.6813 238.579 37.5383 237.992C37.0698 239.072 36.2955 239.982 35.3159 240.606C34.3364 241.23 33.1968 241.537 32.0451 241.489C30.8934 241.441 29.7827 241.039 28.8573 240.335C27.9318 239.632 27.2343 238.659 26.8553 237.543C26.4913 237.612 26.1216 237.643 25.7517 237.636C24.5674 237.607 23.4257 237.179 22.5021 236.42C21.5785 235.66 20.9241 234.61 20.6396 233.432C20.355 232.253 20.4561 231.011 20.9272 229.897C21.3983 228.782 22.2134 227.857 23.2471 227.263C22.7073 225.834 22.6882 224.253 23.1932 222.81C23.6982 221.367 24.6936 220.159 25.9968 219.406C27.3 218.654 28.8238 218.408 30.2888 218.713C31.7538 219.019 33.0618 219.855 33.9731 221.069Z" fill="#00A1E0"/>
<path fill-rule="evenodd" clip-rule="evenodd" d="M25.128 230.302L25.2656 229.946C25.2692 229.933 25.2773 229.923 25.2882 229.916C25.2992 229.909 25.3121 229.907 25.3246 229.909L25.4327 229.986C25.6836 230.153 25.9755 230.244 26.2747 230.248C26.5592 230.253 26.737 230.099 26.7406 229.897C26.7445 229.672 26.4761 229.578 26.1641 229.475L26.0912 229.474C25.6629 229.339 25.1992 229.152 25.209 228.591C25.211 228.463 25.2386 228.336 25.29 228.219C25.3414 228.102 25.4156 227.997 25.5079 227.911C25.6003 227.824 25.709 227.758 25.8272 227.715C25.9455 227.673 26.0709 227.656 26.1957 227.666L26.3416 227.668C26.6713 227.675 26.9938 227.768 27.2782 227.939C27.2863 227.95 27.2906 227.963 27.2904 227.977C27.2902 227.99 27.2854 228.003 27.2769 228.014L27.1394 228.37C27.1383 228.43 27.0518 228.369 27.0518 228.369C26.7964 228.229 26.5134 228.15 26.2239 228.137C25.9686 228.133 25.7983 228.272 25.7951 228.459C25.7913 228.676 26.0742 228.771 26.3933 228.888L26.4516 228.889C26.8796 229.039 27.3358 229.241 27.3265 229.772C27.3165 230.348 26.9017 230.7 26.2597 230.689C25.929 230.693 25.6032 230.607 25.3154 230.44L25.1276 230.325C25.1206 230.314 25.117 230.301 25.1172 230.287C25.1175 230.274 25.1215 230.261 25.1289 230.25L25.128 230.302ZM34.736 230.47L34.8735 230.113C34.8784 230.109 34.8841 230.105 34.8904 230.102C34.8968 230.1 34.9035 230.098 34.9103 230.098C34.9171 230.098 34.9238 230.1 34.93 230.103C34.9362 230.106 34.9418 230.11 34.9465 230.115L35.0546 230.191C35.3049 230.36 35.5972 230.45 35.8966 230.453C36.1738 230.458 36.3589 230.304 36.3625 230.102C36.3664 229.878 36.098 229.783 35.7787 229.68L35.713 229.679C35.2775 229.545 34.8211 229.357 34.8308 228.796C34.8363 228.666 34.8682 228.538 34.9245 228.422C34.9809 228.305 35.0605 228.201 35.1581 228.118C35.2558 228.034 35.3694 227.972 35.4916 227.937C35.6139 227.901 35.7421 227.891 35.868 227.909L35.919 227.91C36.2489 227.916 36.5716 228.009 36.8557 228.181C36.8627 228.192 36.8664 228.205 36.8661 228.218C36.8659 228.232 36.8618 228.245 36.8544 228.256C36.8149 228.378 36.7665 228.497 36.7095 228.612L36.622 228.611C36.3666 228.471 36.0836 228.391 35.7941 228.379C35.5388 228.375 35.3758 228.514 35.3725 228.701C35.3687 228.918 35.6444 229.012 35.9707 229.13L36.0218 229.131C36.4498 229.281 36.9133 229.483 36.904 230.014C36.9008 230.149 36.8695 230.282 36.8123 230.403C36.7552 230.525 36.6734 230.633 36.5725 230.719C36.4715 230.806 36.3537 230.87 36.227 230.906C36.1002 230.943 35.9673 230.951 35.8372 230.931C35.5018 230.934 35.1714 230.849 34.8782 230.682L34.6978 230.567C34.6918 230.492 34.7132 230.522 34.736 230.47ZM41.8645 228.867C41.9669 229.262 41.9596 229.679 41.8435 230.07C41.7948 230.249 41.707 230.414 41.5869 230.552C41.4712 230.69 41.3273 230.8 41.1654 230.874C40.786 231.024 40.3647 231.017 39.9908 230.853C39.8307 230.772 39.6886 230.657 39.5734 230.517C39.4636 230.371 39.3822 230.204 39.3339 230.027C39.2314 229.631 39.2387 229.214 39.3549 228.823C39.4091 228.643 39.499 228.476 39.6188 228.334C39.7348 228.198 39.8787 228.091 40.0403 228.019C40.2268 227.939 40.4275 227.9 40.6297 227.903C40.8319 227.907 41.0312 227.953 41.2148 228.04C41.3759 228.117 41.5184 228.229 41.6323 228.369C41.7441 228.515 41.8234 228.685 41.8645 228.867ZM41.3144 229.44C41.3337 229.179 41.2773 228.918 41.1524 228.69C41.0895 228.607 41.0095 228.54 40.9181 228.494C40.8268 228.447 40.7264 228.422 40.6244 228.42C40.5223 228.418 40.4211 228.44 40.3282 228.483C40.2353 228.527 40.153 228.591 40.0873 228.671C39.9718 228.902 39.9094 229.157 39.9049 229.416C39.9004 229.675 39.9538 229.932 40.0612 230.167C40.1162 230.258 40.1944 230.332 40.2874 230.381C40.3804 230.43 40.4846 230.452 40.589 230.445C40.6951 230.461 40.8033 230.446 40.9019 230.403C41.0005 230.36 41.0856 230.29 41.1479 230.2C41.2749 229.964 41.3328 229.695 41.3147 229.425L41.3144 229.44ZM46.3464 230.471L46.4709 230.862C46.4767 230.871 46.4797 230.881 46.4795 230.892C46.4794 230.903 46.476 230.913 46.4699 230.922C46.2186 231.013 45.9532 231.056 45.6868 231.05C45.4876 231.062 45.2884 231.029 45.1031 230.953C44.9178 230.878 44.751 230.761 44.6144 230.612C44.3719 230.294 44.254 229.895 44.2836 229.492C44.2861 229.286 44.3217 229.082 44.389 228.888C44.4453 228.718 44.5322 228.559 44.6453 228.421C44.7736 228.287 44.9268 228.18 45.0959 228.108C45.289 228.028 45.4956 227.988 45.7036 227.991C45.8423 227.986 45.9811 227.988 46.1195 227.998C46.2375 228.026 46.3539 228.06 46.468 228.102C46.4717 228.11 46.4735 228.119 46.4734 228.128C46.4732 228.137 46.4711 228.146 46.4671 228.154L46.3218 228.533C46.3207 228.593 46.2555 228.569 46.2555 228.569C46.0782 228.514 45.895 228.48 45.7099 228.47C45.5937 228.46 45.4771 228.48 45.3696 228.526C45.2622 228.572 45.1671 228.644 45.0923 228.736C44.9406 228.952 44.8641 229.214 44.8749 229.48C44.8527 229.75 44.9315 230.019 45.0954 230.232C45.1776 230.314 45.2752 230.379 45.3822 230.422C45.4892 230.465 45.6036 230.485 45.7186 230.482L46.0177 230.487C46.1058 230.475 46.1921 230.452 46.2743 230.417C46.283 230.411 46.2932 230.408 46.3037 230.408C46.3141 230.408 46.3242 230.412 46.3327 230.418L46.3464 230.471ZM49.1692 228.874C49.2373 229.146 49.2473 229.429 49.1985 229.705C49.1985 229.705 49.1977 229.75 49.1465 229.757L47.2935 229.724C47.282 229.841 47.296 229.959 47.3344 230.07C47.3729 230.18 47.4348 230.281 47.5158 230.364C47.5967 230.447 47.6947 230.51 47.8025 230.55C47.9104 230.589 48.0255 230.603 48.1395 230.592C48.3895 230.601 48.6387 230.557 48.8715 230.462C48.882 230.454 48.8949 230.45 48.9082 230.45C48.9214 230.45 48.9342 230.455 48.9444 230.464L49.0549 230.825C49.0631 230.838 49.0674 230.854 49.0671 230.87C49.0668 230.886 49.062 230.901 49.0533 230.914C48.5377 231.139 47.9576 231.153 47.4326 230.953C47.261 230.884 47.1073 230.776 46.9832 230.636C46.8591 230.497 46.768 230.329 46.7169 230.148C46.6627 229.95 46.6368 229.746 46.6399 229.541C46.6429 229.336 46.676 229.132 46.738 228.937C46.7864 228.751 46.8741 228.579 46.9949 228.432C47.1129 228.294 47.2594 228.184 47.4238 228.111C47.6179 228.027 47.8283 227.989 48.0387 228.002C48.2217 227.998 48.4031 228.037 48.5694 228.116C48.7 228.188 48.8169 228.284 48.9148 228.399C49.0224 228.53 49.0995 228.685 49.1404 228.851L49.1692 228.874ZM47.3165 229.238L48.6443 229.262C48.6344 229.109 48.5922 228.96 48.5205 228.826C48.4671 228.734 48.3904 228.659 48.2988 228.609C48.2072 228.559 48.104 228.535 48.0001 228.54C47.8964 228.53 47.7921 228.55 47.6986 228.598C47.6051 228.645 47.5261 228.717 47.47 228.807C47.3815 228.937 47.3262 229.088 47.3091 229.246L47.3165 229.238ZM34.3232 228.615C34.3902 228.882 34.4027 229.16 34.36 229.431C34.3598 229.445 34.3542 229.458 34.3444 229.468C34.3347 229.478 34.3216 229.483 34.308 229.483L32.455 229.45C32.446 229.565 32.4598 229.68 32.4956 229.788C32.5313 229.897 32.5882 229.997 32.6629 230.082C32.7475 230.163 32.8469 230.225 32.9552 230.265C33.0635 230.306 33.1786 230.323 33.2937 230.318C33.5432 230.329 33.7924 230.288 34.0256 230.196C34.0298 230.191 34.0349 230.187 34.0406 230.185C34.0463 230.182 34.0525 230.181 34.0587 230.181C34.0649 230.181 34.071 230.183 34.0766 230.186C34.0822 230.188 34.0872 230.192 34.0913 230.197L34.2017 230.558C34.208 230.572 34.2111 230.588 34.2108 230.603C34.2105 230.619 34.2069 230.634 34.2002 230.648C33.9071 230.786 33.5845 230.845 33.2631 230.818C33.0295 230.822 32.7974 230.78 32.5793 230.694C32.4036 230.624 32.2457 230.514 32.1179 230.372C31.9987 230.229 31.9097 230.062 31.8564 229.881C31.7549 229.483 31.7623 229.064 31.8775 228.67C31.9336 228.49 32.0206 228.322 32.1343 228.173C32.2536 228.033 32.4029 227.923 32.5705 227.852C32.7644 227.767 32.975 227.729 33.1854 227.743C33.3684 227.739 33.5498 227.778 33.7161 227.857C33.8467 227.929 33.9636 228.025 34.0615 228.14C34.1692 228.274 34.2462 228.431 34.287 228.6L34.3232 228.615ZM32.4705 228.979L33.791 229.002C33.7882 228.844 33.7457 228.689 33.6675 228.552C33.6164 228.46 33.5413 228.384 33.4507 228.334C33.36 228.283 33.2574 228.26 33.1544 228.266C33.0496 228.257 32.9444 228.277 32.8499 228.324C32.7553 228.371 32.6748 228.443 32.617 228.533C32.539 228.671 32.4868 228.822 32.4632 228.979L32.4705 228.979ZM29.2038 228.833L29.5102 228.838L29.5112 228.778C29.5241 228.695 29.5177 228.611 29.4924 228.531C29.4672 228.451 29.4239 228.379 29.366 228.319C29.2365 228.233 29.0848 228.189 28.9304 228.192C28.6505 228.189 28.3732 228.248 28.1173 228.365C28.1087 228.371 28.0984 228.374 28.088 228.374C28.0775 228.374 28.0674 228.37 28.059 228.364L27.9338 228.01C27.9251 227.998 27.9206 227.984 27.9208 227.969C27.9211 227.954 27.9261 227.94 27.9352 227.928C28.115 227.832 28.3082 227.764 28.5079 227.728C28.6725 227.703 28.8385 227.689 29.0049 227.685C29.3121 227.672 29.6135 227.773 29.8538 227.969C29.9568 228.081 30.0354 228.214 30.0845 228.359C30.1335 228.504 30.1519 228.658 30.1383 228.812L30.108 230.546C30.1082 230.56 30.1038 230.573 30.0957 230.584C30.0875 230.595 30.0761 230.602 30.0632 230.606L29.9312 230.641C29.8728 230.64 29.6457 230.695 29.4626 230.73C29.2763 230.756 29.0882 230.768 28.9001 230.765C28.7357 230.763 28.5721 230.743 28.4122 230.704C28.2763 230.675 28.1479 230.617 28.0357 230.533C27.9339 230.453 27.853 230.349 27.8002 230.229C27.7442 230.092 27.717 229.943 27.7202 229.794C27.7187 229.648 27.7531 229.503 27.8204 229.373C27.8877 229.244 27.9857 229.134 28.1053 229.053C28.22 228.967 28.3501 228.906 28.4879 228.873C28.6334 228.833 28.7837 228.816 28.934 228.821L29.2185 228.825L29.2038 228.833ZM28.4511 230.151C28.6112 230.254 28.8013 230.297 28.9889 230.273L29.4935 230.214L29.5084 229.362L29.0058 229.308C28.8156 229.288 28.6242 229.334 28.4634 229.441C28.4098 229.481 28.3662 229.533 28.336 229.594C28.3058 229.654 28.2898 229.721 28.2895 229.789C28.2855 229.878 28.3041 229.966 28.3434 230.044C28.3712 230.092 28.4077 230.133 28.4508 230.166L28.4511 230.151ZM44.1836 228.114C44.1415 228.249 44.0904 228.38 44.0308 228.508C44.0298 228.516 44.0272 228.523 44.0233 228.53C44.0194 228.537 44.0142 228.543 44.008 228.548C44.0018 228.553 43.9947 228.556 43.9872 228.558C43.9797 228.56 43.9719 228.56 43.9642 228.559C43.8965 228.55 43.828 228.549 43.76 228.556C43.6778 228.543 43.5944 228.542 43.5119 228.551C43.4237 228.584 43.345 228.639 43.2829 228.712C43.2081 228.792 43.1516 228.888 43.1174 228.993C43.0661 229.152 43.0434 229.319 43.0505 229.486L43.0254 230.921C43.0236 230.937 43.0167 230.951 43.0058 230.962C42.995 230.972 42.981 230.979 42.966 230.98L42.4772 230.972C42.4631 230.97 42.4502 230.962 42.4409 230.951C42.4317 230.94 42.4268 230.926 42.4272 230.911L42.4768 228.069C42.4758 228.063 42.4763 228.056 42.4781 228.05C42.4799 228.044 42.4831 228.038 42.4873 228.033C42.4916 228.028 42.4969 228.024 42.5028 228.021C42.5087 228.019 42.515 228.018 42.5214 228.018L43.0029 228.026C43.0165 228.026 43.0294 228.032 43.0388 228.042C43.0482 228.052 43.0533 228.066 43.0531 228.079L43.0491 228.311C43.1388 228.214 43.247 228.137 43.3668 228.085C43.5185 228.016 43.6852 227.991 43.8497 228.011C43.9527 228.023 44.0548 228.042 44.1552 228.069C44.1628 228.078 44.1668 228.09 44.1666 228.103C44.1664 228.115 44.1619 228.127 44.154 228.136L44.1836 228.114ZM39.6321 226.733C39.6443 226.735 39.6554 226.742 39.6633 226.751C39.6712 226.761 39.6753 226.774 39.675 226.786L39.5222 227.18C39.5222 227.18 39.5213 227.232 39.4492 227.179C39.3689 227.154 39.2857 227.14 39.2018 227.137C39.1343 227.125 39.0654 227.124 38.9976 227.134C38.9385 227.15 38.8849 227.183 38.8427 227.228C38.7833 227.283 38.7371 227.351 38.7078 227.428C38.6634 227.566 38.6292 227.708 38.6056 227.852L39.1965 227.863C39.2475 227.863 39.2621 227.864 39.2538 227.923L39.1811 228.326C39.1791 228.341 39.1719 228.354 39.161 228.363C39.15 228.373 39.1361 228.378 39.1218 228.377L38.509 228.367L38.0349 230.864C37.9932 231.08 37.9334 231.292 37.856 231.497C37.8018 231.652 37.7201 231.795 37.6151 231.919C37.519 232.029 37.397 232.112 37.2606 232.16C37.1146 232.209 36.9606 232.229 36.8072 232.219C36.7173 232.229 36.6267 232.227 36.5372 232.214L36.3631 232.159C36.355 232.148 36.3507 232.135 36.3509 232.121C36.3511 232.108 36.3559 232.095 36.3644 232.084C36.4052 231.953 36.4538 231.824 36.5098 231.698C36.521 231.691 36.5336 231.688 36.5464 231.688C36.5592 231.689 36.5717 231.692 36.5827 231.699L36.6769 231.738L36.8301 231.741C36.9045 231.741 36.9785 231.73 37.0496 231.707C37.1193 231.684 37.1793 231.638 37.2197 231.576C37.2737 231.492 37.3193 231.402 37.3558 231.309C37.4025 231.164 37.4416 231.018 37.4729 230.869L37.9302 228.499L37.5217 228.492C37.4706 228.491 37.4487 228.49 37.457 228.431L37.5369 228.036C37.539 228.021 37.5461 228.008 37.557 227.998C37.568 227.989 37.5819 227.984 37.5962 227.984L38.0193 227.992L38.0215 227.865C38.0615 227.541 38.1966 227.239 38.4089 226.996C38.5164 226.898 38.6419 226.823 38.7781 226.775C38.9142 226.727 39.0583 226.708 39.2018 226.718C39.2845 226.712 39.3675 226.714 39.4499 226.723L39.6321 226.733ZM31.2802 230.702C31.2802 230.702 31.2793 230.754 31.2354 230.761L30.732 230.752C30.7185 230.752 30.7056 230.746 30.6962 230.736C30.6868 230.726 30.6816 230.712 30.6818 230.699L30.7527 226.638C30.7529 226.624 30.7585 226.611 30.7683 226.601C30.778 226.592 30.7911 226.586 30.8047 226.587L31.3007 226.595C31.3143 226.596 31.3272 226.601 31.3366 226.611C31.346 226.621 31.3511 226.635 31.3509 226.649L31.2802 230.702Z" fill="white"/>
<path d="M32.6587 171.334C31.1441 171.305 29.6384 171.582 28.2277 172.149C26.8169 172.716 25.5286 173.562 24.4365 174.639C23.3443 175.716 22.4696 177.002 21.8623 178.426C21.255 179.849 20.927 181.38 20.8971 182.933L20.6143 199.144L36.4233 199.42C37.9379 199.449 39.4434 199.171 40.8538 198.603C42.2643 198.035 43.552 197.188 44.6435 196.11C45.735 195.033 46.6089 193.745 47.2153 192.322C47.8217 190.898 48.1488 189.367 48.1777 187.814L48.4604 171.61L32.6587 171.334ZM41.9031 176.447C41.8962 176.953 41.7919 177.453 41.5961 177.918C41.4004 178.383 41.117 178.803 40.7624 179.156C40.4078 179.508 39.9888 179.785 39.5295 179.971C39.0702 180.158 38.5796 180.249 38.086 180.24L33.9787 180.169L33.92 183.534L39.4061 183.629L39.3385 187.503L33.9327 187.409L33.7921 195.47L29.269 195.391L29.6208 175.223L34.049 175.3L33.986 178.912C34.0776 177.939 34.5211 177.035 35.2293 176.379C35.9375 175.723 36.8592 175.361 37.8134 175.366L41.9061 175.438L41.9031 176.447Z" fill="#0075DD"/>
<path d="M38.0714 180.24C38.565 180.251 39.0559 180.161 39.5158 179.977C39.9758 179.793 40.3959 179.517 40.7518 179.166C41.1078 178.815 41.3927 178.396 41.5902 177.932C41.7877 177.468 41.894 176.968 41.9028 176.462L41.9207 175.438L37.828 175.366C36.8738 175.362 35.952 175.723 35.2438 176.379C34.5356 177.035 34.0922 177.939 34.0006 178.912L34.0636 175.301L29.6207 175.223L29.2692 195.376L33.7923 195.455L33.9327 187.409L39.3385 187.503L39.4058 183.644L33.9197 183.549L33.9784 180.184L38.0714 180.24Z" fill="white"/>
<path d="M49.632 125.77L49.0609 158.508L57.3336 151.972L57.7088 130.459L49.632 125.77Z" fill="#563E94"/>
<path d="M45.3992 151.308L38.731 154.139L39.1798 128.408L45.7617 130.527L45.3992 151.308Z" fill="#563E94"/>
<path d="M29.9975 150.276L35.0256 149.017L35.3123 132.581L30.3218 131.686L29.9975 150.276Z" fill="#563E94"/>
<path d="M64.5673 115.057C72.1219 115.189 78.3555 109.019 78.4906 101.275C78.6257 93.5317 72.611 87.1476 65.0564 87.0158C57.5019 86.884 51.2682 93.0546 51.1331 100.798C50.9981 108.542 57.0127 114.926 64.5673 115.057Z" fill="#19B4E9"/>
<path d="M61.1675 100.367C61.304 99.8972 61.5868 99.4859 61.9727 99.1962C62.3586 98.9064 62.8264 98.754 63.3045 98.7624C63.7826 98.7707 64.2447 98.9393 64.6203 99.2423C64.9959 99.5454 65.2642 99.9663 65.3842 100.441L61.1675 100.367ZM66.1325 101.052C66.2082 100.964 66.2626 100.858 66.2912 100.744C66.3199 100.631 66.3219 100.511 66.2972 100.397C66.2255 99.9764 66.0707 99.5757 65.8422 99.2193C65.6138 98.8628 65.3165 98.5581 64.9687 98.324C64.5076 98.0156 63.9743 97.8393 63.4241 97.8136C62.8739 97.7878 62.3268 97.9134 61.8397 98.1774C61.3526 98.4414 60.9432 98.8341 60.654 99.3148C60.3647 99.7954 60.2061 100.347 60.1947 100.911C60.1943 101.163 60.2217 101.415 60.2765 101.66C60.4248 102.275 60.7487 102.831 61.2066 103.256C61.6645 103.681 62.2358 103.956 62.8474 104.047L63.2049 104.053C63.4511 104.056 63.6968 104.028 63.9361 103.968C64.2619 103.891 64.5742 103.762 64.8623 103.588C65.1634 103.388 65.4314 103.141 65.6559 102.854C65.7429 102.746 65.7847 102.607 65.7721 102.467C65.7601 102.347 65.7047 102.237 65.617 102.158C65.5326 102.094 65.4314 102.059 65.3268 102.055C65.2545 102.054 65.183 102.071 65.1187 102.106C65.0545 102.14 64.9994 102.19 64.9586 102.251C64.9184 102.313 64.8735 102.373 64.8241 102.428C64.6215 102.659 64.3728 102.843 64.0949 102.967C63.817 103.091 63.5164 103.153 63.2134 103.148C62.7606 103.14 62.3214 102.989 61.9563 102.715C61.5912 102.44 61.3182 102.057 61.1749 101.616C61.1409 101.503 61.1137 101.388 61.0934 101.271L61.094 101.233L65.3983 101.309C65.5298 101.327 65.6637 101.316 65.7905 101.275C65.9174 101.235 66.034 101.166 66.1321 101.074L66.1325 101.052Z" fill="white"/>
<path d="M72.4292 100.294C72.2221 100.291 72.0221 100.372 71.8731 100.519C71.7241 100.667 71.6383 100.869 71.6346 101.081C71.6309 101.293 71.7096 101.498 71.8534 101.651C71.9971 101.803 72.1942 101.891 72.4012 101.895C72.6083 101.898 72.8083 101.818 72.9573 101.67C73.1063 101.523 73.1921 101.32 73.1958 101.108C73.1995 100.896 73.1208 100.691 72.977 100.538C72.8333 100.386 72.6362 100.298 72.4292 100.294Z" fill="white"/>
<path d="M69.637 98.4429C69.638 98.3833 69.6275 98.3242 69.606 98.2688C69.5845 98.2135 69.5525 98.1631 69.5118 98.1206C69.4711 98.0782 69.4226 98.0444 69.369 98.0214C69.3154 97.9983 69.2579 97.9865 69.1998 97.9864L69.0685 97.9841C68.693 97.977 68.3251 98.0939 68.0191 98.3174C67.9886 98.2146 67.9236 98.1262 67.8356 98.0678C67.7476 98.0093 67.6423 97.9846 67.5383 97.998C67.4342 98.0114 67.3381 98.062 67.2668 98.1409C67.1956 98.2199 67.1537 98.322 67.1488 98.4294L67.0575 103.664C67.0583 103.723 67.0705 103.781 67.0933 103.835C67.1161 103.889 67.1491 103.938 67.1905 103.979C67.2318 104.02 67.2805 104.052 67.334 104.074C67.3875 104.096 67.4447 104.106 67.5022 104.105C67.6146 104.106 67.7227 104.061 67.8043 103.982C67.8858 103.903 67.9345 103.794 67.9402 103.679L67.9959 100.486C68.0141 99.4393 68.1095 98.9922 69.0012 98.9105L69.169 98.9134C69.2305 98.9166 69.292 98.9067 69.3496 98.8843C69.4072 98.862 69.4597 98.8276 69.5037 98.7833C69.5477 98.7391 69.5822 98.686 69.6052 98.6274C69.6281 98.5688 69.639 98.506 69.637 98.4429Z" fill="white"/>
<path d="M57.8675 100.871L60.2065 98.5626C60.2496 98.522 60.2841 98.4726 60.3076 98.4177C60.3312 98.3627 60.3434 98.3033 60.3434 98.2433C60.3445 98.1834 60.334 98.1239 60.3126 98.0682C60.2912 98.0125 60.2593 97.9616 60.2187 97.9185C60.1781 97.8755 60.1297 97.841 60.0761 97.8171C60.0225 97.7933 59.9648 97.7805 59.9064 97.7794C59.7878 97.7815 59.6745 97.8304 59.5902 97.916L57.2514 100.216L54.9797 97.8281C54.9397 97.7845 54.8915 97.7495 54.838 97.7252C54.7845 97.701 54.7268 97.6879 54.6684 97.6869C54.6099 97.6859 54.5518 97.6969 54.4975 97.7193C54.4432 97.7416 54.3938 97.7749 54.3523 97.8172C54.2679 97.9012 54.2194 98.016 54.2173 98.1365C54.2152 98.257 54.2597 98.3734 54.3411 98.4603L56.5983 100.841L54.2593 103.149C54.2141 103.189 54.1783 103.24 54.1546 103.296C54.1308 103.353 54.1198 103.414 54.1222 103.476C54.1202 103.595 54.1643 103.709 54.2449 103.795C54.3255 103.881 54.436 103.93 54.5521 103.932C54.6689 103.935 54.7824 103.892 54.868 103.81L57.2143 101.502L59.4715 103.883C59.5534 103.969 59.6654 104.019 59.7829 104.021C59.9005 104.023 60.0141 103.977 60.0989 103.894C60.1436 103.853 60.1795 103.802 60.2043 103.746C60.2291 103.69 60.2424 103.629 60.2433 103.567C60.2453 103.507 60.2352 103.448 60.2136 103.392C60.1919 103.336 60.1592 103.286 60.1176 103.244L57.8675 100.871Z" fill="white"/>
<path d="M72.3766 103.285C71.9521 103.278 71.5394 103.142 71.1907 102.894C70.8421 102.646 70.5732 102.297 70.4181 101.892C70.263 101.487 70.2286 101.044 70.3194 100.619C70.4102 100.193 70.6221 99.8053 70.9281 99.5034C71.2342 99.2015 71.6207 98.9993 72.0387 98.9226C72.4567 98.8459 72.8874 98.898 73.2762 99.0724C73.6651 99.2468 73.9946 99.5356 74.2231 99.9022C74.4516 100.269 74.5687 100.697 74.5597 101.132C74.5457 101.713 74.3086 102.265 73.8998 102.668C73.491 103.072 72.9437 103.293 72.3766 103.285ZM72.4695 97.9613C71.8652 97.9522 71.2717 98.1269 70.764 98.4634C70.2562 98.7998 69.857 99.2828 69.6168 99.8514C69.3766 100.42 69.3061 101.049 69.4143 101.658C69.5225 102.267 69.8044 102.83 70.2246 103.275C70.6447 103.72 71.1842 104.027 71.7749 104.158C72.3655 104.288 72.9808 104.237 73.5431 104.009C74.1054 103.781 74.5893 103.388 74.9339 102.879C75.2784 102.37 75.4681 101.767 75.4789 101.148C75.4915 100.316 75.1817 99.5136 74.6175 98.9162C74.0534 98.3189 73.2809 97.9754 72.4695 97.9613Z" fill="white"/>
<path d="M114.528 63.9499L114.373 72.8186L113.177 74.0095L113.329 65.3203L114.528 63.9499Z" fill="#DC7E28"/>
<path d="M113.321 65.3203L105.413 65.1823L105.262 73.864L113.17 74.0019L113.321 65.3203Z" fill="url(#paint5_linear_1_47)"/>
<path d="M106.678 63.8205L105.413 65.1822L113.329 65.3203L114.528 63.9499L106.678 63.8205Z" fill="#FDD600"/>
<path d="M96.8733 64.031L104.677 63.0601L103.987 64.9629L96.2934 65.8984L96.8733 64.031Z" fill="#90C7EA"/>
<path d="M103.987 64.9629L104.931 72.7586L97.2368 73.7315L96.2934 65.8984L103.987 64.9629Z" fill="url(#paint6_linear_1_47)"/>
<path d="M103.987 64.9629L104.931 72.7586L105.551 71.0864L104.683 63.105L104.677 63.06" fill="#0B98D5"/>
<path d="M90.3119 63.251L97.1431 66.5567L93.9091 73.741L87.0778 70.4353L90.3119 63.251Z" fill="url(#paint7_linear_1_47)"/>
<path d="M89.64 60.7634L90.3118 63.251L97.143 66.5566L96.6079 64.1836L89.64 60.7634Z" fill="#95CEA0"/>
<path d="M89.64 60.7634L86.7501 67.46L87.0777 70.4353L90.3118 63.2511L89.64 60.7634Z" fill="#69BF6D"/>
<path d="M85.7266 64.6294L86.7311 72.3064L79.0935 73.3925L78.0089 65.7065L85.7266 64.6294Z" fill="url(#paint8_linear_1_47)"/>
<path d="M86.3008 61.8494L87.2894 69.601L86.7314 72.3066L85.7269 64.6295L86.3008 61.8494Z" fill="#761216"/>
<path d="M112.063 68.4251C111.91 68.0182 111.681 67.6459 111.389 67.3287C111.113 67.021 110.777 66.7762 110.403 66.6099C110.029 66.4436 109.625 66.3596 109.217 66.3633C108.807 66.3541 108.4 66.4257 108.016 66.5742C107.643 66.7289 107.303 66.9596 107.019 67.2525C106.715 67.5552 106.473 67.9172 106.307 68.3172C106.146 68.7376 106.061 69.185 106.058 69.6368C106.044 70.0868 106.115 70.5353 106.269 70.957C106.416 71.367 106.643 71.7424 106.935 72.0607C107.205 72.3574 107.531 72.5947 107.894 72.7581C108.277 72.9199 108.686 73.0057 109.101 73.011C109.503 73.02 109.904 72.9482 110.279 72.7997C110.653 72.6487 110.995 72.4233 111.283 72.1365C111.586 71.8271 111.828 71.4604 111.995 71.0569C112.322 70.2139 112.338 69.2785 112.041 68.4247L112.063 68.4251ZM110.387 71.2532C110.235 71.4375 110.044 71.5829 109.828 71.6779C109.613 71.7728 109.378 71.8147 109.144 71.8C108.908 71.8062 108.673 71.757 108.459 71.656C108.244 71.555 108.055 71.405 107.906 71.2174C107.585 70.7684 107.432 70.2166 107.473 69.6615C107.451 69.0995 107.621 68.5469 107.953 68.0991C108.114 67.9248 108.309 67.7867 108.525 67.6937C108.74 67.6007 108.973 67.5548 109.207 67.5588C109.441 67.5629 109.671 67.6169 109.884 67.7174C110.096 67.8179 110.286 67.9626 110.441 68.1424C110.757 68.6016 110.908 69.1598 110.866 69.7207C110.893 70.2764 110.723 70.8237 110.386 71.2607L110.387 71.2532ZM84.7976 71.0537C84.7347 70.9763 84.6525 70.918 84.5597 70.885C84.4429 70.8431 84.3196 70.8232 84.1958 70.8263C84.0392 70.8237 83.8826 70.836 83.7282 70.863L81.7085 71.1793C81.7561 70.9614 81.8387 70.7531 81.9528 70.5628C82.1589 70.209 82.3892 69.8706 82.6418 69.55L82.8809 69.2325C82.8817 69.1877 82.9778 69.1145 83.0452 69.0185C83.4196 68.5807 83.7173 68.0797 83.9248 67.5378C83.9931 67.3175 84.0362 67.0898 84.0534 66.8594L84.0569 66.6575C84.0742 66.4985 84.077 66.3383 84.0653 66.1789C84.0524 66.0541 84.0201 65.9323 83.9694 65.8182C83.9307 65.7294 83.8689 65.6533 83.7908 65.5981C83.6851 65.5432 83.5678 65.5154 83.4492 65.5174C83.2973 65.5211 83.1458 65.5359 82.996 65.5618L80.6689 65.9327C80.4405 65.9482 80.2223 66.0359 80.0442 66.1836C79.9923 66.2314 79.9506 66.2897 79.9219 66.3549C79.8931 66.42 79.8778 66.4906 79.8771 66.5621C79.8728 66.6019 79.8721 66.6419 79.875 66.6818C79.8815 66.7739 79.912 66.8625 79.9633 66.9384C80.0146 67.0143 80.0848 67.0747 80.1667 67.1132C80.2775 67.1597 80.3959 67.1846 80.5157 67.1866C80.62 67.1961 80.7248 67.198 80.8294 67.1921L82.7831 66.8896L82.7811 67.0017C82.778 67.1238 82.7562 67.2445 82.7165 67.3597C82.6006 67.6128 82.449 67.847 82.2665 68.0549L81.9608 68.4311C81.5176 68.9259 81.1243 69.4654 80.787 70.0413C80.6272 70.3349 80.5087 70.6501 80.435 70.9776C80.3966 71.1491 80.3764 71.3243 80.3748 71.5002C80.3657 71.6146 80.3637 71.7295 80.3688 71.8441C80.3898 71.9785 80.4267 72.1098 80.4787 72.235C80.5205 72.3325 80.5904 72.4147 80.6789 72.4704C80.7838 72.519 80.8984 72.5415 81.0135 72.5361C81.2782 72.5338 81.5423 72.5084 81.8029 72.4601L83.9177 72.1304C84.199 72.1054 84.4706 72.0128 84.7105 71.86C84.7687 71.8098 84.8157 71.7474 84.8484 71.677C84.8811 71.6066 84.8987 71.5299 84.9001 71.4519C84.904 71.4097 84.9047 71.3672 84.9023 71.3248C84.8915 71.2251 84.8525 71.1309 84.7903 71.0536L84.7976 71.0537ZM94.4447 66.0458C94.1725 65.7431 93.841 65.5028 93.4718 65.3406C93.1091 65.169 92.7158 65.0756 92.3163 65.0662C91.9107 65.0642 91.5091 65.1489 91.1371 65.3149C90.7364 65.4827 90.3724 65.7306 90.0662 66.0442C89.4415 66.7268 89.0609 67.6062 88.9864 68.5387L88.9838 68.6882C88.9764 69.0858 89.0362 69.4816 89.1605 69.8582C89.2762 70.2603 89.4765 70.6314 89.7472 70.9455C90.029 71.2489 90.3671 71.4913 90.7418 71.6585C91.1035 71.8246 91.4939 71.9153 91.8902 71.9254C92.2923 71.9242 92.6904 71.8422 93.062 71.6841C93.4636 71.5141 93.8297 71.2665 94.1402 70.9549C94.7714 70.2767 95.1531 69.3948 95.2199 68.4604L95.2221 68.3333C95.2271 67.9328 95.1649 67.5345 95.0383 67.1557C94.9182 66.7473 94.716 66.3692 94.4447 66.0458ZM93.6603 69.1812C93.4598 69.7154 93.0894 70.1649 92.6091 70.4569C92.3859 70.5861 92.1321 70.649 91.8761 70.6386C91.653 70.6293 91.4337 70.5773 91.2293 70.4852C91.0145 70.3957 90.8228 70.2566 90.669 70.0788C90.5152 69.901 90.4034 69.6892 90.3423 69.4599C90.3018 69.2959 90.2827 69.127 90.2854 68.9578C90.3033 68.5575 90.3995 68.1649 90.5682 67.8033C90.7637 67.254 91.1377 66.7903 91.6274 66.4903C91.8506 66.3612 92.1044 66.2982 92.3603 66.3086C92.5866 66.3177 92.8088 66.3724 93.0143 66.4696C93.2337 66.5578 93.429 66.6992 93.5834 66.8816C93.7378 67.0641 93.8467 67.2822 93.9009 67.5173C93.9424 67.6787 93.9616 67.8452 93.958 68.012C93.9241 68.4187 93.8156 68.8152 93.6384 69.1808L93.6603 69.1812ZM102.684 66.4289C102.671 66.2223 102.586 66.0273 102.446 65.8787C102.341 65.7797 102.204 65.724 102.062 65.7224L101.945 65.7203C101.855 65.727 101.768 65.7547 101.69 65.8013C101.612 65.8479 101.545 65.9122 101.495 65.9892C101.426 66.1116 101.388 66.2499 101.386 66.3913C101.381 66.4559 101.38 66.5209 101.383 66.5857L101.632 68.6096L99.4374 68.908L99.1955 66.8767C99.1816 66.6716 99.1001 66.4777 98.9643 66.3266C98.8622 66.2281 98.7278 66.1724 98.5875 66.1704L98.4781 66.1685C98.3865 66.1766 98.2976 66.2048 98.2175 66.2511C98.1373 66.2975 98.0678 66.3609 98.0137 66.4372C97.9394 66.56 97.9015 66.7022 97.9044 66.8467C97.8999 66.9114 97.8988 66.9763 97.901 67.0411L98.5392 72.2882C98.5517 72.4945 98.6395 72.6883 98.7852 72.8311C98.8895 72.93 99.0272 72.9833 99.1693 72.9799L99.3006 72.9822C99.387 72.9728 99.4702 72.9437 99.5443 72.8971C99.6183 72.8505 99.6813 72.7876 99.7286 72.7129C99.7989 72.5914 99.8342 72.4519 99.8305 72.3108C99.8386 72.2463 99.8397 72.1811 99.8339 72.1163L99.5637 70.0322L101.758 69.7413L102.036 71.8256C102.049 72.0322 102.133 72.2272 102.274 72.3758C102.382 72.4682 102.517 72.5206 102.658 72.5246L102.775 72.5267C102.866 72.5192 102.953 72.4903 103.031 72.4424C103.109 72.3945 103.176 72.3287 103.225 72.2503C103.294 72.1309 103.329 71.9943 103.327 71.8556C103.331 71.7909 103.333 71.726 103.33 71.6612L102.684 66.4289Z" fill="white"/>
<path d="M78.009 65.7065L78.1683 64.9389L78.5892 62.979L86.3006 61.8493L85.7267 64.6294L78.009 65.7065Z" fill="#EC473F"/>
<path fill-rule="evenodd" clip-rule="evenodd" d="M162.825 40.8043L178.955 41.0856L195.024 25.1717L163.107 24.6149L162.825 40.8043Z" fill="url(#paint9_linear_1_47)"/>
<path fill-rule="evenodd" clip-rule="evenodd" d="M181.99 28.1753L178.868 28.1209L178.735 35.7183L176.117 28.0729L173.396 28.0254L170.944 34.3332C170.724 32.7137 169.107 32.1245 167.83 31.6833C166.989 31.3919 166.098 30.965 166.114 30.5164C166.129 30.0679 166.608 29.777 167.548 29.8757C168.352 29.91 169.136 30.1417 169.835 30.5514L170.963 28.6188C169.86 28.0531 168.651 27.7386 167.418 27.6968C166.846 27.6596 166.272 27.7395 165.73 27.9316C165.188 28.1238 164.688 28.4244 164.26 28.816C163.783 29.3144 163.51 29.9818 163.498 30.6802C163.466 31.1175 163.545 31.5558 163.727 31.9523C163.91 32.3488 164.189 32.6899 164.539 32.9424C165.186 33.4033 165.902 33.7542 166.659 33.9817C167.522 34.2735 168.233 34.5253 168.217 35.0411C168.207 35.2294 168.128 35.407 167.996 35.5384C167.856 35.656 167.694 35.7441 167.52 35.7975C167.346 35.851 167.164 35.8688 166.984 35.8499C166.06 35.8726 165.153 35.5949 164.392 35.0567L163.388 37.0139C164.419 37.6467 165.598 37.9849 166.8 37.9935L167.019 37.9973C167.997 38.056 168.966 37.7693 169.763 37.1849L169.874 37.0896L169.746 37.7157L172.409 37.7622L172.884 36.4914C173.421 36.6884 173.986 36.7919 174.557 36.7973C175.114 36.8081 175.669 36.7295 176.203 36.5642L176.509 37.8113L181.281 37.8945L181.33 35.0455L182.395 35.064C184.847 35.1068 186.321 33.8459 186.358 31.6998C186.386 29.2917 184.996 28.2278 181.99 28.1753ZM174.618 34.5469C174.275 34.5423 173.935 34.4756 173.614 34.3499L174.67 31.1444L175.591 34.3918C175.273 34.4997 174.939 34.552 174.603 34.5466L174.618 34.5469ZM182.099 32.8223L181.406 32.8103L181.451 30.2155L182.144 30.2276C183.063 30.2436 183.795 30.5705 183.778 31.5426C183.761 32.5147 183.025 32.8385 182.099 32.8223Z" fill="white"/>
<path d="M236.081 68.6735L253.62 8.64544" stroke="#DEE2E1" stroke-width="0.74789" stroke-miterlimit="10"/>
<path d="M269.147 84.0831L301.83 31.1185" stroke="#DEE2E1" stroke-width="0.74789" stroke-miterlimit="10"/>
<path d="M296.919 108.077L342.32 66.1059" stroke="#DEE2E1" stroke-width="0.74789" stroke-miterlimit="10"/>
<path d="M317.4 138.833L372.091 110.997" stroke="#DEE2E1" stroke-width="0.74789" stroke-miterlimit="10"/>
<path d="M329 174.147L388.941 162.469" stroke="#DEE2E1" stroke-width="0.74789" stroke-miterlimit="10"/>
<path d="M391.607 216.701L330.846 211.37" stroke="#DEE2E1" stroke-width="0.74789" stroke-miterlimit="10"/>
<path d="M379.905 269.673L322.885 247.764" stroke="#DEE2E1" stroke-width="0.74789" stroke-miterlimit="10"/>
<path d="M354.698 317.457L305.579 280.598" stroke="#DEE2E1" stroke-width="0.74789" stroke-miterlimit="10"/>
<path d="M317.843 356.503L280.277 307.444" stroke="#DEE2E1" stroke-width="0.74789" stroke-miterlimit="10"/>
<path d="M272.098 383.927L248.867 326.33" stroke="#DEE2E1" stroke-width="0.74789" stroke-miterlimit="10"/>
<path d="M220.833 397.686L213.63 335.783" stroke="#DEE2E1" stroke-width="0.74789" stroke-miterlimit="10"/>
<path d="M177.219 335.148L167.862 396.762" stroke="#DEE2E1" stroke-width="0.74789" stroke-miterlimit="10"/>
<path d="M142.333 324.471L117.108 381.224" stroke="#DEE2E1" stroke-width="0.74789" stroke-miterlimit="10"/>
<path d="M111.594 304.502L72.34 352.22" stroke="#DEE2E1" stroke-width="0.74789" stroke-miterlimit="10"/>
<path d="M87.2511 276.79L36.8765 311.913" stroke="#DEE2E1" stroke-width="0.74789" stroke-miterlimit="10"/>
<path d="M71.1008 243.372L13.351 263.279" stroke="#DEE2E1" stroke-width="0.74789" stroke-miterlimit="10"/>
<path d="M64.4134 206.723L3.49583 209.931" stroke="#DEE2E1" stroke-width="0.74789" stroke-miterlimit="10"/>
<path d="M67.5569 169.587L8.0592 155.825" stroke="#DEE2E1" stroke-width="0.74789" stroke-miterlimit="10"/>
<path d="M80.3815 134.699L26.6865 104.972" stroke="#DEE2E1" stroke-width="0.74789" stroke-miterlimit="10"/>
<path d="M101.87 104.728L57.9388 61.2203" stroke="#DEE2E1" stroke-width="0.74789" stroke-miterlimit="10"/>
<path d="M99.6982 27.5928L130.514 81.6649" stroke="#DEE2E1" stroke-width="0.74789" stroke-miterlimit="10"/>
<path d="M148.662 6.81464L164.098 67.4179" stroke="#DEE2E1" stroke-width="0.74789" stroke-miterlimit="10"/>
<path d="M200.173 63.0054L201.267 0.33429" stroke="#DEE2E1" stroke-width="0.74789" stroke-miterlimit="10"/>
<path d="M195.398 336.737C269.143 338.023 329.994 277.789 331.312 202.2C332.631 126.611 273.918 64.2918 200.173 63.0055C126.429 61.7192 65.5779 121.953 64.2594 197.542C62.9409 273.131 121.654 335.45 195.398 336.737Z" stroke="#DEE2E1" stroke-width="0.74789" stroke-miterlimit="10"/>
<path d="M195.634 323.254C262.114 324.414 316.97 270.113 318.159 201.971C319.348 133.828 266.418 77.6474 199.938 76.4878C133.458 75.3282 78.6018 129.629 77.4131 197.771C76.2245 265.914 129.154 322.094 195.634 323.254Z" stroke="#DEE2E1" stroke-width="7.4789" stroke-miterlimit="10"/>
<path d="M230.363 132.074C230.338 131.884 230.25 131.707 230.115 131.574C229.98 131.44 229.805 131.358 229.618 131.338C229.305 131.333 223.119 131.225 223.119 131.225L217.501 125.426C217.229 125.228 216.916 125.097 216.586 125.045C216.256 124.992 215.918 125.02 215.6 125.125L212.975 125.936C212.683 124.85 212.29 123.794 211.803 122.784C211.186 121.173 210.128 119.78 208.755 118.773C207.383 117.766 205.755 117.188 204.068 117.109C203.843 117.079 203.616 117.075 203.39 117.097C203.282 116.982 203.188 116.855 203.109 116.718C202.437 115.939 201.606 115.323 200.674 114.913C199.742 114.504 198.733 114.311 197.719 114.349C193.516 114.275 189.283 117.44 185.74 122.972C183.292 126.768 181.602 131.023 180.769 135.491C175.913 136.959 172.474 138.023 172.422 138.022C170.006 138.783 169.796 138.833 169.546 141.184C169.255 142.919 161.974 193.564 161.974 193.564L215.426 203.998L238.761 198.49C238.761 198.49 230.408 132.503 230.363 132.074ZM210.274 126.612C209.014 126.964 207.648 127.422 206.074 127.85C206.102 125.175 205.716 122.512 204.932 119.961C208.158 120.687 209.634 124.379 210.274 126.612ZM203.265 128.711L194.288 131.391C195.167 128.1 196.775 125.059 198.987 122.507C199.847 121.556 200.892 120.799 202.054 120.286C203.008 122.953 203.42 125.793 203.267 128.631L203.265 128.711ZM197.695 117.212C198.611 117.19 199.513 117.438 200.294 117.926C199.037 118.586 197.907 119.473 196.958 120.545C194.034 123.889 192.041 127.977 191.19 132.381L183.788 134.581C185.372 127.596 191.218 117.313 197.695 117.212Z" fill="#95BF47"/>
<path d="M229.618 131.339C229.305 131.334 223.119 131.226 223.119 131.226L217.501 125.427C217.412 125.32 217.3 125.235 217.175 125.177C217.05 125.12 216.913 125.091 216.776 125.093L215.399 204.025L238.735 198.517C238.735 198.517 230.405 132.664 230.361 132.182C230.344 131.977 230.263 131.784 230.129 131.632C229.995 131.479 229.815 131.377 229.618 131.339Z" fill="#5E8E3E"/>
<path d="M203.588 143.144L200.797 153.427C198.733 152.502 196.491 152.07 194.239 152.162C189.013 152.392 188.954 155.763 188.938 156.673C189.171 161.307 200.978 162.53 201.468 173.351C201.841 181.923 196.78 187.642 189.671 188C187.271 188.17 184.863 187.828 182.599 186.996C180.335 186.164 178.264 184.861 176.517 183.167L178.455 175.332C180.892 177.306 183.819 178.543 186.905 178.905C187.34 178.906 187.77 178.819 188.171 178.648C188.572 178.477 188.937 178.227 189.243 177.911C189.55 177.596 189.792 177.221 189.957 176.809C190.122 176.397 190.205 175.955 190.202 175.51L190.207 175.269C189.946 169.243 180.256 169.395 179.802 159.511C179.451 151.154 184.95 142.819 196.763 142.222C199.078 141.923 201.428 142.241 203.588 143.144Z" fill="white"/>
<path d="M131.504 235.749C129.627 234.647 128.581 233.755 128.604 232.453C128.632 230.841 130.034 229.816 132.232 229.854C133.883 229.923 135.506 230.321 137.008 231.026L139 225.465C139 225.465 137.374 224.134 132.542 224.05C125.814 223.933 121.104 227.737 121.006 233.35C120.951 236.497 123.088 238.944 125.976 240.724C128.302 242.144 129.101 243.11 129.073 244.664C129.046 246.218 127.871 247.324 125.672 247.286C123.466 247.155 121.315 246.527 119.373 245.447L117.38 251.008C119.662 252.395 122.273 253.113 124.927 253.082C131.844 253.203 136.888 249.813 136.997 243.578C137.057 240.159 134.635 237.707 131.634 235.887L131.504 235.749ZM159.302 224.439C157.722 224.421 156.159 224.776 154.733 225.475C153.308 226.175 152.058 227.2 151.08 228.473L150.966 228.471L154.199 212.653L146.486 212.519L138.316 252.733L146.01 252.867L148.828 239.121C149.923 233.933 152.614 230.754 155.077 230.797C156.802 230.827 157.444 232.024 157.414 233.752C157.393 234.926 157.258 236.096 157.012 237.243L153.818 252.984L161.531 253.119L164.848 236.835C165.202 235.151 165.416 233.438 165.487 231.717C165.564 227.288 163.3 224.509 159.302 224.439ZM183.047 224.853C173.761 224.691 167.49 233.17 167.323 242.747C167.216 248.885 170.826 253.844 177.743 253.965C186.839 254.123 193.144 245.878 193.315 236.069C193.413 230.436 190.229 224.979 183.047 224.853ZM178.853 247.922C176.238 247.876 175.103 245.564 175.152 242.728C175.231 238.202 177.634 230.841 181.823 230.914C184.551 230.961 185.419 233.405 185.378 235.736C185.388 240.613 182.89 247.992 178.815 247.921L178.853 247.922ZM213.216 225.38C211.599 225.436 210.015 225.873 208.588 226.657C207.161 227.441 205.929 228.55 204.986 229.899L204.872 229.897L205.401 225.651L198.579 225.532C198.207 228.402 197.525 232.723 196.843 235.975L190.975 264.785L198.688 264.92L201.014 253.302L201.166 253.305C202.548 254.074 204.104 254.456 205.677 254.413C214.716 254.571 220.795 245.175 220.962 235.56C221.054 230.296 218.863 225.517 213.215 225.418L213.216 225.38ZM205.438 248.56C204.295 248.553 203.194 248.127 202.331 247.36L203.73 239.981C204.706 235.102 207.265 231.843 209.956 231.89C212.325 231.932 212.987 234.158 212.95 236.314C212.786 241.344 209.703 248.577 205.401 248.502L205.438 248.56ZM232.363 214.463C231.787 214.448 231.213 214.55 230.675 214.763C230.137 214.975 229.645 215.295 229.227 215.703C228.81 216.111 228.475 216.599 228.242 217.14C228.009 217.681 227.882 218.263 227.869 218.854L227.867 218.971C227.827 219.475 227.889 219.983 228.051 220.462C228.212 220.941 228.469 221.379 228.805 221.751C229.14 222.122 229.548 222.418 230.001 222.619C230.455 222.82 230.944 222.922 231.438 222.919L231.552 222.921C232.149 222.959 232.748 222.869 233.31 222.657C233.872 222.446 234.385 222.117 234.816 221.691C235.248 221.266 235.589 220.753 235.817 220.186C236.045 219.619 236.156 219.009 236.143 218.396C236.173 217.88 236.099 217.364 235.924 216.879C235.75 216.395 235.479 215.953 235.129 215.581C234.779 215.21 234.357 214.917 233.891 214.722C233.425 214.526 232.924 214.432 232.42 214.445L232.363 214.463ZM220.903 254.193L228.597 254.327L234.334 226.448L226.545 226.312L220.903 254.193ZM253.874 226.652L248.511 226.559L248.799 225.262C249.301 222.589 250.916 220.208 253.455 220.252C254.29 220.263 255.118 220.402 255.912 220.664L257.517 214.533C256.195 213.974 254.771 213.71 253.341 213.761C250.589 213.638 247.884 214.528 245.715 216.27C243.222 218.59 241.581 221.717 241.068 225.127L240.817 226.425L237.236 226.362L235.995 232.286L239.596 232.349L235.136 254.383L242.83 254.517L247.29 232.483L252.596 232.576L253.836 226.652L253.874 226.652ZM272.408 226.976C272.408 226.976 267.377 239.343 265.08 246.103L264.909 246.1C264.796 243.903 263.35 226.818 263.35 226.818L255.277 226.677L259.452 252.476C259.558 252.915 259.496 253.38 259.278 253.774C258.238 255.663 256.774 257.269 255.007 258.46C253.644 259.389 252.156 260.109 250.59 260.598L252.615 267.357C255.463 266.641 258.093 265.211 260.27 263.196C264.607 258.709 268.121 253.458 270.644 247.697L280.481 227.116L272.408 226.976Z" fill="white"/>
<path d="M124.372 52.6547L125.538 54.8219C125.789 55.2585 126.144 55.6225 126.57 55.8796L131.015 48.2976L122.385 48.147C122.379 48.6527 122.499 49.1514 122.732 49.5967L124.372 52.6547Z" fill="#0066DA"/>
<path d="M136.22 39.4123L132.042 31.6948C131.603 31.9498 131.239 32.3206 130.987 32.7685L122.781 46.7627C122.527 47.1971 122.39 47.693 122.384 48.1994L131 48.3497L136.22 39.4123Z" fill="#00AC47"/>
<path d="M136.221 39.4124L140.658 31.8452C140.237 31.5775 139.753 31.4297 139.257 31.4169L133.421 31.3151C132.927 31.3119 132.44 31.4372 132.006 31.6794L136.221 39.4124Z" fill="#00832D"/>
<path d="M141.119 48.4961L131.001 48.3196L126.571 55.8795C126.997 56.1414 127.482 56.284 127.979 56.293L143.897 56.5707C144.389 56.5707 144.872 56.4455 145.305 56.2063L141.119 48.4961Z" fill="#2684FC"/>
<path d="M145.29 56.2061C145.725 55.963 146.091 55.6085 146.352 55.1774L146.871 54.3038L149.338 50.0757C149.594 49.6419 149.734 49.1461 149.743 48.6391L141.134 48.489L145.29 56.2061Z" fill="#EA4335"/>
<path d="M145.535 40.0763L141.675 32.9553C141.435 32.5097 141.084 32.1372 140.658 31.8754L136.22 39.4426L141.119 48.5041L149.721 48.6541C149.732 48.1478 149.613 47.6475 149.374 47.2044L145.535 40.0763Z" fill="#FFBA00"/>
<defs>
<linearGradient id="paint0_linear_1_47" x1="338.54" y1="88.2405" x2="338.021" y2="117.987" gradientUnits="userSpaceOnUse">
<stop stop-color="#FFB900"/>
<stop offset="0.17" stop-color="#EF8400"/>
<stop offset="0.31" stop-color="#E25C01"/>
<stop offset="0.43" stop-color="#DB4401"/>
<stop offset="0.5" stop-color="#D83B01"/>
</linearGradient>
<linearGradient id="paint1_linear_1_47" x1="333.291" y1="89.2037" x2="317.028" y2="111.044" gradientUnits="userSpaceOnUse">
<stop stop-color="#800600"/>
<stop offset="0.6" stop-color="#C72127"/>
<stop offset="0.73" stop-color="#C13959"/>
<stop offset="0.85" stop-color="#BC4B81"/>
<stop offset="0.94" stop-color="#B95799"/>
<stop offset="1" stop-color="#B85BA2"/>
</linearGradient>
<linearGradient id="paint2_linear_1_47" x1="324.96" y1="116.667" x2="345.015" y2="117.017" gradientUnits="userSpaceOnUse">
<stop stop-color="#F32B44"/>
<stop offset="0.6" stop-color="#A4070A"/>
</linearGradient>
<linearGradient id="paint3_linear_1_47" x1="333.613" y1="88.753" x2="330.168" y2="93.3796" gradientUnits="userSpaceOnUse">
<stop stop-opacity="0.4"/>
<stop offset="1" stop-opacity="0"/>
</linearGradient>
<linearGradient id="paint4_linear_1_47" x1="338.579" y1="117.368" x2="329.609" y2="116.443" gradientUnits="userSpaceOnUse">
<stop stop-opacity="0.4"/>
<stop offset="1" stop-opacity="0"/>
</linearGradient>
<linearGradient id="paint5_linear_1_47" x1="105.337" y1="64.9641" x2="113.249" y2="73.7676" gradientUnits="userSpaceOnUse">
<stop offset="0.01" stop-color="#F8C51B"/>
<stop offset="1" stop-color="#E78F24"/>
</linearGradient>
<linearGradient id="paint6_linear_1_47" x1="96.5707" y1="65.8957" x2="104.704" y2="72.4959" gradientUnits="userSpaceOnUse">
<stop offset="0.01" stop-color="#1F8ACA"/>
<stop offset="1" stop-color="#01659E"/>
</linearGradient>
<linearGradient id="paint7_linear_1_47" x1="92.1509" y1="66.1779" x2="92.0241" y2="73.4463" gradientUnits="userSpaceOnUse">
<stop stop-color="#269F49"/>
<stop offset="1" stop-color="#008A54"/>
</linearGradient>
<linearGradient id="paint8_linear_1_47" x1="81.8766" y1="65.2878" x2="83.0235" y2="72.845" gradientUnits="userSpaceOnUse">
<stop stop-color="#D81F32"/>
<stop offset="1" stop-color="#BB2637"/>
</linearGradient>
<linearGradient id="paint9_linear_1_47" x1="179.062" y1="24.8858" x2="178.78" y2="41.0676" gradientUnits="userSpaceOnUse">
<stop stop-color="#00AEEF"/>
<stop offset="0.21" stop-color="#0097DC"/>
<stop offset="0.52" stop-color="#007CC5"/>
<stop offset="0.79" stop-color="#006CB8"/>
<stop offset="1" stop-color="#0066B3"/>
</linearGradient>
</defs>
</svg>
