<svg width="182" height="20" viewBox="0 0 182 20" fill="none" xmlns="http://www.w3.org/2000/svg">
<path d="M30.7752 6.46947C30.6241 6.2491 30.4606 6.03281 30.3176 5.80836C29.8764 5.10643 29.6067 4.35145 29.6475 3.51078C29.6843 2.77621 29.9703 2.14366 30.4647 1.61721C31.5188 0.490874 32.8426 0.041968 34.3625 0.131749C35.0939 0.176639 35.7925 0.352119 36.4504 0.68676C37.1818 1.05812 37.7415 1.59681 37.9866 2.40075C38.0684 2.6701 38.0969 2.95985 38.1051 3.24143C38.1215 3.98008 38.1092 4.71874 38.1092 5.45739V5.61655H40.4789V5.80427H38.1174C38.1133 5.85733 38.1092 5.89405 38.1092 5.93486C38.1092 9.24859 38.1051 12.5664 38.1174 15.8801C38.1174 16.5453 38.195 17.2065 38.4238 17.8431C38.6731 18.5287 39.0939 19.051 39.8334 19.2469C40.2174 19.3489 40.6056 19.3367 40.9938 19.3081C41.0632 19.3041 41.1286 19.2918 41.2063 19.2796C41.2144 19.3326 41.2226 19.3734 41.2307 19.4469C40.9815 19.4632 40.7404 19.4836 40.4994 19.4877C39.478 19.4999 38.5464 19.2265 37.7374 18.594C36.9651 17.99 36.5321 17.1901 36.4585 16.2066C36.4504 16.076 36.4504 15.9413 36.4504 15.8067C36.4504 12.5419 36.4504 9.27715 36.4504 6.0124V5.81243H34.9795C34.9754 5.80427 34.9713 5.79203 34.9713 5.78387C35.0162 5.76346 35.0612 5.74306 35.1102 5.72674C35.7762 5.45739 36.4136 5.135 36.9693 4.67385C37.3942 4.31881 37.7251 3.89847 37.86 3.35162C38.0234 2.68643 37.8191 2.11917 37.3819 1.62538C36.8385 1.01323 36.1398 0.666352 35.3595 0.466385C34.2768 0.18888 33.2022 0.213368 32.1603 0.641868C31.2696 1.00915 30.5382 1.57232 30.1092 2.46197C29.7374 3.22919 29.7701 4.01681 30.048 4.80035C30.289 5.48187 30.7139 6.04913 31.2001 6.57965C31.6905 7.11426 32.2134 7.62437 32.6547 8.1916C33.7701 9.6281 34.2849 11.2605 34.1256 13.0888C33.9376 15.1904 33.002 16.8881 31.3309 18.1736C30.2768 18.9817 29.0755 19.451 27.7436 19.5449C25.2962 19.7162 23.2737 18.847 21.6966 16.9779C20.7977 15.9087 20.2707 14.6599 20.1358 13.2683C19.9683 11.5339 20.3728 9.93421 21.3739 8.50178C22.5301 6.849 24.1154 5.85324 26.1092 5.55942C27.7232 5.31864 29.2635 5.60023 30.6813 6.4409C30.7099 6.45723 30.7385 6.47355 30.767 6.48579C30.763 6.48171 30.767 6.47763 30.7752 6.46947ZM21.7538 11.1462C21.7946 11.5502 21.8192 11.9584 21.8846 12.3624C22.195 14.3212 23.049 16.0107 24.4586 17.4064C25.3003 18.239 26.2768 18.8429 27.4657 19.0592C28.3156 19.2143 29.1409 19.1245 29.9213 18.7491C30.9223 18.2675 31.576 17.4594 31.9928 16.4514C32.4708 15.2925 32.5525 14.0845 32.3891 12.8562C32.1889 11.3339 31.6169 9.9587 30.7139 8.71806C29.9744 7.70192 29.0714 6.86528 27.9111 6.34296C27.0204 5.93894 26.0929 5.8002 25.1328 6.02056C23.8948 6.30215 23.0367 7.07342 22.4525 8.16711C21.9581 9.09758 21.7865 10.1015 21.7538 11.1462Z" fill="white"/>
<path d="M18.6812 15.3658C18.3951 15.7494 18.1296 16.1534 17.8231 16.5167C16.6178 17.9368 15.0774 18.8142 13.2716 19.2305C11.6658 19.5977 10.052 19.6345 8.44219 19.2468C6.90182 18.8754 5.52899 18.1694 4.33595 17.1288C2.59132 15.6066 1.4759 13.7089 1.09184 11.4236C0.609716 8.56286 1.27161 5.96739 3.07753 3.69021C4.51572 1.87827 6.38701 0.719283 8.65873 0.225491C10.6362 -0.203009 12.5647 -0.0193686 14.4278 0.764175C15.9723 1.41305 17.2633 2.40063 18.3502 3.66981C18.5054 3.85345 18.6526 4.04526 18.8201 4.25338C18.7506 4.25747 18.7098 4.26155 18.6729 4.26155C17.7863 4.26155 16.8997 4.26155 16.0131 4.26563C15.9232 4.26563 15.8619 4.23706 15.8048 4.16769C15.0652 3.29028 14.2277 2.51898 13.2348 1.92316C12.2746 1.34367 11.241 0.976379 10.1296 0.829466C9.22256 0.711122 8.31552 0.698883 7.42071 0.923333C5.89263 1.30694 4.69141 2.1517 3.84157 3.48617C3.22462 4.45743 2.88141 5.52665 2.73432 6.66523C2.60358 7.66917 2.64035 8.66897 2.75884 9.66883C2.90184 10.9175 3.22871 12.1133 3.8048 13.2356C4.64647 14.8761 5.88854 16.1249 7.53512 16.9696C8.71185 17.5736 9.96618 17.9123 11.2859 18.0307C12.4748 18.1368 13.6515 18.0878 14.8037 17.7491C16.2255 17.3369 17.4431 16.6105 18.3502 15.4189C18.436 15.3046 18.534 15.3209 18.6403 15.3291C18.6526 15.3414 18.6689 15.3536 18.6812 15.3658Z" fill="white"/>
<path d="M66.4643 19.4268H61.8433C61.8882 19.3778 61.9168 19.337 61.9537 19.3044C62.3786 18.8595 62.8076 18.4228 63.2325 17.974C63.2815 17.925 63.3142 17.8393 63.3142 17.774C63.3183 14.4358 63.3183 11.0975 63.3183 7.75934C63.3183 7.66545 63.2897 7.61239 63.2121 7.55934C62.7912 7.28594 62.3786 7.00846 61.9618 6.73092C61.9251 6.70643 61.8882 6.67786 61.8311 6.64115C62.8852 6.30652 63.9189 5.98005 64.9771 5.64541V7.65324C65.0384 7.60425 65.0711 7.57569 65.1038 7.54713C65.6799 7.02067 66.2764 6.51873 66.9669 6.14328C67.9314 5.62092 68.957 5.44544 70.0393 5.58011C70.8731 5.68622 71.6288 5.97596 72.2909 6.49832C73.1488 7.17576 73.6512 8.07359 73.8556 9.13872C73.9331 9.55493 73.9699 9.98349 73.9699 10.4078C73.9819 12.8483 73.9779 15.2887 73.9739 17.725C73.9739 17.8393 74.0066 17.9209 74.0881 18.0025C74.5131 18.4351 74.93 18.8717 75.3509 19.3084C75.3796 19.3411 75.4084 19.3737 75.4491 19.4227H70.8364C70.8772 19.3737 70.9099 19.337 70.9426 19.3044C71.3629 18.8677 71.7838 18.431 72.2047 17.9985C72.2822 17.9209 72.315 17.8434 72.315 17.7332C72.3109 15.2519 72.3109 12.7707 72.315 10.2895C72.315 9.39577 72.1479 8.54699 71.6816 7.77569C70.9547 6.57586 69.9044 5.9025 68.4786 5.9229C67.6288 5.93515 66.8933 6.30244 66.2437 6.82074C65.827 7.15534 65.4429 7.53492 65.0507 7.89808C65.0098 7.93485 64.9853 8.00826 64.9853 8.06538C64.9812 11.3016 64.9812 14.5378 64.9853 17.7781C64.9853 17.8434 65.0221 17.9209 65.067 17.9658C65.492 18.4106 65.921 18.8514 66.35 19.2921C66.3745 19.3329 66.4072 19.3696 66.4643 19.4268Z" fill="white"/>
<path d="M54.0311 19.5694C50.1577 19.5776 46.9954 16.3904 46.9912 12.5829C46.9871 8.64474 50.1373 5.46567 54.0147 5.482C57.933 5.49832 61.0423 8.70186 61.0464 12.4685C61.0504 16.4149 57.9166 19.5817 54.0311 19.5694ZM59.3834 13.954C59.3426 13.5378 59.3262 13.1215 59.2609 12.7093C58.9258 10.624 58.0024 8.84467 56.4335 7.42045C55.5265 6.59609 54.4846 6.03292 53.2343 5.93906C52.2211 5.86152 51.3017 6.1227 50.505 6.75526C49.7614 7.34291 49.2833 8.12642 48.9933 9.02425C48.6582 10.0608 48.6092 11.1219 48.7563 12.1911C48.9933 13.9133 49.6715 15.4477 50.7829 16.7863C51.5306 17.6881 52.4212 18.4186 53.5326 18.8349C54.3416 19.1369 55.175 19.2389 56.0208 19.0348C57.2547 18.7369 58.125 17.9778 58.7011 16.8679C59.1709 15.9496 59.3548 14.9742 59.3834 13.954Z" fill="white"/>
<path d="M42.452 5.80893H40.8218C41.929 4.92337 43.0077 4.06637 44.1027 3.18896V5.61712H46.5051V5.80485H44.1149C44.1108 5.85382 44.1067 5.88239 44.1067 5.91503C44.1067 9.23694 44.1027 12.5629 44.1149 15.8848C44.119 16.55 44.1925 17.2111 44.4254 17.8436C44.6746 18.5293 45.0996 19.0475 45.8432 19.2394C46.2273 19.3413 46.6154 19.3291 47.0036 19.2965C47.0689 19.2924 47.1302 19.2801 47.2037 19.272C47.212 19.321 47.2201 19.3618 47.2323 19.4271C47.0934 19.4434 46.9668 19.4638 46.836 19.4719C45.9617 19.525 45.1282 19.3862 44.3437 18.9782C43.547 18.5619 42.9668 17.9457 42.6522 17.105C42.501 16.705 42.452 16.2806 42.452 15.8481C42.4561 12.5711 42.452 9.29406 42.452 6.01298V5.80893Z" fill="white"/>
<path d="M121.39 19.4757H116.781C116.818 19.4308 116.842 19.3981 116.867 19.3696C117.3 18.9206 117.733 18.4759 118.162 18.0188C118.211 17.9657 118.248 17.8759 118.248 17.8065C118.252 15.3091 118.252 12.8115 118.252 10.3139C118.252 9.43246 118.076 8.59176 117.618 7.82866C117.014 6.82066 116.144 6.17178 114.959 6.00038C114.219 5.89427 113.529 6.06567 112.879 6.41663C112.14 6.81245 111.543 7.37975 110.967 7.97147C110.93 8.00818 110.922 8.08572 110.922 8.14698C110.918 10.1384 110.922 12.134 110.922 14.1255C110.922 15.3335 110.922 16.5456 110.918 17.7535C110.918 17.8759 110.951 17.9657 111.036 18.0555C111.453 18.4758 111.862 18.9044 112.27 19.3288C112.307 19.3655 112.34 19.4022 112.389 19.4594H107.792C107.833 19.4145 107.862 19.3777 107.895 19.3451C108.319 18.9044 108.74 18.4677 109.165 18.031C109.23 17.9657 109.259 17.8964 109.259 17.8025C109.255 14.4724 109.255 11.1424 109.259 7.81231C109.259 7.71842 109.235 7.66543 109.153 7.61238C108.695 7.31442 108.246 7.00838 107.768 6.69006C108.822 6.35542 109.855 6.02894 110.91 5.6943V7.71842C111.036 7.60417 111.134 7.51442 111.232 7.42873C111.743 6.96754 112.274 6.5309 112.883 6.20034C113.856 5.66982 114.889 5.49026 115.98 5.63309C116.94 5.75552 117.79 6.1228 118.497 6.7921C119.159 7.41645 119.571 8.18776 119.768 9.0733C119.866 9.52629 119.907 9.98748 119.907 10.4527C119.907 12.8931 119.907 15.3376 119.903 17.778C119.903 17.8882 119.931 17.9657 120.009 18.0432C120.43 18.4717 120.846 18.9044 121.263 19.3369C121.296 19.3777 121.328 19.4145 121.39 19.4757Z" fill="white"/>
<path d="M81.3112 19.4711C81.5117 19.2629 81.6874 19.0793 81.8631 18.8956C82.1411 18.6059 82.427 18.3203 82.7009 18.0223C82.7497 17.9692 82.7865 17.8795 82.7865 17.8102C82.7905 16.3899 82.7905 14.9698 82.7905 13.5496C82.7905 9.65637 82.7905 5.76316 82.7945 1.86993C82.7945 1.75159 82.7577 1.66589 82.6762 1.58019C82.2553 1.15169 81.8384 0.719108 81.4215 0.286529C81.3894 0.253881 81.3567 0.217149 81.3032 0.160016C81.3767 0.155934 81.4175 0.151855 81.4629 0.151855C83.8608 0.151855 86.2634 0.151855 88.6619 0.151855C89.6507 0.151855 90.5781 0.376306 91.4112 0.935397C92.388 1.58835 92.972 2.49432 93.1437 3.65331C93.2706 4.49807 93.1397 5.29794 92.6453 6.0121C92.3266 6.46917 91.9143 6.82828 91.4607 7.15067C90.6763 7.71383 89.8098 8.13825 88.9639 8.59945C88.1388 9.05243 87.2969 9.47272 86.5293 10.0155C85.8999 10.4604 85.348 10.9745 84.9518 11.6397C84.6331 12.1703 84.4574 12.7497 84.4534 13.3619C84.4414 14.8514 84.4494 16.341 84.4534 17.8264C84.4534 17.8918 84.4862 17.9693 84.5309 18.0182C84.9518 18.4631 85.3808 18.9038 85.8097 19.3486C85.8424 19.3854 85.8752 19.4221 85.9246 19.4751L81.3112 19.4711ZM84.4534 12.3212C84.4781 12.2682 84.4862 12.2478 84.4942 12.2315C84.7641 11.4561 85.2545 10.8399 85.8752 10.3134C86.4718 9.80738 87.1419 9.40338 87.8281 9.03608C88.7722 8.53004 89.63 7.93011 90.3169 7.09762C91.2683 5.9468 91.6979 4.65723 91.3544 3.1636C91.1133 2.11888 90.5454 1.33533 89.5732 0.853776C88.9519 0.547706 88.2818 0.396713 87.5956 0.372228C86.57 0.339581 85.5405 0.35182 84.5149 0.343658C84.4942 0.343658 84.4741 0.351821 84.4494 0.359983V12.3212H84.4534Z" fill="white"/>
<path d="M97.0013 5.67342V9.12183C97.0053 9.12183 97.014 9.12183 97.018 9.1259C97.0587 8.94632 97.0955 8.76267 97.1442 8.58316C97.3327 7.90162 97.6794 7.31804 98.2313 6.86912C98.6442 6.53042 99.1139 6.29781 99.6203 6.13456C100.372 5.88971 101.148 5.75912 101.953 5.64893C101.945 5.70606 101.937 5.75095 101.925 5.79585C101.81 6.32229 101.687 6.85284 101.581 7.37923C101.557 7.50168 101.504 7.52618 101.389 7.52618C100.482 7.50983 99.5796 7.57109 98.7177 7.87305C98.1411 8.07299 97.6186 8.36274 97.2752 8.89327C97.0875 9.18303 97.0093 9.50948 97.0093 9.84415C97.0053 12.509 97.0053 15.1779 97.0093 17.8428C97.0093 17.8999 97.046 17.9734 97.0875 18.0183C97.5124 18.4631 97.9373 18.9038 98.3663 19.3446C98.399 19.3813 98.4317 19.418 98.4805 19.4711H93.8758C93.9206 19.418 93.9533 19.3813 93.986 19.3487C94.415 18.9038 94.8479 18.4591 95.2728 18.0102C95.3143 17.9652 95.347 17.8918 95.347 17.8306C95.351 14.476 95.351 11.1256 95.351 7.77102C95.351 7.68533 95.3183 7.64042 95.2528 7.59551C94.8359 7.32211 94.419 7.04056 94.0068 6.76302C93.966 6.73445 93.9246 6.70589 93.8638 6.66101C94.9134 6.33044 95.9517 6.00397 97.0013 5.67342Z" fill="white"/>
<path d="M127.428 19.3281C127.436 19.3812 127.445 19.422 127.457 19.4873C127.191 19.5036 126.934 19.5322 126.681 19.5322C125.81 19.5322 124.989 19.3322 124.253 18.8466C123.289 18.2099 122.734 17.3285 122.684 16.1572C122.676 16.0021 122.676 15.8471 122.676 15.692C122.676 12.4844 122.676 9.28084 122.676 6.07322C122.676 6.00792 122.676 5.9467 122.676 5.86917H121.099C121.095 5.85693 121.091 5.84876 121.083 5.83652C122.157 4.97952 123.232 4.12252 124.331 3.24512V5.66512H126.729V5.86508H124.343C124.339 5.9263 124.335 5.97119 124.335 6.01608C124.335 9.32162 124.335 12.6313 124.339 15.9369C124.339 16.6021 124.417 17.2632 124.645 17.8957C124.915 18.6262 125.377 19.173 126.182 19.3118C126.517 19.369 126.864 19.3404 127.208 19.3445C127.281 19.3485 127.351 19.3363 127.428 19.3281Z" fill="white"/>
<path d="M105.716 5.67383V5.88195C105.716 9.84045 105.716 13.799 105.712 17.7575C105.712 17.884 105.745 17.9779 105.838 18.0718C106.255 18.4921 106.664 18.9206 107.072 19.345C107.105 19.3818 107.138 19.4185 107.187 19.4715H102.587C102.631 19.4185 102.664 19.3818 102.697 19.345C103.122 18.9043 103.551 18.4635 103.976 18.0187C104.02 17.9738 104.053 17.8922 104.053 17.8269C104.057 14.4765 104.057 11.1301 104.057 7.77959C104.057 7.68984 104.032 7.64085 103.959 7.59187C103.543 7.31847 103.126 7.04092 102.709 6.76345C102.668 6.73489 102.627 6.70632 102.57 6.6655C103.62 6.33494 104.658 6.00846 105.716 5.67383Z" fill="white"/>
<path d="M103.424 2.4986C103.424 1.82524 103.996 1.25391 104.67 1.25391C105.341 1.25391 105.933 1.8334 105.912 2.4986C105.892 3.225 105.369 3.72289 104.666 3.73513C103.984 3.74737 103.42 3.17195 103.424 2.4986Z" fill="white"/>
<path d="M171.04 17.3655C170.806 17.9573 170.577 18.5409 170.349 19.1244C170.296 19.2591 170.271 19.4468 170.169 19.5121C170.067 19.5815 169.887 19.5325 169.74 19.5366C169.63 19.5366 169.52 19.5366 169.389 19.5366C169.389 19.4672 169.389 19.406 169.389 19.3448C169.389 13.7702 169.389 8.19563 169.393 2.61698C169.393 2.49046 169.352 2.42109 169.25 2.35579C168.809 2.07012 168.371 1.7763 167.897 1.46206C168.96 1.12742 169.989 0.800945 171.04 0.466309V7.9018C171.1 7.83654 171.133 7.80384 171.162 7.7712C171.865 6.95913 172.711 6.34697 173.715 5.95927C174.394 5.69809 175.096 5.60015 175.819 5.64504C176.866 5.71034 177.838 5.996 178.737 6.53876C179.865 7.21619 180.694 8.16299 181.262 9.3383C181.846 10.5462 182.071 11.8236 181.981 13.158C181.895 14.4558 181.499 15.6556 180.78 16.7411C179.938 18.0144 178.807 18.9245 177.331 19.3815C176.715 19.5733 176.077 19.6427 175.427 19.6141C174.741 19.5815 174.067 19.4754 173.425 19.2183C172.743 18.9449 172.151 18.5327 171.636 18.0103C171.44 17.8063 171.247 17.59 171.04 17.3655ZM171.044 12.6112C171.044 14.0192 171.044 15.4271 171.044 16.835C171.044 16.9003 171.056 16.9778 171.092 17.0268C171.305 17.2921 171.509 17.5614 171.746 17.8063C172.641 18.7204 173.727 19.2387 175.015 19.3162C175.599 19.3489 176.167 19.2795 176.706 19.0346C177.609 18.6225 178.259 17.9369 178.77 17.1125C179.444 16.027 179.815 14.8312 179.954 13.5703C180.122 12.0562 179.91 10.5911 179.321 9.18321C178.958 8.31401 178.455 7.53857 177.756 6.89787C176.784 6.00416 175.66 5.69402 174.374 6.01233C173.017 6.34697 171.942 7.09787 171.096 8.19563C171.056 8.24868 171.04 8.3303 171.04 8.39563C171.04 9.79943 171.044 11.2033 171.044 12.6112Z" fill="white"/>
<path d="M149.029 15.4392C148.756 15.8146 148.515 16.1819 148.241 16.5206C147.273 17.7041 146.051 18.5366 144.613 19.0385C143.272 19.5079 141.883 19.6793 140.465 19.6018C138.917 19.5119 137.475 19.0671 136.138 18.2877C134.545 17.3531 133.315 16.0636 132.433 14.4475C131.898 13.4681 131.546 12.4234 131.391 11.3215C131.081 9.13001 131.436 7.04873 132.531 5.11029C133.621 3.18 135.195 1.78023 137.225 0.894669C138.218 0.462086 139.26 0.217234 140.339 0.143776C141.728 0.0458335 143.076 0.233557 144.38 0.719188C145.769 1.23747 146.987 2.02101 148.028 3.07389C148.396 3.44526 148.718 3.85744 149.062 4.24921C149.086 4.27778 149.102 4.30634 149.135 4.35532C149.082 4.36348 149.046 4.36756 149.009 4.36756C148.118 4.36756 147.227 4.36756 146.336 4.37164C146.238 4.37164 146.185 4.33083 146.132 4.26553C145.491 3.49832 144.768 2.8168 143.934 2.25771C142.888 1.55578 141.744 1.11504 140.494 0.943644C139.591 0.821216 138.692 0.817132 137.801 1.02526C136.24 1.39254 135.039 2.26178 134.177 3.60442C133.569 4.5512 133.225 5.59593 133.09 6.70592C132.854 8.70151 133.046 10.6563 133.781 12.5295C134.578 14.5658 135.951 16.1044 137.911 17.096C139.632 17.9653 141.471 18.2836 143.383 18.1612C144.731 18.0754 145.998 17.6919 147.142 16.9532C147.73 16.5778 148.249 16.1207 148.662 15.5534C148.751 15.4269 148.845 15.3902 149.029 15.4392Z" fill="white"/>
<path d="M154.667 6.71025C155.73 6.37561 156.764 6.05322 157.814 5.72266V5.91446C157.814 8.88128 157.814 11.8482 157.814 14.815C157.814 15.7047 157.981 16.5617 158.443 17.3289C159.113 18.4389 160.077 19.1082 161.397 19.202C162.173 19.2551 162.868 18.9898 163.513 18.5777C164.11 18.1981 164.625 17.7248 165.115 17.2187C165.156 17.1779 165.172 17.0963 165.172 17.0351C165.176 15.721 165.176 14.4029 165.176 13.0887C165.176 11.3462 165.176 9.60367 165.18 7.86107C165.18 7.75496 165.152 7.68563 165.058 7.62844C164.653 7.36731 164.253 7.09797 163.853 6.82857C163.807 6.80001 163.763 6.76738 163.689 6.71432C164.747 6.38377 165.781 6.0573 166.827 5.73082V19.5367C166.574 19.5367 166.32 19.5408 166.071 19.5326C166.038 19.5326 166.001 19.4714 165.981 19.4306C165.716 18.847 165.454 18.2634 165.188 17.6758C165.168 17.6309 165.144 17.586 165.115 17.5288C164.894 17.7166 164.686 17.9002 164.474 18.0798C163.844 18.6184 163.166 19.0878 162.366 19.3245C160.486 19.8836 158.786 19.5979 157.365 18.1737C156.731 17.537 156.388 16.7372 156.245 15.8556C156.183 15.4761 156.159 15.0885 156.155 14.7089C156.147 12.4277 156.151 10.1423 156.155 7.857C156.155 7.75089 156.127 7.68563 156.032 7.62436C155.62 7.3591 155.215 7.08162 154.806 6.80822C154.77 6.78373 154.733 6.75517 154.667 6.71025Z" fill="white"/>
<path d="M149.654 1.46206C150.716 1.12742 151.75 0.800945 152.8 0.466309V0.654036C152.8 6.37961 152.8 12.1093 152.796 17.8348C152.796 17.9491 152.829 18.0308 152.91 18.1124C153.335 18.5449 153.752 18.9816 154.173 19.4183C154.206 19.4509 154.234 19.4835 154.275 19.5325H149.662C149.703 19.4876 149.727 19.455 149.76 19.4223C150.189 18.9775 150.623 18.5327 151.048 18.0837C151.096 18.0307 151.137 17.9409 151.137 17.8715C151.141 12.7785 151.141 7.68145 151.141 2.5884C151.141 2.49454 151.117 2.43741 151.035 2.38844C150.619 2.1191 150.21 1.84159 149.793 1.56816C149.76 1.53552 149.719 1.50695 149.654 1.46206Z" fill="white"/>
</svg>
