<svg width="136" height="674" viewBox="0 0 136 674" fill="none" xmlns="http://www.w3.org/2000/svg">
<path opacity="0.5" d="M9.18372 634.131C9.18372 604.507 29.4457 583.546 58.0919 583.546C86.5983 583.546 107 604.507 107 634.131L107 673.677L9.18372 673.677L9.18372 634.131ZM82.4062 635.389C82.4062 620.856 72.4848 611.214 58.0919 611.214C43.5592 611.214 33.9173 620.856 33.9173 635.389L33.9173 646.568L82.4062 646.568L82.4062 635.389ZM22.1793 571.083L0.100776 571.083L0.100774 545.372L22.1793 545.372L22.1793 571.083ZM107 571.223L31.5417 571.223L31.5417 545.232L107 545.232L107 571.223ZM31.2622 486.719L31.2622 479.732L55.0176 479.732L55.0176 489.933C55.0176 499.016 59.07 502.928 68.7119 502.928L107 502.928L107 528.92L31.5417 528.92L31.5417 511.452L39.926 507.4C33.7775 502.09 31.2622 495.662 31.2622 486.719ZM68.5722 393.502C70.9477 393.502 73.1835 393.642 75.559 393.921L75.559 449.956C84.2228 448.279 88.6944 442.829 88.6944 434.585C88.6944 428.576 86.0394 423.406 81.5678 421.03L81.5678 395.039C98.7555 400.349 109.515 415.72 109.515 434.585C109.515 458.2 92.3275 475.528 69.2709 475.528C46.2142 475.528 29.1662 458.34 29.1662 434.585C29.1662 410.27 46.4936 393.502 68.5722 393.502ZM49.5679 434.585C49.5679 442.131 53.6202 447.441 61.1661 449.537L61.1661 419.074C53.6202 421.31 49.5679 426.76 49.5679 434.585ZM109.515 344.367C109.515 368.541 92.607 386.009 69.2709 386.009C45.9347 386.009 29.3059 368.681 29.3059 344.227C29.3059 322.987 42.581 307.197 62.7032 304.262L62.7032 329.694C56.5547 331.79 52.5023 337.52 52.5023 344.367C52.5023 353.45 59.4892 360.017 69.2709 360.017C79.1922 360.017 86.3188 353.45 86.3188 344.367C86.3188 337.38 81.987 331.651 75.2796 329.555L75.2796 303.983C95.6812 306.917 109.515 323.127 109.515 344.367ZM84.3625 252.579L84.3625 242.657L107 242.657L107 260.544C107 277.173 96.7991 287.374 80.0306 287.374L51.6639 287.374L51.6639 301.208L45.5155 301.208L9.60292 267.391L9.60292 261.941L31.5417 261.941L31.5417 243.077L51.6639 243.077L51.6639 261.382L75.6988 261.382C81.0088 261.382 84.3625 258.029 84.3625 252.579ZM109.515 193.29C109.515 217.884 92.607 235.49 69.2708 235.49C45.9347 235.49 29.1662 217.884 29.1662 193.29C29.1662 168.696 45.9347 150.949 69.2708 150.949C92.607 150.949 109.515 168.696 109.515 193.29ZM86.1791 193.29C86.1791 183.788 79.3319 176.94 69.4106 176.94C59.4892 176.94 52.5023 183.788 52.5023 193.29C52.5023 202.652 59.3495 209.499 69.4106 209.499C79.3319 209.499 86.1791 202.652 86.1791 193.29ZM31.2622 96.7093L31.2622 89.7224L55.0176 89.7224L55.0176 99.9233C55.0176 109.006 59.07 112.919 68.7119 112.919L107 112.919L107 138.91L31.5417 138.91L31.5417 121.443L39.926 117.39C33.7775 112.08 31.2622 105.653 31.2622 96.7093ZM31.5417 28.5446L31.5417 0.597136L103.646 32.3176C126.843 42.5184 135.087 51.7411 135.087 71.3043L135.087 80.2475L112.869 80.2475L112.869 72.9812C112.869 63.0598 110.214 60.1253 100.852 56.6319L31.5417 87.7934L31.5417 59.5664L73.1835 43.4966L31.5417 28.5446Z" fill="url(#paint0_linear_384_679)"/>
<defs>
<linearGradient id="paint0_linear_384_679" x1="-18" y1="342.903" x2="156.001" y2="342.243" gradientUnits="userSpaceOnUse">
<stop offset="0.198794" stop-color="white" stop-opacity="0.8"/>
<stop offset="0.683855" stop-color="white" stop-opacity="0.1"/>
</linearGradient>
</defs>
</svg>
