<svg width="684" height="177" viewBox="0 0 684 177" fill="none" xmlns="http://www.w3.org/2000/svg">
<path opacity="0.5" d="M49.9717 29.5853C79.5958 29.4729 100.633 49.6552 100.742 78.3012C100.85 106.807 79.9669 127.288 50.3427 127.401L10.7973 127.551L10.4262 29.7353L49.9717 29.5853ZM48.9918 102.812C63.5244 102.757 73.1286 92.799 73.074 78.4061C73.0188 63.8735 63.3405 54.2683 48.8079 54.3234L37.6289 54.3658L37.8129 102.854L48.9918 102.812ZM113.068 42.3416L112.985 20.2632L138.696 20.1657L138.78 42.2441L113.068 42.3416ZM113.25 127.162L112.964 51.7045L138.955 51.6059L139.241 127.064L113.25 127.162ZM197.467 51.1045L204.453 51.0779L204.543 74.8332L194.343 74.8719C185.26 74.9063 181.363 78.9735 181.399 88.6153L181.544 126.903L155.553 127.002L155.267 51.544L172.734 51.4778L176.818 59.8466C182.105 53.678 188.523 51.1384 197.467 51.1045ZM290.824 88.0605C290.833 90.436 290.702 92.6723 290.432 95.0489L234.397 95.2615C236.107 103.919 241.574 108.37 249.818 108.338C255.827 108.316 260.987 105.641 263.346 101.16L289.337 101.062C284.092 118.27 268.762 129.088 249.897 129.159C226.282 129.249 208.889 112.127 208.802 89.0703C208.714 66.0138 225.837 48.9008 249.592 48.8106C273.906 48.7184 290.741 65.9821 290.824 88.0605ZM249.67 69.2122C242.124 69.2408 236.829 73.3133 234.762 80.867L265.224 80.7515C262.96 73.2142 257.495 69.1825 249.67 69.2122ZM340.115 128.817C315.94 128.909 298.409 112.067 298.32 88.7308C298.232 65.3948 315.496 48.7004 339.95 48.6076C361.19 48.527 377.031 61.7421 380.041 81.853L354.609 81.9495C352.49 75.8091 346.745 71.7784 339.898 71.8044C330.815 71.8389 324.274 78.8506 324.311 88.6322C324.349 98.5534 330.944 105.655 340.027 105.621C347.013 105.594 352.726 101.241 354.797 94.5253L380.368 94.4283C377.511 114.841 361.354 128.736 340.115 128.817ZM431.806 103.316L441.728 103.278L441.814 125.916L423.927 125.984C407.299 126.047 397.059 115.885 396.996 99.1163L396.888 70.7498L383.054 70.8023L383.031 64.6538L416.711 28.6133L422.16 28.5926L422.244 50.5312L441.108 50.4597L441.184 70.5817L422.879 70.6512L422.97 94.6859C422.99 99.9959 426.357 103.337 431.806 103.316ZM491.19 128.244C466.597 128.337 448.926 111.496 448.837 88.1598C448.749 64.8238 466.292 47.9886 490.886 47.8953C515.479 47.802 533.289 64.5031 533.378 87.8391C533.466 111.175 515.784 128.151 491.19 128.244ZM491.102 104.908C500.604 104.872 507.425 97.9987 507.387 88.0774C507.35 78.1561 500.476 71.1952 490.974 71.2313C481.612 71.2668 474.791 78.1399 474.829 88.2009C474.867 98.1222 481.74 104.943 491.102 104.908ZM587.473 49.625L594.46 49.5985L594.55 73.3537L584.349 73.3924C575.267 73.4268 571.369 77.494 571.406 87.1358L571.551 125.424L545.56 125.522L545.274 50.0645L562.741 49.9983L566.825 58.3671C572.112 52.1985 578.53 49.6589 587.473 49.625ZM655.639 49.6459L683.586 49.5398L652.139 121.764C642.026 144.999 632.835 153.279 613.272 153.353L604.329 153.387L604.245 131.169L611.511 131.141C621.432 131.103 624.357 128.437 627.814 119.062L596.39 49.8706L624.617 49.7635L640.845 91.3441L655.639 49.6459Z" fill="url(#paint0_linear_2004_32)"/>
<defs>
<linearGradient id="paint0_linear_2004_32" x1="341.094" y1="1.297" x2="342.415" y2="175.294" gradientUnits="userSpaceOnUse">
<stop offset="0.198794" stop-color="white" stop-opacity="0.8"/>
<stop offset="0.683855" stop-color="white" stop-opacity="0.1"/>
</linearGradient>
</defs>
</svg>
