<svg width="82" height="82" viewBox="0 0 82 82" fill="none" xmlns="http://www.w3.org/2000/svg">
<circle cx="41" cy="41" r="41" fill="#96BF47"/>
<path d="M45.6352 64.5874C44.5362 64.5874 43.5541 63.7841 42.6003 63.0041C42.0174 62.5269 41.2185 61.8737 40.8328 61.8737C40.4477 61.8737 39.6487 62.5269 39.0659 63.0041C38.021 63.8583 36.8358 64.8296 35.531 64.5306C34.1844 64.2245 33.5252 62.8086 32.9434 61.5601C32.6531 60.9355 32.2133 59.9914 31.9007 59.8403C31.5692 59.6783 30.54 59.928 29.8592 60.0916C28.5337 60.4106 27.0322 60.7703 25.9705 59.9237C24.9051 59.0727 24.924 57.523 24.9419 56.1564C24.9506 55.4593 24.9636 54.4063 24.7393 54.1246C24.5178 53.8473 23.4924 53.6279 22.8137 53.4827C21.4715 53.1956 19.9515 52.8701 19.3557 51.6351C18.7685 50.4191 19.4538 49.04 20.0572 47.8234C20.3708 47.1929 20.8442 46.239 20.7613 45.8734C20.6866 45.5457 19.8708 44.9125 19.3313 44.4932C18.2388 43.6461 17 42.6841 17 41.2931C17 39.9021 18.2388 38.9406 19.3319 38.0923C19.8714 37.6736 20.6871 37.0404 20.7619 36.7122C20.8447 36.3465 20.3713 35.3927 20.0582 34.7616C19.4543 33.5451 18.7696 32.1665 19.3573 30.9494C19.9532 29.7149 21.4731 29.3894 22.8148 29.1023C23.4935 28.9571 24.5189 28.7378 24.7399 28.461C24.9652 28.1788 24.9522 27.1252 24.9435 26.4281C24.9262 25.0615 24.9073 23.5123 25.9722 22.6613C27.0333 21.8142 28.5359 22.1749 29.8608 22.4934C30.5428 22.657 31.5708 22.9046 31.9018 22.7453C32.2149 22.5942 32.6542 21.6506 32.945 21.0255C33.5263 19.7764 34.1849 18.361 35.5315 18.055C36.8348 17.7593 38.0221 18.7267 39.0664 19.5814C39.6498 20.0586 40.4488 20.7119 40.8339 20.7119C41.219 20.7119 42.018 20.0586 42.6008 19.582C43.6462 18.7267 44.8308 17.7571 46.1363 18.055C47.4823 18.361 48.1415 19.777 48.7233 21.026C49.0141 21.6506 49.4534 22.5947 49.7665 22.7458C50.0985 22.9056 51.1261 22.6575 51.807 22.494C53.1324 22.1755 54.6345 21.8147 55.6961 22.6619C56.7616 23.5128 56.7426 25.062 56.7248 26.4292C56.7161 27.1263 56.7031 28.1798 56.9273 28.461C57.1489 28.7378 58.1743 28.9577 58.853 29.1028C60.1952 29.3899 61.7151 29.7149 62.311 30.9499C62.8981 32.1665 62.2129 33.5456 61.6095 34.7622C61.2959 35.3932 60.8225 36.3465 60.9053 36.7122C60.9801 37.0404 61.7958 37.6736 62.3353 38.0923C63.4279 38.9406 64.6667 39.9021 64.6667 41.2931C64.6667 42.6841 63.4279 43.6455 62.3348 44.4938C61.7953 44.9125 60.9795 45.5451 60.9048 45.8745C60.8219 46.2401 61.2953 47.1934 61.6084 47.8245C62.2124 49.0411 62.897 50.4196 62.3093 51.6367C61.7135 52.8712 60.1936 53.1967 58.8519 53.4833C58.1732 53.629 57.1478 53.8483 56.9263 54.1251C56.7015 54.4073 56.7145 55.4609 56.7231 56.158C56.7405 57.5241 56.7594 59.0733 55.6945 59.9242C54.6334 60.7714 53.1308 60.4101 51.8059 60.0921C51.1239 59.9286 50.0958 59.6799 49.7649 59.8408C49.4518 59.9914 49.0125 60.9355 48.7216 61.5601C48.1404 62.8097 47.4817 64.2251 46.1352 64.5311C45.9662 64.5696 45.7993 64.5874 45.6352 64.5874ZM31.5654 57.6243C32.0145 57.6243 32.4451 57.6969 32.8421 57.8881C33.8513 58.3745 34.3886 59.5288 34.908 60.6452C35.1653 61.1977 35.7005 62.3471 36.0109 62.4175C36.2996 62.4684 37.2421 61.6955 37.6938 61.3261C38.6677 60.5298 39.6742 59.7065 40.8328 59.7065C41.9914 59.7065 42.9984 60.5303 43.9718 61.3261C44.4235 61.6955 45.3378 62.4533 45.6558 62.4175C45.9651 62.3466 46.5008 61.1977 46.7575 60.6452C47.2765 59.5288 47.8138 58.3756 48.8235 57.8881C49.8505 57.3925 51.1006 57.6942 52.3113 57.9851C52.8935 58.1248 54.1074 58.4168 54.3414 58.2304C54.5792 58.0408 54.5635 56.7869 54.5559 56.1846C54.5402 54.9431 54.524 53.6598 55.2325 52.7726C55.9366 51.8908 57.1873 51.6232 58.3974 51.3643C58.99 51.2375 60.2223 50.9737 60.3572 50.6948C60.4828 50.4331 59.9314 49.3216 59.6665 48.7875C59.1113 47.669 58.5366 46.512 58.7912 45.394C59.0377 44.3096 60.0381 43.5328 61.005 42.7821C61.5283 42.3769 62.5 41.6229 62.5 41.2931C62.5 40.9632 61.5283 40.2092 61.0061 39.8035C60.0387 39.0527 59.0382 38.2765 58.7918 37.1916C58.5377 36.0736 59.1124 34.9165 59.6676 33.798C59.9325 33.2639 60.4845 32.153 60.3582 31.8908C60.2234 31.6113 58.9911 31.3481 58.399 31.2213C57.189 30.9624 55.9377 30.6948 55.2335 29.8135C54.5256 28.9268 54.5418 27.6431 54.5575 26.4021C54.5651 25.7998 54.5808 24.5453 54.343 24.3557C54.1101 24.1693 52.8957 24.4613 52.3123 24.6011C51.1023 24.8919 49.8521 25.1931 48.8245 24.6975C47.8154 24.2105 47.2781 23.0568 46.7586 21.9409C46.5013 21.3884 45.9667 20.239 45.6558 20.1686C45.3579 20.1171 44.424 20.8906 43.9723 21.2595C42.9989 22.0563 41.9925 22.8796 40.8339 22.8796C39.6753 22.8796 38.6688 22.0558 37.6949 21.2595C37.2432 20.8901 36.3007 20.1204 36.0109 20.1681C35.701 20.2385 35.1653 21.3879 34.9086 21.9404C34.3891 23.0562 33.8523 24.21 32.8432 24.6969C31.8162 25.192 30.566 24.8919 29.3549 24.6005C28.7726 24.4602 27.5576 24.1688 27.3247 24.3546C27.0869 24.5447 27.1026 25.7987 27.1102 26.401C27.1259 27.6425 27.1422 28.9263 26.4337 29.8124C25.7295 30.6943 24.4788 30.9618 23.2687 31.2208C22.6761 31.3475 21.4438 31.6113 21.309 31.8903C21.1833 32.1519 21.7347 33.2634 21.9996 33.7975C22.5548 34.916 23.1295 36.073 22.8749 37.191C22.6285 38.2754 21.628 39.0522 20.6611 39.8029C20.1384 40.2092 19.1667 40.9632 19.1667 41.2931C19.1667 41.6229 20.1384 42.3775 20.6606 42.7826C21.628 43.5334 22.6285 44.3091 22.8749 45.394C23.129 46.512 22.5543 47.6685 21.999 48.7875C21.7342 49.3216 21.1822 50.4326 21.3084 50.6948C21.4433 50.9748 22.6756 51.238 23.2682 51.3648C24.4777 51.6237 25.729 51.8913 26.4331 52.7731C27.1411 53.6598 27.1248 54.9431 27.1091 56.1846C27.1015 56.7869 27.0858 58.0414 27.3236 58.231C27.5565 58.4146 28.771 58.1253 29.3543 57.9851C30.0959 57.8063 30.8537 57.6243 31.5654 57.6243ZM34.0159 49.6423L49.1826 34.4756C49.6056 34.0526 49.6056 33.3668 49.1826 32.9438C48.7595 32.5208 48.0738 32.5208 47.6508 32.9438L32.4841 48.1105C32.061 48.5335 32.061 49.2193 32.4841 49.6423C32.6959 49.8541 32.9727 49.9597 33.25 49.9597C33.5273 49.9597 33.8041 49.8541 34.0159 49.6423ZM35.4167 39.6681C33.3264 39.6681 31.625 37.9672 31.625 35.8764C31.625 33.7855 33.3264 32.0847 35.4167 32.0847C37.507 32.0847 39.2083 33.7855 39.2083 35.8764C39.2083 37.9672 37.507 39.6681 35.4167 39.6681ZM35.4167 34.2514C34.5208 34.2514 33.7917 34.9805 33.7917 35.8764C33.7917 36.7723 34.5208 37.5014 35.4167 37.5014C36.3126 37.5014 37.0417 36.7723 37.0417 35.8764C37.0417 34.9805 36.3126 34.2514 35.4167 34.2514ZM46.25 50.5014C44.1597 50.5014 42.4583 48.8 42.4583 46.7097C42.4583 44.6194 44.1597 42.9181 46.25 42.9181C48.3403 42.9181 50.0417 44.6194 50.0417 46.7097C50.0417 48.8 48.3403 50.5014 46.25 50.5014ZM46.25 45.0847C45.3541 45.0847 44.625 45.8138 44.625 46.7097C44.625 47.6056 45.3541 48.3347 46.25 48.3347C47.1459 48.3347 47.875 47.6056 47.875 46.7097C47.875 45.8138 47.1459 45.0847 46.25 45.0847Z" fill="black"/>
</svg>
