<svg width="82" height="82" viewBox="0 0 82 82" fill="none" xmlns="http://www.w3.org/2000/svg">
<circle cx="41" cy="41" r="41" fill="#96BF47"/>
<path d="M38.5741 39.0596L41.9387 42.4246C42.0047 42.4905 42.0571 42.5688 42.0929 42.6551C42.1287 42.7413 42.1471 42.8337 42.1471 42.9271C42.1471 43.0204 42.1287 43.1129 42.0929 43.1991C42.0571 43.2853 42.0047 43.3637 41.9387 43.4296L40.1463 45.222C40.5147 45.8972 40.8101 46.6097 41.0275 47.3475H43.5608C43.7494 47.3475 43.9302 47.4224 44.0635 47.5557C44.1969 47.689 44.2718 47.8699 44.2718 48.0584V52.8164C44.2718 53.005 44.1969 53.1858 44.0635 53.3191C43.9302 53.4525 43.7494 53.5274 43.5608 53.5274H41.0331C40.8156 54.2662 40.5193 54.9795 40.1491 55.6549L41.9387 57.4448C42.0047 57.5108 42.0572 57.5892 42.0929 57.6755C42.1287 57.7617 42.1471 57.8542 42.1471 57.9476C42.1471 58.041 42.1287 58.1334 42.0929 58.2197C42.0572 58.3059 42.0047 58.3843 41.9387 58.4503L38.5741 61.8153C38.5082 61.8813 38.4298 61.9337 38.3436 61.9695C38.2574 62.0053 38.1649 62.0237 38.0716 62.0237C37.9782 62.0237 37.8858 62.0053 37.7996 61.9695C37.7133 61.9337 37.635 61.8813 37.5691 61.8153L35.7791 60.0249C35.1037 60.395 34.3904 60.6914 33.6516 60.9089V63.4374C33.6516 63.5308 33.6333 63.6233 33.5976 63.7096C33.5619 63.7958 33.5095 63.8742 33.4435 63.9403C33.3774 64.0063 33.2991 64.0586 33.2128 64.0944C33.1265 64.1301 33.034 64.1484 32.9406 64.1484H28.1822C28.0889 64.1484 27.9964 64.1301 27.9101 64.0944C27.8238 64.0586 27.7454 64.0063 27.6794 63.9403C27.6134 63.8742 27.561 63.7958 27.5253 63.7096C27.4896 63.6233 27.4712 63.5308 27.4713 63.4374V60.9045C26.7337 60.6869 26.0213 60.3913 25.3462 60.0229L23.5542 61.8153C23.4882 61.8813 23.4099 61.9338 23.3236 61.9695C23.2374 62.0053 23.1449 62.0237 23.0515 62.0237C22.9581 62.0237 22.8657 62.0053 22.7794 61.9695C22.6931 61.9338 22.6148 61.8813 22.5488 61.8153L19.1838 58.4503C19.1177 58.3843 19.0653 58.3059 19.0295 58.2197C18.9938 58.1334 18.9754 58.041 18.9754 57.9476C18.9754 57.8542 18.9938 57.7617 19.0295 57.6755C19.0653 57.5892 19.1177 57.5108 19.1838 57.4448L20.9754 55.6529C20.6069 54.9776 20.3114 54.2651 20.0938 53.5274H17.5616C17.4683 53.5274 17.3758 53.5091 17.2895 53.4734C17.2032 53.4376 17.1248 53.3853 17.0588 53.3193C16.9928 53.2532 16.9404 53.1748 16.9047 53.0886C16.869 53.0023 16.8507 52.9098 16.8507 52.8164V48.0584C16.8507 47.9651 16.869 47.8726 16.9047 47.7863C16.9404 47.7 16.9928 47.6216 17.0588 47.5556C17.1248 47.4896 17.2032 47.4372 17.2895 47.4015C17.3758 47.3658 17.4683 47.3474 17.5616 47.3475H20.0897C20.3074 46.6086 20.6039 45.8954 20.9741 45.22L19.1838 43.4296C19.1177 43.3637 19.0653 43.2853 19.0296 43.1991C18.9938 43.1129 18.9754 43.0204 18.9754 42.9271C18.9754 42.8337 18.9938 42.7413 19.0296 42.6551C19.0653 42.5688 19.1177 42.4905 19.1838 42.4246L22.548 39.0596C22.6814 38.9264 22.8622 38.8517 23.0507 38.8517C23.2392 38.8517 23.42 38.9264 23.5534 39.0596L25.3434 40.8499C26.019 40.4798 26.7324 40.1833 27.4713 39.9655V37.437C27.4713 37.2485 27.5462 37.0676 27.6795 36.9343C27.8129 36.801 27.9937 36.7261 28.1822 36.7261H32.9406C33.1292 36.7261 33.31 36.801 33.4434 36.9343C33.5767 37.0676 33.6516 37.2485 33.6516 37.437V39.9704C34.3892 40.188 35.1016 40.4835 35.7767 40.852L37.5691 39.0596C37.7024 38.9264 37.8831 38.8515 38.0716 38.8515C38.26 38.8515 38.4408 38.9264 38.5741 39.0596ZM36.3962 42.2434C36.2833 42.3565 36.1355 42.4282 35.9768 42.4469C35.8181 42.4657 35.6577 42.4303 35.5216 42.3466C34.6722 41.8243 33.7452 41.4404 32.7753 41.2091C32.6201 41.1718 32.4819 41.0834 32.383 40.9582C32.284 40.8329 32.23 40.678 32.2297 40.5184V38.15H28.8932V40.5119C28.8929 40.6717 28.8389 40.8267 28.7398 40.952C28.6406 41.0773 28.5022 41.1656 28.3468 41.2026C27.377 41.4345 26.4506 41.82 25.6026 42.3445C25.4663 42.4286 25.3056 42.4642 25.1466 42.4456C24.9876 42.427 24.8395 42.3553 24.7263 42.2421L23.0513 40.5684L20.6926 42.9279L22.3664 44.6021C22.4795 44.7153 22.5511 44.8633 22.5696 45.0222C22.5882 45.1811 22.5527 45.3417 22.4687 45.4779C21.9443 46.3264 21.559 47.2535 21.3276 48.2238C21.2906 48.3792 21.2024 48.5176 21.0771 48.6168C20.9518 48.7159 20.7967 48.77 20.637 48.7702H18.2726V52.1059H20.6406C20.8003 52.1062 20.9552 52.1601 21.0804 52.2591C21.2057 52.358 21.294 52.4962 21.3312 52.6515C21.5623 53.6212 21.9463 54.5479 22.4687 55.3969C22.5523 55.5332 22.5876 55.6937 22.5689 55.8525C22.5502 56.0114 22.4785 56.1592 22.3656 56.2724L20.6926 57.9478L23.0513 60.3065L24.7267 58.6311C24.8397 58.5181 24.9876 58.4464 25.1463 58.4277C25.3051 58.409 25.4655 58.4443 25.6017 58.5279C26.451 59.0501 27.3778 59.4341 28.3476 59.6654C28.5028 59.7027 28.641 59.791 28.7399 59.9163C28.8389 60.0415 28.8929 60.1964 28.8932 60.356V62.7265H32.2297V60.3625C32.2299 60.2028 32.284 60.0477 32.3831 59.9224C32.4822 59.7971 32.6207 59.7089 32.7761 59.6719C33.7464 59.4406 34.6734 59.0554 35.522 58.5311C35.6581 58.4469 35.8187 58.4111 35.9777 58.4297C36.1368 58.4483 36.2848 58.5201 36.3978 58.6335L38.0716 60.3073L40.4307 57.9478L38.7569 56.2736C38.6439 56.1603 38.5723 56.0122 38.5537 55.8532C38.5351 55.6943 38.5707 55.5336 38.6546 55.3973C39.179 54.549 39.5641 53.6221 39.7953 52.6519C39.8323 52.4965 39.9205 52.358 40.0458 52.2589C40.1711 52.1598 40.3262 52.1057 40.4859 52.1055H42.8499V48.7694H40.4815C40.3218 48.769 40.1669 48.715 40.0416 48.616C39.9163 48.5169 39.828 48.3787 39.7908 48.2234C39.5596 47.2536 39.1756 46.3267 38.6533 45.4775C38.5696 45.3414 38.5342 45.181 38.553 45.0223C38.5717 44.8635 38.6434 44.7158 38.7565 44.6029L40.4307 42.9271L38.0716 40.5684L36.3962 42.2434Z" fill="black"/>
<path d="M30.5621 56.5917C29.3449 56.5917 28.1551 56.2308 27.143 55.5545C26.1309 54.8783 25.3421 53.9171 24.8763 52.7926C24.4105 51.668 24.2886 50.4306 24.5261 49.2368C24.7636 48.043 25.3497 46.9464 26.2104 46.0857C27.0711 45.225 28.1677 44.6389 29.3615 44.4014C30.5553 44.164 31.7927 44.2858 32.9173 44.7516C34.0418 45.2174 35.003 46.0062 35.6792 47.0183C36.3555 48.0304 36.7164 49.2202 36.7164 50.4374C36.7146 52.0691 36.0656 53.6334 34.9118 54.7872C33.7581 55.9409 32.1938 56.5899 30.5621 56.5917ZM30.5621 45.7042C29.6262 45.7042 28.7112 45.9818 27.933 46.5017C27.1548 47.0217 26.5482 47.7607 26.19 48.6254C25.8318 49.4901 25.7381 50.4416 25.9206 51.3596C26.1031 52.2776 26.5538 53.1208 27.2155 53.7827C27.8773 54.4445 28.7204 54.8953 29.6384 55.078C30.5563 55.2607 31.5078 55.1671 32.3726 54.809C33.2373 54.451 33.9765 53.8445 34.4966 53.0664C35.0167 52.2883 35.2944 51.3734 35.2945 50.4374C35.293 49.1828 34.7939 47.98 33.9068 47.0928C33.0196 46.2056 31.8168 45.7065 30.5621 45.705V45.7042Z" fill="black"/>
<path d="M64.438 32.652H61.9095C61.692 33.3909 61.3957 34.1042 61.0255 34.7796L62.8155 36.5699C62.8815 36.6359 62.9339 36.7142 62.9697 36.8004C63.0054 36.8867 63.0238 36.9791 63.0238 37.0724C63.0238 37.1658 63.0054 37.2582 62.9697 37.3445C62.9339 37.4307 62.8815 37.509 62.8155 37.575L59.4509 40.9391C59.3849 41.0052 59.3065 41.0576 59.2203 41.0934C59.134 41.1291 59.0415 41.1475 58.9482 41.1475C58.8548 41.1475 58.7623 41.1291 58.676 41.0934C58.5898 41.0576 58.5114 41.0052 58.4454 40.9391L56.6555 39.1496C55.9801 39.5196 55.267 39.8161 54.5284 40.034V42.5625C54.5284 42.7511 54.4535 42.9319 54.3201 43.0652C54.1868 43.1985 54.006 43.2734 53.8174 43.2734H49.059C48.8705 43.2734 48.6896 43.1985 48.5563 43.0652C48.423 42.9319 48.3481 42.7511 48.3481 42.5625V40.0291C47.6103 39.8116 46.8978 39.5161 46.2226 39.1476L44.4306 40.9391C44.3647 41.0052 44.2863 41.0576 44.2001 41.0934C44.1139 41.1291 44.0214 41.1475 43.9281 41.1475C43.8347 41.1475 43.7423 41.1291 43.6561 41.0934C43.5698 41.0576 43.4915 41.0052 43.4256 40.9391L40.0606 37.575C39.9274 37.4417 39.8525 37.2609 39.8525 37.0724C39.8525 36.884 39.9274 36.7032 40.0606 36.5699L41.8534 34.7775C41.4848 34.1024 41.1894 33.3899 40.9722 32.652H38.438C38.2495 32.652 38.0686 32.5771 37.9353 32.4438C37.802 32.3105 37.7271 32.1296 37.7271 31.9411V27.1831C37.7271 26.9945 37.802 26.8137 37.9353 26.6804C38.0686 26.5471 38.2495 26.4722 38.438 26.4722H40.9665C41.184 25.7333 41.4804 25.02 41.8505 24.3446L40.0606 22.5547C39.9273 22.4213 39.8525 22.2405 39.8525 22.052C39.8525 21.8634 39.9273 21.6826 40.0606 21.5492L43.4256 18.1843C43.4915 18.1182 43.5698 18.0658 43.6561 18.03C43.7423 17.9943 43.8347 17.9759 43.9281 17.9759C44.0214 17.9759 44.1139 17.9943 44.2001 18.03C44.2863 18.0658 44.3647 18.1182 44.4306 18.1843L46.2205 19.9717C46.8959 19.6016 47.6092 19.3052 48.3481 19.0878V16.5593C48.348 16.4659 48.3664 16.3734 48.4021 16.2871C48.4378 16.2008 48.4902 16.1225 48.5562 16.0564C48.6222 15.9904 48.7006 15.938 48.7869 15.9023C48.8732 15.8666 48.9656 15.8483 49.059 15.8483H53.817C53.9104 15.8483 54.0029 15.8666 54.0891 15.9023C54.1754 15.938 54.2538 15.9904 54.3198 16.0564C54.3859 16.1225 54.4382 16.2008 54.4739 16.2871C54.5097 16.3734 54.528 16.4659 54.528 16.5593V19.0922C55.2658 19.3099 55.9783 19.6055 56.6535 19.9742L58.4454 18.1822C58.5114 18.1161 58.5898 18.0637 58.676 18.028C58.7623 17.9922 58.8548 17.9738 58.9482 17.9738C59.0415 17.9738 59.134 17.9922 59.2203 18.028C59.3065 18.0637 59.3849 18.1161 59.4509 18.1822L62.8155 21.5464C62.8815 21.6124 62.9339 21.6907 62.9697 21.777C63.0055 21.8633 63.0239 21.9557 63.0239 22.0491C63.0239 22.1425 63.0055 22.235 62.9697 22.3212C62.9339 22.4075 62.8815 22.4859 62.8155 22.5518L61.0235 24.3442C61.3919 25.0193 61.6875 25.7317 61.905 26.4693H64.438C64.5314 26.4693 64.6239 26.4876 64.7101 26.5233C64.7964 26.559 64.8748 26.6114 64.9408 26.6774C65.0069 26.7434 65.0592 26.8218 65.0949 26.9081C65.1307 26.9944 65.149 27.0869 65.149 27.1803V31.9411C65.149 32.0345 65.1307 32.1269 65.0949 32.2132C65.0592 32.2995 65.0069 32.3779 64.9408 32.4439C64.8748 32.5099 64.7964 32.5623 64.7101 32.598C64.6239 32.6337 64.5314 32.6521 64.438 32.652ZM63.7271 27.8936H61.359C61.1994 27.8934 61.0445 27.8394 60.9192 27.7405C60.794 27.6415 60.7056 27.5033 60.6684 27.348C60.4371 26.3783 60.0531 25.4514 59.5309 24.6022C59.4474 24.4659 59.4121 24.3055 59.4308 24.1468C59.4495 23.988 59.5212 23.8402 59.6341 23.7271L61.3099 22.0513L58.9508 19.6927L57.2754 21.368C57.1623 21.4809 57.0145 21.5524 56.8558 21.5711C56.6971 21.5898 56.5367 21.5546 56.4004 21.4712C55.5509 20.9491 54.624 20.5651 53.6541 20.3337C53.4989 20.2965 53.3606 20.2082 53.2617 20.0829C53.1627 19.9576 53.1088 19.8027 53.1085 19.6431V17.2751H49.77V19.639C49.7697 19.7988 49.7157 19.9538 49.6166 20.0791C49.5174 20.2044 49.379 20.2927 49.2235 20.3297C48.2533 20.561 47.3263 20.9461 46.4777 21.4704C46.3416 21.5546 46.1809 21.5903 46.0219 21.5718C45.8629 21.5532 45.7149 21.4814 45.6018 21.368L43.9281 19.6943L41.569 22.0518L43.2427 23.7259C43.356 23.8391 43.4277 23.9872 43.4463 24.1462C43.4649 24.3053 43.4292 24.4659 43.3451 24.6022C42.8209 25.4506 42.436 26.3775 42.2048 27.3476C42.1678 27.5031 42.0795 27.6415 41.9542 27.7406C41.8289 27.8398 41.6739 27.8938 41.5141 27.894H39.149V31.2302H41.517C41.6767 31.2305 41.8316 31.2845 41.9568 31.3836C42.0821 31.4826 42.1704 31.6209 42.2076 31.7762C42.4389 32.7459 42.8228 33.6728 43.3451 34.522C43.4289 34.6581 43.4642 34.8185 43.4455 34.9773C43.4268 35.136 43.355 35.2837 43.2419 35.3967L41.569 37.0724L43.9281 39.4311L45.6035 37.7557C45.7163 37.6425 45.8641 37.5707 46.0228 37.552C46.1816 37.5332 46.342 37.5687 46.4781 37.6526C47.3275 38.1748 48.2545 38.5588 49.2244 38.7901C49.3796 38.8273 49.5178 38.9157 49.6167 39.0409C49.7157 39.1662 49.7696 39.3211 49.77 39.4807V41.8491H53.1065V39.4852C53.1067 39.3254 53.1608 39.1704 53.2599 39.0451C53.359 38.9198 53.4975 38.8315 53.6529 38.7945C54.623 38.5629 55.5499 38.1777 56.3983 37.6534C56.5345 37.5691 56.6952 37.5334 56.8543 37.552C57.0134 37.5706 57.1615 37.6424 57.2746 37.7557L58.9484 39.4311L61.3075 37.072L59.6333 35.3979C59.5201 35.2847 59.4485 35.1367 59.4299 34.9777C59.4113 34.8188 59.4469 34.6582 59.5309 34.522C60.0552 33.6736 60.4402 32.7467 60.6713 31.7766C60.7082 31.6211 60.7964 31.4825 60.9217 31.3833C61.047 31.2841 61.2021 31.23 61.3619 31.2298H63.7259L63.7271 27.8936Z" fill="black"/>
<path d="M51.4381 35.7157C50.2209 35.7157 49.031 35.3548 48.019 34.6786C47.0069 34.0023 46.2181 33.0412 45.7523 31.9166C45.2865 30.7921 45.1646 29.5546 45.4021 28.3608C45.6395 27.167 46.2257 26.0704 47.0864 25.2097C47.9471 24.349 49.0436 23.7629 50.2375 23.5254C51.4313 23.288 52.6687 23.4098 53.7932 23.8757C54.9178 24.3415 55.879 25.1303 56.5552 26.1423C57.2314 27.1544 57.5924 28.3443 57.5924 29.5615C57.5906 31.1931 56.9416 32.7574 55.7878 33.9112C54.6341 35.0649 53.0698 35.7139 51.4381 35.7157ZM51.4381 24.8282C50.5021 24.8282 49.5872 25.1058 48.8089 25.6258C48.0307 26.1458 47.4241 26.8849 47.0659 27.7496C46.7077 28.6144 46.614 29.5659 46.7966 30.4839C46.9792 31.4019 47.4299 32.2451 48.0918 32.907C48.7536 33.5688 49.5969 34.0195 50.5149 34.2021C51.4328 34.3847 52.3844 34.291 53.2491 33.9328C54.1138 33.5746 54.8529 32.9681 55.373 32.1898C55.893 31.4116 56.1705 30.4966 56.1705 29.5607C56.1689 28.3061 55.6698 27.1034 54.7826 26.2164C53.8954 25.3294 52.6926 24.8305 51.4381 24.8291V24.8282Z" fill="black"/>
<path d="M46.1635 57.5261C50.2942 56.3101 53.8615 53.672 56.2341 50.0788C55.665 49.5637 55.3053 48.8574 55.2232 48.0943C55.1411 47.3312 55.3424 46.5645 55.7888 45.9402C56.2353 45.3158 56.8956 44.8774 57.6443 44.7084C58.393 44.5393 59.1777 44.6514 59.8491 45.0233C60.5205 45.3952 61.0317 46.001 61.2855 46.7253C61.5393 47.4497 61.5179 48.242 61.2255 48.9517C60.933 49.6613 60.3898 50.2386 59.6994 50.5738C59.0089 50.9089 58.2193 50.9786 57.4808 50.7694C54.9249 54.6892 51.0544 57.5686 46.5653 58.8899C46.4752 58.9183 46.3803 58.9285 46.2862 58.9198C46.1921 58.9111 46.1007 58.8837 46.0173 58.8392C45.9339 58.7948 45.8602 58.7342 45.8005 58.6609C45.7408 58.5876 45.6964 58.5032 45.6697 58.4126C45.643 58.3219 45.6347 58.2269 45.6451 58.1329C45.6556 58.039 45.6847 57.9481 45.7308 57.8656C45.7768 57.7831 45.8388 57.7105 45.9132 57.6523C45.9875 57.594 46.0724 57.5511 46.1635 57.5261ZM60.0122 47.7692C60.0122 47.434 59.9128 47.1063 59.7265 46.8276C59.5403 46.5489 59.2756 46.3317 58.9659 46.2034C58.6562 46.0751 58.3154 46.0415 57.9867 46.1069C57.6579 46.1723 57.3559 46.3337 57.1188 46.5708C56.8818 46.8078 56.7204 47.1098 56.655 47.4386C56.5896 47.7674 56.6232 48.1081 56.7514 48.4178C56.8797 48.7275 57.097 48.9922 57.3757 49.1785C57.6544 49.3647 57.9821 49.4641 58.3173 49.4641C58.7667 49.4637 59.1975 49.285 59.5153 48.9672C59.833 48.6495 60.0118 48.2186 60.0122 47.7692Z" fill="black"/>
<path d="M35.8361 22.4725C31.7062 23.689 28.1397 26.327 25.7676 29.9199C26.3366 30.435 26.6964 31.1413 26.7785 31.9044C26.8606 32.6675 26.6592 33.4342 26.2128 34.0585C25.7664 34.6828 25.106 35.1212 24.3573 35.2903C23.6086 35.4593 22.8239 35.3473 22.1525 34.9753C21.4811 34.6034 20.9699 33.9977 20.7161 33.2733C20.4623 32.549 20.4837 31.7566 20.7762 31.047C21.0686 30.3374 21.6118 29.7601 22.3022 29.4249C22.9927 29.0897 23.7823 29.0201 24.5208 29.2293C27.0762 25.3098 30.9459 22.4304 35.4343 21.1087C35.4996 21.0894 35.5673 21.0797 35.6354 21.0799C35.8061 21.0803 35.971 21.1421 36.1 21.254C36.2289 21.366 36.3132 21.5206 36.3375 21.6896C36.3618 21.8586 36.3245 22.0308 36.2323 22.1745C36.1402 22.3183 35.9994 22.424 35.8357 22.4725H35.8361ZM21.9874 32.2294C21.9876 32.5646 22.0871 32.8922 22.2734 33.1708C22.4598 33.4494 22.7245 33.6665 23.0342 33.7947C23.344 33.9229 23.6847 33.9563 24.0134 33.8908C24.3422 33.8253 24.6441 33.6638 24.881 33.4268C25.118 33.1897 25.2793 32.8877 25.3446 32.559C25.41 32.2302 25.3764 31.8895 25.2481 31.5798C25.1198 31.2702 24.9025 31.0055 24.6238 30.8193C24.3451 30.6331 24.0175 30.5337 23.6823 30.5337C23.2328 30.5342 22.8018 30.713 22.484 31.0309C22.1662 31.3488 21.9876 31.7799 21.9874 32.2294Z" fill="black"/>
</svg>
