<svg width="82" height="82" viewBox="0 0 82 82" fill="none" xmlns="http://www.w3.org/2000/svg">
<path d="M59.8017 65.2946C58.7027 65.2946 57.7206 64.4913 56.7668 63.7113C56.1839 63.2341 55.385 62.5808 54.9993 62.5808C54.6142 62.5808 53.8152 63.2341 53.2324 63.7113C52.1875 64.5655 51.0023 65.5367 49.6975 65.2377C48.3509 64.9317 47.6917 63.5158 47.1099 62.2672C46.8196 61.6427 46.3798 60.6986 46.0672 60.5474C45.7357 60.3855 44.7065 60.6352 44.0257 60.7988C42.7002 61.1178 41.1987 61.4775 40.137 60.6308C39.0716 59.7799 39.0905 58.2302 39.1084 56.8636C39.1171 56.1664 39.1301 55.1134 38.9058 54.8318C38.6843 54.5544 37.6589 54.3351 36.9802 54.1899C35.638 53.9028 34.118 53.5773 33.5222 52.3423C32.935 51.1262 33.6203 49.7471 34.2237 48.5306C34.5373 47.9001 35.0107 46.9462 34.9278 46.5806C34.8531 46.2528 34.0373 45.6196 33.4978 45.2004C32.4053 44.3532 31.1665 43.3912 31.1665 42.0002C31.1665 40.6092 32.4053 39.6478 33.4984 38.7995C34.0379 38.3808 34.8536 37.7476 34.9284 37.4193C35.0113 37.0537 34.5378 36.0998 34.2248 35.4688C33.6208 34.2522 32.9361 32.8737 33.5238 31.6566C34.1197 30.4221 35.6396 30.0966 36.9813 29.8095C37.66 29.6643 38.6854 29.4449 38.9064 29.1681C39.1317 28.8859 39.1187 27.8324 39.11 27.1353C39.0927 25.7686 39.0738 24.2195 40.1387 23.3685C41.1998 22.5213 42.7024 22.8821 44.0273 23.2006C44.7093 23.3642 45.7373 23.6117 46.0683 23.4525C46.3814 23.3013 46.8207 22.3578 47.1115 21.7327C47.6928 20.4836 48.3514 19.0682 49.698 18.7622C51.0013 18.4664 52.1886 19.4338 53.2329 20.2886C53.8163 20.7658 54.6153 21.4191 55.0004 21.4191C55.3855 21.4191 56.1845 20.7658 56.7673 20.2891C57.8127 19.4338 58.9973 18.4643 60.3028 18.7622C61.6488 19.0682 62.308 20.4841 62.8898 21.7332C63.1806 22.3578 63.6199 23.3019 63.933 23.453C64.265 23.6128 65.2926 23.3647 65.9735 23.2011C67.2989 22.8826 68.801 22.5219 69.8626 23.3691C70.9281 24.22 70.9091 25.7692 70.8913 27.1363C70.8826 27.8335 70.8696 28.887 71.0938 29.1681C71.3154 29.4449 72.3408 29.6648 73.0195 29.81C74.3617 30.0971 75.8816 30.4221 76.4775 31.6571C77.0646 32.8737 76.3794 34.2528 75.776 35.4693C75.4624 36.1004 74.989 37.0537 75.0718 37.4193C75.1466 37.7476 75.9623 38.3808 76.5018 38.7995C77.5944 39.6478 78.8332 40.6092 78.8332 42.0002C78.8332 43.3912 77.5944 44.3527 76.5013 45.2009C75.9618 45.6196 75.146 46.2523 75.0713 46.5816C74.9884 46.9473 75.4618 47.9006 75.7749 48.5316C76.3789 49.7482 77.0635 51.1268 76.4758 52.3439C75.88 53.5783 74.3601 53.9039 73.0184 54.1904C72.3397 54.3361 71.3143 54.5555 71.0928 54.8323C70.868 55.1145 70.881 56.1681 70.8896 56.8652C70.907 58.2313 70.9259 59.7804 69.861 60.6314C68.7999 61.4786 67.2973 61.1173 65.9724 60.7993C65.2904 60.6357 64.2623 60.3871 63.9314 60.548C63.6183 60.6986 63.179 61.6427 62.8881 62.2672C62.3069 63.5168 61.6483 64.9322 60.3017 65.2383C60.1327 65.2767 59.9658 65.2946 59.8017 65.2946ZM45.7319 58.3315C46.181 58.3315 46.6116 58.4041 47.0086 58.5953C48.0178 59.0817 48.5551 60.236 49.0745 61.3523C49.3318 61.9048 49.867 63.0543 50.1774 63.1247C50.4661 63.1756 51.4086 62.4026 51.8603 62.0332C52.8343 61.237 53.8407 60.4136 54.9993 60.4136C56.1579 60.4136 57.1649 61.2375 58.1383 62.0332C58.59 62.4026 59.5043 63.1604 59.8223 63.1247C60.1316 63.0537 60.6673 61.9048 60.924 61.3523C61.443 60.236 61.9803 59.0828 62.99 58.5953C64.017 58.0996 65.2671 58.4013 66.4778 58.6922C67.06 58.832 68.2739 59.1239 68.5079 58.9376C68.7457 58.748 68.73 57.4941 68.7224 56.8917C68.7067 55.6502 68.6905 54.367 69.399 53.4798C70.1031 52.5979 71.3538 52.3303 72.5639 52.0714C73.1565 51.9447 74.3888 51.6809 74.5237 51.4019C74.6493 51.1403 74.0979 50.0288 73.833 49.4947C73.2778 48.3762 72.7031 47.2192 72.9577 46.1012C73.2042 45.0168 74.2046 44.24 75.1715 43.4893C75.6948 43.0841 76.6665 42.3301 76.6665 42.0002C76.6665 41.6703 75.6948 40.9163 75.1726 40.5106C74.2052 39.7599 73.2047 38.9837 72.9583 37.8987C72.7042 36.7807 73.2789 35.6237 73.8341 34.5052C74.099 33.9711 74.651 32.8601 74.5248 32.598C74.3899 32.3185 73.1576 32.0552 72.5655 31.9285C71.3555 31.6696 70.1042 31.402 69.4 30.5207C68.6921 29.634 68.7083 28.3502 68.724 27.1093C68.7316 26.5069 68.7473 25.2524 68.5095 25.0628C68.2766 24.8765 67.0622 25.1685 66.4788 25.3082C65.2688 25.5991 64.0186 25.9003 62.991 25.4046C61.9819 24.9177 61.4446 23.7639 60.9251 22.6481C60.6678 22.0956 60.1332 20.9462 59.8223 20.8758C59.5244 20.8243 58.5905 21.5978 58.1388 21.9667C57.1654 22.7635 56.159 23.5868 55.0004 23.5868C53.8418 23.5868 52.8353 22.7629 51.8614 21.9667C51.4097 21.5973 50.4672 20.8276 50.1774 20.8752C49.8675 20.9456 49.3318 22.0951 49.0751 22.6476C48.5556 23.7634 48.0188 24.9171 47.0097 25.4041C45.9827 25.8992 44.7325 25.5991 43.5214 25.3077C42.9391 25.1674 41.7241 24.876 41.4912 25.0618C41.2534 25.2519 41.2691 26.5058 41.2767 27.1082C41.2924 28.3497 41.3087 29.6334 40.6002 30.5196C39.896 31.4014 38.6453 31.669 37.4352 31.9279C36.8426 32.0547 35.6103 32.3185 35.4755 32.5974C35.3498 32.8591 35.9012 33.9706 36.1661 34.5046C36.7213 35.6232 37.296 36.7802 37.0414 37.8982C36.795 38.9826 35.7945 39.7593 34.8276 40.5101C34.3049 40.9163 33.3332 41.6703 33.3332 42.0002C33.3332 42.3301 34.3049 43.0846 34.8271 43.4898C35.7945 44.2406 36.795 45.0162 37.0414 46.1012C37.2955 47.2192 36.7208 48.3756 36.1655 49.4947C35.9007 50.0288 35.3487 51.1398 35.4749 51.4019C35.6098 51.682 36.8421 51.9452 37.4347 52.072C38.6442 52.3309 39.8955 52.5985 40.5996 53.4803C41.3076 54.367 41.2913 55.6502 41.2756 56.8917C41.268 57.4941 41.2523 58.7486 41.4901 58.9381C41.723 59.1218 42.9375 58.8325 43.5208 58.6922C44.2624 58.5135 45.0202 58.3315 45.7319 58.3315ZM48.1824 50.3495L63.3491 35.1828C63.7721 34.7598 63.7721 34.074 63.3491 33.651C62.926 33.2279 62.2403 33.2279 61.8173 33.651L46.6506 48.8176C46.2275 49.2407 46.2275 49.9264 46.6506 50.3495C46.8624 50.5613 47.1392 50.6669 47.4165 50.6669C47.6938 50.6669 47.9706 50.5613 48.1824 50.3495ZM49.5832 40.3752C47.4929 40.3752 45.7915 38.6744 45.7915 36.5836C45.7915 34.4927 47.4929 32.7919 49.5832 32.7919C51.6735 32.7919 53.3748 34.4927 53.3748 36.5836C53.3748 38.6744 51.6735 40.3752 49.5832 40.3752ZM49.5832 34.9586C48.6873 34.9586 47.9582 35.6876 47.9582 36.5836C47.9582 37.4795 48.6873 38.2086 49.5832 38.2086C50.4791 38.2086 51.2082 37.4795 51.2082 36.5836C51.2082 35.6876 50.4791 34.9586 49.5832 34.9586ZM60.4165 51.2086C58.3262 51.2086 56.6248 49.5072 56.6248 47.4169C56.6248 45.3266 58.3262 43.6252 60.4165 43.6252C62.5068 43.6252 64.2082 45.3266 64.2082 47.4169C64.2082 49.5072 62.5068 51.2086 60.4165 51.2086ZM60.4165 45.7919C59.5206 45.7919 58.7915 46.521 58.7915 47.4169C58.7915 48.3128 59.5206 49.0419 60.4165 49.0419C61.3124 49.0419 62.0415 48.3128 62.0415 47.4169C62.0415 46.521 61.3124 45.7919 60.4165 45.7919Z" fill="black"/>
<circle cx="41" cy="41" r="41" fill="#96BF47"/>
<path d="M43.9244 55.9707H38.9482C38.6892 55.9707 38.4408 56.0736 38.2577 56.2567C38.0746 56.4399 37.9717 56.6883 37.9717 56.9473C37.9717 57.2063 38.0746 57.4547 38.2577 57.6378C38.4408 57.8209 38.6892 57.9238 38.9482 57.9238H43.9244C44.1834 57.9238 44.4318 57.8209 44.6149 57.6378C44.7981 57.4547 44.901 57.2063 44.901 56.9473C44.901 56.6883 44.7981 56.4399 44.6149 56.2567C44.4318 56.0736 44.1834 55.9707 43.9244 55.9707Z" fill="black"/>
<path d="M60.9122 28.625C58.9432 28.625 57.2411 29.1761 55.9903 30.2185C55.875 30.3146 55.7572 30.4212 55.6388 30.5375V15.5391C55.6368 14.8663 55.3687 14.2216 54.8929 13.7458C54.4172 13.2701 53.7725 13.002 53.0997 13H29.6622C28.9894 13.002 28.3447 13.2701 27.869 13.7458C27.3933 14.2216 27.1251 14.8663 27.1232 15.5391V18.1367L27.0022 18.0157C26.2329 17.2465 25.1896 16.8143 24.1018 16.8143C23.0139 16.8143 21.9706 17.2465 21.2014 18.0157C20.4321 18.785 20 19.8283 20 20.9161C20 22.004 20.4321 23.0473 21.2014 23.8165L25.4274 28.0425C24.7434 28.242 24.1231 28.6161 23.6276 29.1281C23.1321 29.6401 22.7785 30.2722 22.6015 30.9624C22.4246 31.6526 22.4303 32.3769 22.6183 33.0641C22.8063 33.7514 23.17 34.3778 23.6735 34.8818L26.0775 37.2857C25.3142 37.3786 24.5924 37.6842 23.9945 38.1676C23.3966 38.651 22.9466 39.2928 22.696 40.0197C22.4453 40.7466 22.4041 41.5293 22.5769 42.2785C22.7498 43.0277 23.1298 43.7132 23.6735 44.2568L25.296 45.8796C24.5328 45.9725 23.811 46.2781 23.2131 46.7615C22.6152 47.2449 22.1652 47.8867 21.9145 48.6136C21.6639 49.3404 21.6226 50.1231 21.7955 50.8724C21.9683 51.6216 22.3483 52.3071 22.8921 52.8507L27.1232 57.082V59.2891C27.1239 59.9622 27.3917 60.6076 27.8677 61.0836C28.3437 61.5596 28.9891 61.8274 29.6622 61.8281H48.4122C48.6712 61.8281 48.9196 61.7252 49.1028 61.5421C49.2859 61.359 49.3888 61.1106 49.3888 60.8516V51.4766C49.3907 50.6582 49.5822 49.8515 49.9482 49.1195C50.3141 48.3876 50.8447 47.7504 51.4982 47.2578L55.2482 44.4453C55.3689 44.3538 55.4669 44.2357 55.5346 44.1003C55.6024 43.9648 55.638 43.8155 55.6388 43.6641V35.8516C55.6388 31.9622 58.0128 30.8774 59.9357 30.6367V60.8516C59.9357 61.1106 60.0385 61.359 60.2217 61.5421C60.4048 61.7252 60.6532 61.8281 60.9122 61.8281C61.1712 61.8281 61.4196 61.7252 61.6028 61.5421C61.7859 61.359 61.8888 61.1106 61.8888 60.8516V29.6016C61.8888 29.3426 61.7859 29.0942 61.6028 28.911C61.4196 28.7279 61.1712 28.625 60.9122 28.625ZM29.6622 14.9531H53.0997C53.2551 14.9533 53.404 15.0151 53.5139 15.1249C53.6237 15.2348 53.6855 15.3837 53.6857 15.5391V18.4645H29.0763V15.5391C29.0764 15.3837 29.1382 15.2348 29.2481 15.1249C29.3579 15.0151 29.5069 14.9533 29.6622 14.9531ZM21.9527 20.916C21.9332 19.0242 24.2976 18.0464 25.6211 19.3966L27.1232 20.8987V26.9764L22.5821 22.4354C22.382 22.2363 22.2233 21.9995 22.1152 21.7387C22.0072 21.4779 21.952 21.1983 21.9527 20.916ZM25.0544 30.4625C25.8542 29.629 27.2931 29.629 28.0928 30.4625L32.5122 34.8819C34.4529 36.9662 31.5501 39.8617 29.4738 37.9203L25.0544 33.5009C24.6521 33.0976 24.4262 32.5513 24.4262 31.9817C24.4262 31.4121 24.6521 30.8658 25.0544 30.4625ZM33.8933 33.5009L32.8319 32.4394C33.0338 30.4978 33.9056 28.6871 35.2974 27.3184C36.6892 25.9496 38.5142 25.1082 40.4588 24.9387C42.4035 24.7692 44.3466 25.2821 45.9542 26.3894C47.5618 27.4966 48.7338 29.1291 49.2687 31.0065C49.8036 32.8838 49.6681 34.8888 48.8855 36.6771C48.1029 38.4654 46.722 39.9254 44.98 40.8063C43.238 41.6873 41.2436 41.9341 39.3394 41.5045C37.4352 41.0749 35.74 39.9956 34.545 38.4521C34.9953 37.6698 35.1755 36.761 35.0577 35.8661C34.9399 34.9712 34.5307 34.14 33.8933 33.5009ZM25.0544 39.8375C25.8542 39.004 27.2931 39.004 28.0928 39.8375L32.5122 44.2569C34.4529 46.3412 31.5501 49.2367 29.4738 47.2953L25.0544 42.8759C24.6521 42.4726 24.4262 41.9263 24.4262 41.3567C24.4262 40.7871 24.6521 40.2408 25.0544 39.8375ZM24.2732 48.4313C25.073 47.5978 26.5118 47.5978 27.3115 48.4313L31.731 52.8507C33.6717 54.935 30.7689 57.8305 28.6926 55.8891L24.2732 51.4696C23.8709 51.0664 23.645 50.52 23.645 49.9504C23.645 49.3808 23.8709 48.8345 24.2732 48.4313ZM29.0763 59.2891V58.3125C29.4455 58.4184 29.8277 58.472 30.2117 58.472C30.7798 58.4722 31.3418 58.3543 31.8619 58.1257C32.382 57.8971 32.8489 57.5629 33.233 57.1443C33.617 56.7256 33.9098 56.2317 34.0927 55.6939C34.2757 55.156 34.3448 54.586 34.2957 54.02H47.4357V59.875H29.6622C29.5069 59.8748 29.3579 59.8131 29.2481 59.7032C29.1382 59.5934 29.0764 59.4444 29.0763 59.2891ZM50.3263 45.6953C49.4307 46.3703 48.7037 47.2435 48.2022 48.2466C47.7007 49.2496 47.4383 50.3551 47.4357 51.4766V52.0664H33.6047C33.4597 51.8524 33.2947 51.6526 33.112 51.4696L31.4894 49.847C32.2526 49.7541 32.9744 49.4485 33.5723 48.9651C34.1702 48.4817 34.6202 47.8399 34.8708 47.113C35.1215 46.3861 35.1628 45.6034 34.9899 44.8542C34.8171 44.105 34.4371 43.4195 33.8933 42.8759L31.4894 40.472C32.0902 40.4005 32.6675 40.1955 33.1788 39.8721C34.6548 41.6714 36.6942 42.9207 38.9677 43.4182C41.2411 43.9157 43.6159 43.6323 45.7085 42.6138C47.801 41.5953 49.4892 39.9012 50.5003 37.805C51.5114 35.7089 51.7864 33.3331 51.2809 31.0614C50.7754 28.7897 49.5189 26.7547 47.7143 25.2851C45.9098 23.8155 43.6625 22.9971 41.3355 22.9621C39.0086 22.927 36.7377 23.6774 34.8897 25.092C33.0417 26.5065 31.7245 28.5028 31.1508 30.7582C31.1508 30.7582 29.2148 28.8398 29.0763 28.7324V20.4176H53.6857V43.1758L50.3263 45.6953Z" fill="black"/>
<path d="M40.3068 34.2891H41.967C42.3339 34.302 42.6815 34.4568 42.9365 34.721C43.1915 34.9851 43.334 35.3379 43.334 35.7051C43.334 36.0722 43.1915 36.425 42.9365 36.6892C42.6815 36.9533 42.3339 37.1082 41.967 37.1211H39.5052C39.1641 37.1289 38.9192 36.7977 38.9692 36.472C38.9739 36.213 38.8754 35.9627 38.6956 35.7763C38.5157 35.5899 38.2692 35.4826 38.0101 35.4779C37.7511 35.4733 37.5009 35.5717 37.3145 35.7516C37.1281 35.9315 37.0207 36.178 37.0161 36.437L37.0143 36.5382C37.0083 36.8691 37.0683 37.1978 37.1908 37.5052C37.3133 37.8127 37.4958 38.0926 37.7277 38.3287C37.9596 38.5648 38.2363 38.7523 38.5414 38.8803C38.8466 39.0083 39.1742 39.0742 39.5052 39.0742H40.2092V39.6602C40.2092 39.9192 40.3121 40.1675 40.4952 40.3507C40.6783 40.5338 40.9267 40.6367 41.1857 40.6367C41.4447 40.6367 41.6931 40.5338 41.8763 40.3507C42.0594 40.1675 42.1623 39.9192 42.1623 39.6602V39.0681C43.0285 39.005 43.8368 38.61 44.4189 37.9654C45.001 37.3209 45.3118 36.4766 45.2866 35.6085C45.2615 34.7404 44.9022 33.9156 44.2837 33.3059C43.6653 32.6962 42.8353 32.3487 41.967 32.3359H40.3068C39.9442 32.3359 39.5965 32.1919 39.3401 31.9355C39.0837 31.6791 38.9396 31.3314 38.9396 30.9688C38.9396 30.6061 39.0837 30.2584 39.3401 30.002C39.5965 29.7456 39.9442 29.6016 40.3068 29.6016H42.7298C43.0737 29.6303 43.2528 29.8173 43.2669 30.1625C43.2614 30.2906 43.2811 30.4186 43.3251 30.5391C43.369 30.6596 43.4363 30.7702 43.523 30.8647C43.6981 31.0556 43.9418 31.169 44.2006 31.1802C44.4593 31.1913 44.7119 31.0992 44.9028 30.9241C45.0936 30.749 45.2071 30.5053 45.2183 30.2465C45.2327 29.9107 45.179 29.5754 45.0605 29.2609C44.9419 28.9464 44.761 28.6591 44.5285 28.4164C44.296 28.1736 44.0168 27.9805 43.7076 27.8485C43.3985 27.7165 43.0659 27.6485 42.7298 27.6484H42.1623V27.0625C42.1623 26.8035 42.0594 26.5551 41.8763 26.372C41.6931 26.1888 41.4447 26.0859 41.1857 26.0859C40.9267 26.0859 40.6783 26.1888 40.4952 26.372C40.3121 26.5551 40.2092 26.8035 40.2092 27.0625V27.6509C39.3377 27.6768 38.5114 28.0444 37.9088 28.6745C37.3061 29.3045 36.9755 30.1463 36.9883 31.0181C37.0011 31.8898 37.3564 32.7215 37.9773 33.3336C38.5982 33.9456 39.435 34.2888 40.3068 34.2891Z" fill="black"/>
</svg>
