<svg width="82" height="82" viewBox="0 0 82 82" fill="none" xmlns="http://www.w3.org/2000/svg">
<circle cx="41" cy="41" r="41" fill="#96BF47"/>
<path d="M66.958 29.4649L48.1455 19.1349C47.8178 18.955 47.4205 18.955 47.0928 19.1349L40.0184 23.0194C39.8586 23.0639 39.7095 23.1455 39.5831 23.2583L28.2803 29.4649C27.9304 29.6571 27.7129 30.0246 27.7129 30.4236V32.6598H15.0938C14.4896 32.6598 14 33.1499 14 33.7536C14 34.3577 14.4896 34.8473 15.0938 34.8473H27.7129V38.7848H21.4422C20.8381 38.7848 20.3484 39.2749 20.3484 39.8786C20.3484 40.4827 20.8381 40.9723 21.4422 40.9723H27.7129V46.6598H18.5254C17.9213 46.6598 17.4316 47.1499 17.4316 47.7536C17.4316 48.3577 17.9213 48.8473 18.5254 48.8473H27.7129V51.0839C27.7129 51.483 27.9304 51.8504 28.2803 52.0427L47.0928 62.3726C47.2568 62.4628 47.438 62.5076 47.6191 62.5076C47.8003 62.5076 47.9814 62.4628 48.1455 62.3726L66.958 52.0427C67.3079 51.8504 67.5254 51.483 67.5254 51.0839V46.186C67.5254 45.5823 67.0358 45.0922 66.4316 45.0922C65.8275 45.0922 65.3379 45.5823 65.3379 46.186V50.4367L48.7129 59.5656V41.4008L54.0001 38.4977V43.1051C54.0001 43.4922 54.2043 43.8502 54.5371 44.0468C54.7084 44.148 54.9011 44.1989 55.0938 44.1989C55.275 44.1989 55.4565 44.154 55.621 44.0634L59.6525 41.8447C60.0016 41.6525 60.2186 41.2855 60.2186 40.8864V35.0831L65.3379 32.2723V37.436C65.3379 38.0401 65.8275 38.5297 66.4316 38.5297C67.0358 38.5297 67.5254 38.0401 67.5254 37.436V30.4236C67.5254 30.0246 67.3079 29.6571 66.958 29.4649ZM46.5254 59.5656L29.9004 50.4367V32.2723L46.5254 41.4008V59.5656ZM47.6191 39.506L31.0792 30.4236L36.2775 27.5692L52.8179 36.6516L47.6191 39.506ZM55.0904 35.4036L38.55 26.3212L40.3431 25.3368L56.8831 34.4192L55.0904 35.4036ZM58.0311 40.24L56.1876 41.2547V37.2967L58.0311 36.2841V40.24ZM59.1556 33.1712L42.6157 24.0888L47.6191 21.3416L64.1591 30.4236L59.1556 33.1712Z" fill="black"/>
<path d="M18.1611 39.8789C18.1611 39.5914 18.0441 39.3094 17.8403 39.106C17.6369 38.9022 17.3549 38.7852 17.0674 38.7852C16.7794 38.7852 16.4974 38.9022 16.2941 39.106C16.0894 39.3094 15.9736 39.5914 15.9736 39.8789C15.9736 40.1669 16.0894 40.4489 16.2941 40.6522C16.4974 40.8556 16.7794 40.9727 17.0674 40.9727C17.3549 40.9727 17.6369 40.856 17.8403 40.6522C18.0441 40.4489 18.1611 40.1669 18.1611 39.8789Z" fill="black"/>
</svg>
