<svg width="82" height="82" viewBox="0 0 82 82" fill="none" xmlns="http://www.w3.org/2000/svg">
<circle cx="41" cy="41" r="41" fill="#96BF47"/>
<g clip-path="url(#clip0_636_1444)">
<path d="M63.5373 41.1917L56.0485 23.2676L48.8226 26.2867C48.9133 25.4344 48.9133 24.2286 48.4509 23.3582C47.4173 21.4271 45.0057 20.6927 43.0745 21.7263C41.1434 22.7598 40.409 25.1715 41.4426 27.1026C41.8052 27.7826 42.3492 28.3356 43.0201 28.7074L35.2956 31.9259C35.1233 31.3819 34.8604 30.8652 34.525 30.4028C34.6247 30.3484 34.7063 30.2849 34.7879 30.2033C34.9783 30.0129 35.0961 29.7591 35.0961 29.4871L35.0599 26.4952H35.6764C35.8214 26.4952 35.9574 26.4317 36.0572 26.332C36.166 26.2323 36.2204 26.0872 36.2204 25.9421L36.1116 18L35.0236 18.0181L35.1233 25.4072L20.59 25.516L20.4902 18L19.4023 18.0181L19.502 26.0781C19.5111 26.3773 19.7468 26.604 20.046 26.613H20.6806C20.6806 26.6402 20.7169 29.6049 20.7169 29.6049C20.726 29.9313 20.8892 30.2305 21.1521 30.4209L20.7532 31.0556C20.599 31.3003 20.3905 31.9078 20.3905 31.9078H20.3814L18.7948 37.8281L19.2119 39.1155L18.6226 39.3785C18.0786 39.6233 17.6434 40.0675 17.4349 40.6296C17.2263 41.1917 17.2445 41.8083 17.4893 42.3522L25.5493 60.358L33.1015 56.9763C33.3735 56.8584 33.5639 56.6045 33.5911 56.3054C33.6183 56.0062 33.4823 55.716 33.2375 55.5529C32.2674 54.8729 31.5965 54.1385 31.3971 53.5401C30.8893 52.0351 31.6962 50.3941 33.2103 49.8864C34.7153 49.3787 36.3564 50.1856 36.8641 51.6997C37.1089 52.4159 37.0545 53.2047 36.719 53.8846C36.5739 54.1748 36.6283 54.5193 36.855 54.7459C37.0726 54.9817 37.4171 55.0542 37.7072 54.9182L43.9812 52.1076C44.2804 51.9807 44.5342 51.7631 44.7155 51.4911L45.6675 51.1013C45.7763 51.9988 46.1118 52.8511 46.6467 53.5855C46.5469 53.6399 46.4653 53.7124 46.3837 53.794C46.1843 53.9844 46.0755 54.2473 46.0755 54.5193L46.1208 57.5021H45.5043C45.3593 57.5021 45.2233 57.5656 45.1235 57.6653C45.0147 57.765 44.9603 57.9101 44.9694 58.0552L45.0691 64.9003H46.1571L46.0574 58.5991L60.5907 58.4813L60.6905 64.9093H61.7784L61.6787 57.9373C61.6696 57.6381 61.4339 57.4024 61.1347 57.3933H60.5001C60.5001 57.3752 60.5091 57.348 60.5091 57.3299L60.4638 54.4105C60.4638 54.0841 60.3006 53.7758 60.0286 53.5945C60.2371 53.2591 60.4003 53.0052 60.4275 52.9508C60.5817 52.7151 60.6995 52.4522 60.7721 52.1711L60.7902 52.1076H60.7993L62.3859 46.1782L61.8056 44.3468L62.3315 44.1292C63.4738 43.6578 64.0178 42.3613 63.5464 41.2189C63.5464 41.2099 63.5373 41.2008 63.5373 41.1917ZM25.5583 36.2778L25.4677 36.4319C24.8511 37.5199 23.736 38.0004 23.7269 38.0004L23.328 38.1636C23.328 38.1636 23.9536 41.9443 24.1258 43.0413C24.2256 43.6941 24.1077 44.365 23.7813 44.9361C23.5456 45.2716 23.1648 45.4711 22.7568 45.4711C22.4758 45.462 22.3579 45.3169 22.3126 45.2353L20.5446 39.7139L20.2092 38.6713L19.9281 37.8009L21.4603 32.0982C21.5057 31.935 21.5782 31.7809 21.6689 31.6358C21.6689 31.6358 21.9499 31.1825 22.2672 30.6929L33.2919 30.6022C33.7634 31.1009 34.1079 31.7083 34.2983 32.3702L25.5583 36.2778ZM33.8087 29.5233H33.7906V29.5052L22.0315 29.5959C21.9499 29.6049 21.8774 29.5777 21.8139 29.5324V29.4236L21.7777 26.6856C21.8411 26.6493 21.9136 26.6221 21.9862 26.6221L33.7634 26.5314C33.845 26.5224 33.9175 26.5496 33.981 26.5949L34.0263 29.4599C33.9628 29.4961 33.8812 29.5233 33.8087 29.5233ZM43.5369 51.1103L37.9792 53.6036C38.5142 51.473 37.2267 49.3152 35.0961 48.7803C32.9655 48.2454 30.8077 49.5328 30.2728 51.6634C30.0824 52.3978 30.1187 53.1775 30.3544 53.8937C30.6627 54.7913 31.4877 55.5891 32.2402 56.1694L26.0842 58.9255L18.4684 41.908C18.3415 41.6269 18.3324 41.3096 18.4503 41.0195C18.5591 40.7294 18.7767 40.5027 19.0577 40.3758L19.5383 40.1582L21.3153 45.6977C21.5873 46.2145 22.1131 46.55 22.7024 46.559C22.7024 46.559 24.1168 46.5862 24.697 45.5073V45.4892C25.1503 44.6914 25.3226 43.7666 25.1775 42.86C25.0415 41.9896 24.6698 39.7139 24.5157 38.7982C25.241 38.3993 25.8575 37.8191 26.3108 37.13L35.5132 33.0048C35.5132 33.0048 35.767 32.8598 35.9665 32.9051C36.0844 32.9504 36.1932 33.0864 36.2476 33.2043L39.0944 39.7139C39.2123 40.0131 39.5115 40.1944 39.8288 40.1763C40.1461 40.1582 40.4181 39.9406 40.5178 39.6414C40.7626 38.8164 41.361 38.1545 42.1588 37.8281C43.5732 37.1935 45.2414 37.8191 45.876 39.2334C46.4653 40.539 45.9848 42.0712 44.7518 42.8056C43.963 43.2498 42.5849 43.141 42.0319 43.0775C41.7418 43.0413 41.4517 43.1682 41.2703 43.4039C41.2703 43.413 41.0074 43.7122 41.1797 44.229L43.8724 50.2309C43.9721 50.4576 43.9358 50.7295 43.7817 50.9199C43.7273 51.0015 43.6366 51.0741 43.5369 51.1103ZM59.3758 54.5646L59.4212 57.3027C59.3577 57.348 59.2852 57.3752 59.2036 57.3661L47.4264 57.4568C47.3448 57.4659 47.2723 57.4387 47.2088 57.3933L47.1635 54.5737L59.3758 54.5646ZM59.7204 51.89C59.675 52.0532 59.6025 52.2074 59.5118 52.3524V52.3706C59.5118 52.3706 59.2398 52.8148 58.9225 53.3044L58.8137 53.4767H47.9794L47.8888 53.386C47.1907 52.6426 46.7736 51.6725 46.7192 50.648L54.5707 47.375C54.3984 47.6833 54.2352 48.0096 54.0811 48.336L55.0693 48.7984C55.2688 48.3723 55.4864 47.9552 55.713 47.5563C55.9397 47.1574 56.2479 46.8129 56.6015 46.5228C56.8645 46.3052 57.1455 46.1329 57.4538 45.9878L57.8527 45.8246L57.7892 45.3985C57.7802 45.3895 57.753 45.19 57.6986 44.8908C57.5354 43.9116 57.1908 41.7901 57.0549 40.956C56.9551 40.3032 57.073 39.6323 57.3994 39.0611C57.6351 38.7257 58.0159 38.5172 58.4239 38.5172C58.7049 38.5262 58.8228 38.6713 58.8681 38.762L60.4638 43.7303L60.7993 44.773L61.2526 46.1964L59.7204 51.89ZM62.54 42.4973C62.4221 42.7784 62.1955 43.005 61.9144 43.1229L61.4702 43.3133L59.8564 38.2905C59.5844 37.7737 59.0585 37.4473 58.4783 37.4292C57.0821 37.4655 56.4746 38.49 56.4746 38.49C56.0213 39.2878 55.849 40.2126 55.9941 41.1192C56.1301 41.9986 56.5018 44.2652 56.6559 45.1809C56.4474 45.2988 56.2479 45.4348 56.0576 45.5799L44.9966 50.2037C44.9694 50.0586 42.4489 44.3831 42.4489 44.3831C43.3465 44.4466 44.3801 44.4012 45.1507 43.9932L45.4952 43.7847C45.9123 43.5037 46.275 43.1501 46.556 42.733L46.6739 42.5517C46.8824 42.2072 47.0365 41.8355 47.1363 41.4456C47.1453 41.4275 47.1453 41.4093 47.1453 41.3912H47.1544C47.2541 41.0376 47.2995 40.675 47.2995 40.3032C47.2995 39.9043 47.236 39.4963 47.1181 39.1155C46.4653 37.0212 44.235 35.8607 42.1407 36.5135C41.1343 36.8308 40.2912 37.538 39.8016 38.4809L39.1579 37.0394C38.9493 36.5226 37.5622 33.4763 37.2539 32.7691C37.1814 32.6331 37.0998 32.4971 37.0001 32.3792L44.1716 29.4236C44.4707 29.2967 44.6521 28.9975 44.6339 28.6802C44.6249 28.3628 44.4073 28.0909 44.1081 28.0002C42.5849 27.5378 41.7236 25.9331 42.186 24.4008C42.2314 24.2558 42.2858 24.1198 42.3492 23.9838C42.7028 23.2404 43.3556 22.6782 44.1534 22.4606C45.459 22.0889 46.8461 22.6692 47.4898 23.8659C47.916 24.6638 47.7709 26.0328 47.6893 26.5858C47.653 26.885 47.7709 27.1752 48.0066 27.3565C48.2424 27.5378 48.5506 27.5831 48.8226 27.4653L55.4592 24.691L62.5309 41.6088C62.6579 41.8899 62.6579 42.2162 62.54 42.4973Z" fill="black"/>
<path d="M29.4648 60.6036L28.498 61.1025L29.7537 63.5356L30.7204 63.0366L29.4648 60.6036Z" fill="black"/>
<path d="M21.9059 60.6471L20.6502 63.0801L21.617 63.579L22.8726 61.146L21.9059 60.6471Z" fill="black"/>
<path d="M25.1533 62.2052L25.0864 64.9424L26.174 64.969L26.2409 62.2317L25.1533 62.2052Z" fill="black"/>
<path d="M52.4668 19.5362L51.5 20.0352L52.7557 22.4682L53.7224 21.9692L52.4668 19.5362Z" fill="black"/>
<path d="M60.6067 19.5719L59.351 22.0049L60.3178 22.5038L61.5735 20.0708L60.6067 19.5719Z" fill="black"/>
<path d="M55.9857 18.1182L55.9188 20.8555L57.0065 20.8821L57.0734 18.1448L55.9857 18.1182Z" fill="black"/>
</g>
<defs>
<clipPath id="clip0_636_1444">
<rect width="47" height="47" fill="white" transform="translate(17 18)"/>
</clipPath>
</defs>
</svg>
