<svg width="552" height="163" viewBox="0 0 552 163" fill="none" xmlns="http://www.w3.org/2000/svg">
<path opacity="0.5" d="M52.7914 23.744C73.6114 23.5516 89.2598 38.3595 89.4483 58.7603C89.6382 79.3008 74.2661 94.3955 53.4461 94.5879L38.7743 94.7235L39.0236 121.692L12.0554 121.941L11.1514 24.1288L52.7914 23.744ZM50.0154 71.1427C57.1417 71.0768 61.7076 66.1436 61.6431 59.157C61.5785 52.1704 56.9222 47.3224 49.7958 47.3883L38.3379 47.4942L38.5574 71.2486L50.0154 71.1427ZM160.675 45.1059L180.098 44.9264L180.795 120.381L160.674 120.567L158.389 115.278C152.288 120.365 144.488 123.232 135.685 123.314C112.63 123.527 95.9864 106.911 95.7694 83.4365C95.5538 60.1013 111.888 43.3209 134.944 43.1078C143.887 43.0252 151.879 45.8859 158.075 50.9992L160.675 45.1059ZM138.967 100.365C148.748 100.275 155.806 92.8034 155.714 82.8825C155.624 73.1013 148.43 65.9011 138.649 65.9915C128.868 66.0819 121.809 73.4138 121.899 83.195C121.991 93.1159 129.186 100.456 138.967 100.365ZM238.697 44.1054L245.683 44.0408L245.903 67.7952L235.702 67.8894C226.62 67.9734 222.745 72.0617 222.834 81.7032L223.188 119.99L197.198 120.23L196.5 44.7748L213.967 44.6134L218.096 52.9598C223.349 46.7626 229.754 44.188 238.697 44.1054ZM298.107 96.6588L308.028 96.5672L308.237 119.204L290.352 119.369C273.723 119.523 263.429 109.417 263.274 92.6487L263.012 64.2832L249.178 64.411L249.121 58.2629L282.605 22.0393L288.054 21.989L288.257 43.9268L307.121 43.7525L307.307 63.8738L289.002 64.043L289.224 88.0768C289.273 93.3866 292.658 96.7092 298.107 96.6588ZM365.254 41.1191C382.72 40.9577 394.433 53.2866 394.61 72.4298L395.034 118.402L369.044 118.642L368.653 76.303C368.572 67.5 365.178 63.1993 358.611 63.26C350.506 63.3349 345.947 68.9667 346.036 78.6082L346.408 118.851L320.418 119.091L319.721 43.6361L338.025 43.4669L341.591 51.2596C347.122 44.92 355.472 41.2095 365.254 41.1191ZM487.815 79.1146C487.837 81.49 487.718 83.727 487.46 86.1051L431.428 86.6229C433.185 95.2708 438.676 99.6918 446.92 99.6156C452.928 99.5601 458.074 96.8574 460.408 92.364L486.398 92.1239C481.247 109.36 465.976 120.261 447.112 120.436C423.497 120.654 406.012 103.627 405.799 80.5713C405.586 57.5156 422.615 40.3095 446.37 40.09C470.683 39.8653 487.611 57.037 487.815 79.1146ZM446.558 60.4908C439.013 60.5605 433.74 64.6618 431.714 72.2267L462.176 71.9452C459.87 64.4203 454.383 60.4185 446.558 60.4908ZM541.494 41.307L548.48 41.2424L548.7 64.9968L538.499 65.0911C529.417 65.175 525.542 69.2634 525.631 78.9049L525.985 117.191L499.995 117.432L499.297 41.9765L516.764 41.815L520.894 50.1615C526.147 43.9642 532.551 41.3897 541.494 41.307Z" fill="url(#paint0_linear_2004_31)"/>
<defs>
<linearGradient id="paint0_linear_2004_31" x1="274.955" y1="3.5063" x2="277.057" y2="159.494" gradientUnits="userSpaceOnUse">
<stop offset="0.0314445" stop-color="white" stop-opacity="0.8"/>
<stop offset="0.683855" stop-color="white" stop-opacity="0.1"/>
</linearGradient>
</defs>
</svg>
