<svg width="156" height="549" viewBox="0 0 156 549" fill="none" xmlns="http://www.w3.org/2000/svg">
<path opacity="0.5" d="M18.1837 497.165C18.1837 476.345 33.1356 460.834 53.5373 460.834C74.0787 460.834 89.0307 476.345 89.0307 497.165L89.0307 511.838L116 511.838L116 538.807L18.1837 538.807L18.1837 497.165ZM65.5547 500.379C65.5547 493.253 60.6639 488.641 53.6771 488.641C46.6902 488.641 41.7994 493.253 41.7994 500.379L41.7994 511.838L65.5547 511.838L65.5547 500.379ZM40.5417 389.483L40.5417 370.06L116 370.06L116 390.182L110.69 392.418C115.721 398.566 118.515 406.392 118.515 415.195C118.515 438.252 101.747 454.741 78.2709 454.741C54.9347 454.741 38.3059 438.252 38.3059 415.195C38.3059 406.252 41.2404 398.287 46.4107 392.138L40.5417 389.483ZM95.5983 411.702C95.5983 401.92 88.1922 394.793 78.2709 394.793C68.4892 394.793 61.2229 401.92 61.2229 411.702C61.2229 421.483 68.4892 428.61 78.2709 428.61C88.1922 428.61 95.5983 421.483 95.5983 411.702ZM40.2622 311.456L40.2622 304.47L64.0176 304.47L64.0176 314.67C64.0176 323.753 68.07 327.666 77.7119 327.666L116 327.666L116 353.657L40.5417 353.657L40.5417 336.19L48.926 332.138C42.7775 326.828 40.2622 320.4 40.2622 311.456ZM93.3625 252.534L93.3625 242.613L116 242.613L116 260.499C116 277.128 105.799 287.329 89.0306 287.329L60.6639 287.329L60.6639 301.163L54.5155 301.163L18.6029 267.346L18.6029 261.897L40.5417 261.897L40.5417 243.032L60.6639 243.032L60.6639 261.338L84.6988 261.338C90.0088 261.338 93.3625 257.984 93.3625 252.534ZM38.4457 184.877C38.4457 167.41 50.8823 155.812 70.0263 155.812L116 155.812L116 181.803L73.6595 181.803C64.856 181.803 60.5242 185.157 60.5242 191.724C60.5242 199.829 66.1137 204.44 75.7556 204.44L116 204.44L116 230.432L40.5417 230.432L40.5417 212.126L48.367 208.633C42.0788 203.043 38.4457 194.659 38.4457 184.877ZM77.5722 62.6723C79.9477 62.6723 82.1835 62.812 84.559 63.0915L84.559 119.126C93.2228 117.449 97.6944 112 97.6944 103.755C97.6944 97.7464 95.0393 92.5761 90.5677 90.2006L90.5677 64.2094C107.755 69.5194 118.515 84.8905 118.515 103.755C118.515 127.371 101.328 144.698 78.2708 144.698C55.2142 144.698 38.1662 127.51 38.1662 103.755C38.1662 79.4408 55.4936 62.6723 77.5722 62.6723ZM58.5679 103.755C58.5679 111.301 62.6202 116.611 70.1661 118.707L70.1661 88.2442C62.6202 90.48 58.5679 95.9298 58.5679 103.755ZM40.2622 8.64627L40.2622 1.65939L64.0176 1.65939L64.0176 11.8602C64.0176 20.9432 68.07 24.8558 77.7119 24.8558L116 24.8558L116 50.847L40.5417 50.847L40.5417 33.3798L48.926 29.3274C42.7775 24.0174 40.2622 17.5895 40.2622 8.64627Z" fill="url(#paint0_linear_2004_30)"/>
<defs>
<linearGradient id="paint0_linear_2004_30" x1="-1.20384e-05" y1="274.824" x2="156" y2="274.164" gradientUnits="userSpaceOnUse">
<stop offset="0.0314445" stop-color="white" stop-opacity="0.8"/>
<stop offset="0.683855" stop-color="white" stop-opacity="0.1"/>
</linearGradient>
</defs>
</svg>
