<svg width="97" height="29" viewBox="0 0 97 29" fill="none" xmlns="http://www.w3.org/2000/svg">
<path d="M0.435059 27.5926V0.780762H2.92715V11.5735C3.96877 10.2949 5.13694 9.3372 6.42923 8.70276C7.72151 8.06832 9.13792 7.75232 10.6809 7.75232C13.4188 7.75232 15.7575 8.74652 17.6972 10.7301C19.6368 12.716 20.6054 15.125 20.6054 17.9568C20.6054 20.7887 19.6271 23.1442 17.6704 25.1229C15.7137 27.104 13.3604 28.0933 10.6103 28.0933C9.03327 28.0933 7.6047 27.7554 6.32458 27.0797C5.04446 26.4039 3.9128 25.3903 2.92715 24.0387V27.595H0.435059V27.5926ZM10.4034 25.6892C11.7882 25.6892 13.0683 25.3489 14.2389 24.6683C15.412 23.9877 16.3441 23.0299 17.0352 21.7975C17.7288 20.5651 18.0744 19.2598 18.0744 17.8864C18.0744 16.5129 17.724 15.2003 17.0255 13.9557C16.327 12.7112 15.3876 11.7413 14.2097 11.0485C13.0318 10.3533 11.7736 10.0081 10.4351 10.0081C9.09655 10.0081 7.77992 10.3557 6.55578 11.0485C5.3292 11.7413 4.3898 12.6747 3.7327 13.8488C3.07561 15.0229 2.74706 16.3452 2.74706 17.8134C2.74706 20.0546 3.48447 21.9264 4.95685 23.431C6.43166 24.9357 8.24476 25.6892 10.401 25.6892H10.4034Z" fill="white"/>
<path d="M32.4233 0.780762H34.9154V16.056L43.8957 8.2482H47.556L36.9111 17.4755L48.179 27.5926H44.6721L34.9179 18.883V27.5926H32.4258V0.780762H32.4233Z" fill="white"/>
<path d="M52.9126 1.06445H55.4046V8.24749H59.3569V10.3988H55.4046V27.5919H52.9126V10.3988H49.5127V8.24749H52.9126V1.06445Z" fill="white"/>
<path d="M62.1509 8.24832H64.6965V11.0753C65.4558 9.96204 66.2565 9.12827 67.0986 8.57647C67.9406 8.02468 68.8192 7.75 69.7342 7.75C70.423 7.75 71.158 7.96877 71.9416 8.40875L70.642 10.5065C70.1188 10.2805 69.6807 10.1687 69.3254 10.1687C68.4955 10.1687 67.6948 10.509 66.9233 11.1896C66.1519 11.8702 65.5629 12.9301 65.1613 14.3642C64.8523 15.4654 64.6989 17.6944 64.6989 21.0489V27.5927H62.1533V8.24832H62.1509Z" fill="white"/>
<path d="M79.1501 8.24756H82.1411L87.2933 15.3236L92.3894 8.24756H95.3853L88.7924 17.385L96.22 27.5919H93.1852L87.2908 19.4682L81.4305 27.5919H78.4565L85.7941 17.4044L79.1501 8.24756Z" fill="white"/>
</svg>
