<svg width="78" height="34" viewBox="0 0 78 34" fill="none" xmlns="http://www.w3.org/2000/svg">
<path d="M7.73019 0H0.404785V14.4012H7.71469C12.6758 14.4012 15.854 11.5984 15.854 7.20061C15.854 2.80282 12.6913 0 7.73019 0ZM7.73019 12.1946H2.95511V2.20664H7.71469C11.1642 2.20664 13.2339 4.15003 13.2339 7.20061C13.2339 10.2512 11.1642 12.1714 7.73019 12.1714V12.1946Z" fill="white"/>
<path d="M22.8849 3.65479C19.5284 3.65479 16.8618 5.86142 16.8618 9.13654C16.8618 12.4117 19.5284 14.6105 22.8849 14.6105C26.2414 14.6105 28.8925 12.4039 28.8925 9.13654C28.8925 5.86917 26.2492 3.65479 22.8849 3.65479ZM22.8849 12.5433C20.8152 12.5433 19.1641 11.2812 19.1641 9.13654C19.1641 6.99184 20.8152 5.72205 22.8849 5.72205C24.9546 5.72205 26.5825 6.9841 26.5825 9.13654C26.5825 11.289 24.9624 12.5588 22.8849 12.5588V12.5433Z" fill="white"/>
<path d="M42.2643 13.0232V3.87148H39.8535V5.2032C39.3168 4.68592 38.6811 4.28215 37.9845 4.01606C37.2879 3.74998 36.5447 3.62707 35.7994 3.65468C32.1638 3.65468 30.0088 6.10134 30.0088 8.95061C30.0088 11.7999 32.1638 14.2853 35.7994 14.2853C36.5454 14.3197 37.2906 14.2 37.9882 13.9335C38.6858 13.6671 39.3208 13.2596 39.8535 12.7367V13.2168C39.8535 15.1834 38.0861 16.2674 35.9156 16.2674C34.0474 16.2674 32.5204 15.4234 32.001 14.0994L30.0708 15.346C30.9002 17.1268 33.063 18.2108 35.9776 18.2108C39.5202 18.234 42.2643 16.1667 42.2643 13.0232ZM36.1172 12.249C34.0475 12.249 32.3266 11.0024 32.3266 8.93513C32.3266 6.86786 34.0475 5.62905 36.1172 5.62905C38.1869 5.62905 39.9931 6.89108 39.9931 8.89641V8.95836C39.9388 11.0334 38.1791 12.2799 36.0629 12.2799L36.1172 12.249Z" fill="white"/>
<path d="M52.7603 0H50.272V2.46989H52.7603V0Z" fill="white"/>
<path d="M52.7213 3.87109H50.3105V14.401H52.7213V3.87109Z" fill="white"/>
<path d="M59.8918 7.98206C57.5662 7.70332 56.7911 7.60267 56.7911 6.85938C56.7911 6.11609 57.6205 5.65928 59.3646 5.65928C60.1087 5.61311 60.8533 5.73934 61.5405 6.0281C62.2276 6.31687 62.8386 6.76035 63.3258 7.32394L64.8761 5.83736C63.9692 4.63726 62.008 3.66943 59.4499 3.66943C56.3957 3.66943 54.4655 5.09407 54.4655 7.08392C54.4655 9.30604 56.5585 9.77059 59.3104 10.1113C61.822 10.4132 62.7212 10.4287 62.7212 11.3578C62.7212 12.2869 61.5971 12.6354 59.9305 12.6354C59.0869 12.6829 58.2444 12.5244 57.4759 12.1737C56.7074 11.8229 56.036 11.2904 55.5198 10.6223L53.8066 12.1708C54.9772 13.7193 57.2872 14.6175 60.008 14.6175C62.7289 14.6175 65.1475 13.4716 65.1475 11.1023C65.1475 8.73309 62.7289 8.2995 59.8918 7.98206Z" fill="white"/>
<path d="M12.7922 24.6287H2.99399V18.7676H0.42041V33.1765H2.99399V26.8741H12.7922V33.1765H15.3658V18.7676H12.7922V24.6287Z" fill="white"/>
<path d="M26.187 28.0198C26.187 29.9632 25.1017 31.2098 23.0863 31.2098C21.0708 31.2098 20.2414 30.1026 20.2414 28.2366V22.6465H17.8306V28.4999C17.8306 31.4498 19.5359 33.3932 22.4041 33.3932C23.1121 33.4284 23.8192 33.3079 24.4755 33.0403C25.1318 32.7728 25.7213 32.3646 26.2025 31.8447V33.2074H28.6133V22.6465H26.2025L26.187 28.0198Z" fill="white"/>
<path d="M45.0086 22.4443C44.1907 22.4276 43.3796 22.5958 42.6359 22.9363C41.8922 23.2769 41.2353 23.781 40.7142 24.4109C40.3381 23.7756 39.7941 23.2559 39.1419 22.909C38.4896 22.5621 37.7543 22.4013 37.0166 22.4443C36.3236 22.4107 35.6319 22.5322 34.9922 22.8002C34.3524 23.0681 33.7807 23.4756 33.319 23.9928V22.6456H30.9082V33.1756H33.319V27.8796C33.319 25.9362 34.288 24.651 36.3732 24.651C38.4584 24.651 39.1638 25.9749 39.1638 27.8409V33.1756H41.5746V27.8796C41.5746 25.9362 42.5591 24.651 44.6288 24.651C46.6985 24.651 47.4194 25.9749 47.4194 27.8409V33.1756H49.8302V27.5389C49.8457 24.4884 48.2799 22.4443 45.0086 22.4443Z" fill="white"/>
<path d="M62.4189 30.7544V26.2946C62.4189 23.786 60.574 22.4233 57.3183 22.4233C54.7679 22.4233 52.4579 23.5847 51.7913 25.35L53.7835 26.2327C54.1866 25.2107 55.6129 24.4674 57.2408 24.4674C59.2097 24.4674 60.0856 25.2416 60.0856 26.2327V26.3101L55.5121 26.8521C52.9773 27.1541 51.4502 28.2613 51.4502 30.104C51.4502 32.2719 53.4036 33.3714 55.8299 33.3714C57.5007 33.4384 59.1314 32.8492 60.3725 31.7299C60.7135 32.7752 61.7368 33.6114 63.9848 33.1546V31.2886C62.6747 31.5906 62.4189 31.3351 62.4189 30.7544ZM60.0934 29.1284C60.0934 30.6769 57.8454 31.4512 56.0392 31.4512C54.6517 31.4512 53.8067 30.9866 53.8067 30.104C53.8067 29.2213 54.5121 28.8807 55.9229 28.7258L60.0934 28.2225V29.1284Z" fill="white"/>
<path d="M76.1083 30.598V27.5475V27.4391C76.1083 24.4891 74.4571 22.4451 71.527 22.4451C70.8078 22.4126 70.0899 22.5339 69.4215 22.801C68.7531 23.0681 68.1495 23.4747 67.6511 23.9936V22.6464H65.248V33.1763H67.6511V27.8804C67.6511 25.937 68.7596 24.6517 70.8061 24.6517C72.8525 24.6517 73.7207 25.9757 73.7207 27.8417V31.2871C73.7207 32.8357 74.93 33.7802 77.9764 33.3234V31.3723C76.3718 31.6433 76.1083 31.4188 76.1083 30.598Z" fill="white"/>
</svg>
