<svg width="110" height="29" viewBox="0 0 110 29" fill="none" xmlns="http://www.w3.org/2000/svg">
<g clip-path="url(#clip0_384_397)">
<path d="M0.396484 0.438965H7.21066C12.4 0.438965 15.2889 3.15353 15.2889 7.67921V20.7813C15.2889 25.974 12.2208 28.4543 6.80385 28.4543H0.396484V0.438965ZM4.99981 24.6759H7.12107C9.69273 24.6759 10.6856 23.574 10.6856 21.174V7.67921C10.6856 5.47548 9.82834 4.21741 7.12107 4.21741H4.99981V24.6759Z" fill="white"/>
<path d="M16.083 7.04816C16.083 2.48448 20.0543 0.202637 23.8004 0.202637C27.5465 0.202637 31.5178 2.48448 31.5178 7.04816V21.841C31.5178 26.4047 27.5465 28.6866 23.8004 28.6866C20.0543 28.6866 16.083 26.4047 16.083 21.841V7.04816ZM20.6863 21.8431C20.6863 23.7704 22.1295 24.6759 23.8004 24.6759C25.4712 24.6759 26.9144 23.7704 26.9144 21.8431V7.04816C26.9144 5.12094 25.4712 4.21538 23.8004 4.21538C22.1295 4.21538 20.6863 5.12094 20.6863 7.04816V21.8431Z" fill="white"/>
<path d="M32.4092 7.04816C32.4092 2.48448 36.3805 0.202637 40.1266 0.202637C43.8727 0.202637 47.8441 2.48448 47.8441 7.04816V8.46455H43.2407V7.04816C43.2407 5.12094 41.7975 4.21538 40.1266 4.21538C38.4558 4.21538 37.0125 5.12094 37.0125 7.04816V21.841C37.0125 23.7682 38.4558 24.6738 40.1266 24.6738C41.7975 24.6738 43.2407 23.7682 43.2407 21.841V16.5703H39.5842V13.0282H47.8441V21.841C47.8441 26.4047 43.8727 28.6866 40.1266 28.6866C36.3805 28.6866 32.4092 26.4047 32.4092 21.841V7.04816Z" fill="white"/>
<path d="M61.6006 0.438965H68.4148C73.6041 0.438965 76.493 3.15353 76.493 7.67921V20.7813C76.493 25.974 73.4249 28.4543 68.008 28.4543H61.5981V0.438965H61.6006ZM66.2039 24.6759H68.3252C70.8969 24.6759 71.8896 23.574 71.8896 21.174V7.67921C71.8896 5.47548 71.0325 4.21741 68.3252 4.21741H66.2039V24.6759Z" fill="white"/>
<path d="M77.3311 6.85187C77.3311 2.28819 81.3023 0.00634766 85.0485 0.00634766C88.7946 0.00634766 92.7659 2.28819 92.7659 6.85187V21.6448C92.7659 26.2084 88.7946 28.4903 85.0485 28.4903C81.3023 28.4903 77.3311 26.2084 77.3311 21.6448V6.85187ZM81.9368 21.6448C81.9368 23.572 83.3801 24.4776 85.0509 24.4776C86.7217 24.4776 88.165 23.572 88.165 21.6448V6.85187C88.165 4.92465 86.7217 4.01909 85.0509 4.01909C83.3801 4.01909 81.9368 4.92465 81.9368 6.85187V21.6448Z" fill="white"/>
<path d="M93.6567 6.85187C93.6567 2.28819 97.6282 0.00634766 101.374 0.00634766C105.12 0.00634766 109.092 2.28819 109.092 6.85187V8.26825H104.488V6.85187C104.488 4.92465 103.045 4.01909 101.374 4.01909C99.7036 4.01909 98.2602 4.92465 98.2602 6.85187V21.6448C98.2602 23.572 99.7036 24.4776 101.374 24.4776C103.045 24.4776 104.488 23.572 104.488 21.6448V16.3739H100.831V12.832H109.092V21.6448C109.092 26.2084 105.12 28.4903 101.374 28.4903C97.6282 28.4903 93.6567 26.2084 93.6567 21.6448V6.85187Z" fill="white"/>
<path d="M57.0413 13.4464L52.1473 13.5161C51.5105 13.5246 51.2175 13.9024 51.2247 14.3351C51.232 14.7679 51.5396 15.1372 52.1764 15.1288L57.0703 15.0591C57.7071 15.0507 58.0002 14.6728 57.9929 14.2401C57.9857 13.8074 57.6806 13.4381 57.0413 13.4464Z" fill="white"/>
<path d="M55.0918 18.751L55.1063 19.513C55.1233 20.446 55.6463 20.5833 56.5713 20.5706C57.5085 20.5579 58.0146 20.3933 57.9952 19.4075L57.9831 18.7109L55.0918 18.751Z" fill="white"/>
<path d="M60.1116 16.9695L59.9906 12.5894L59.9299 8.29803L59.8888 5.11486L59.8477 3.004C59.867 1.79026 59.0002 1.80714 59.0002 1.80714L48.8103 2.2462L48.6699 2.22931L48.6893 2.77392L48.8103 7.69855L48.8515 24.0218L48.9314 26.8018L49.0525 28.4736L49.0936 28.5432L50.5877 28.368L52.7066 28.1401L57.569 28.0873L58.3754 27.9649L59.0002 27.8424L59.2616 27.7897L59.666 27.49L59.7678 27.4203L59.8694 27.3317L60.0317 27.2092L60.1334 27.015L60.1746 26.8039L60.194 26.6456L60.2351 26.3817V26.118L60.2545 25.3432L60.315 24.1823L60.1116 16.9695ZM49.8492 8.08906L59.1188 7.95818L59.1842 11.5129L57.9347 11.5297L57.891 9.16771L55.0796 9.20781L55.1184 11.2659L53.8689 11.2828L53.8302 9.22471L49.8734 9.27959L49.8492 8.08906ZM56.5713 21.9131C55.5034 21.9279 54.7164 21.6366 54.2321 20.788L50.0284 22.2931L50.0017 20.8724L53.9368 19.5679L53.9222 18.7658L49.9654 18.8206L49.9412 17.4802L59.2108 17.3494L59.252 19.5046C59.2762 21.0982 58.3657 21.8877 56.5713 21.9131ZM57.0944 16.2538L52.2005 16.3235C50.6895 16.3446 49.917 15.3272 49.8976 14.3562C49.8806 13.3852 50.6144 12.3466 52.1254 12.3256L57.0193 12.2559C58.5303 12.2348 59.3028 13.2522 59.3222 14.2232C59.3391 15.1921 58.603 16.2328 57.0944 16.2538Z" fill="white"/>
</g>
<defs>
<clipPath id="clip0_384_397">
<rect width="108.755" height="28.6868" fill="white" transform="translate(0.336914)"/>
</clipPath>
</defs>
</svg>
