<svg width="133" height="22" viewBox="0 0 133 22" fill="none" xmlns="http://www.w3.org/2000/svg">
<path d="M126.907 3.74147V0.680268H125.771V0H128.723V0.680268H127.588V3.74147H126.907ZM129.177 3.74147V0H130.312L130.993 2.49432L131.674 0H132.809V3.6281H132.128V0.793646L131.334 3.74147H130.653L129.858 0.793646V3.74147H129.177Z" fill="white"/>
<path d="M6.35668 20.9749V3.51472H0V0H17.0268V3.51472H10.6701V20.9749H6.35668Z" fill="white"/>
<path d="M22.7022 20.9757H18.6157V5.78301H22.4751V7.93719C22.9292 7.14354 23.4967 6.46327 24.1778 5.89638C24.7454 5.55625 25.3129 5.44287 25.994 5.44287C26.9021 5.44287 27.9237 5.66963 28.7183 6.23652L27.4697 9.75123C26.9021 9.29772 26.221 9.07097 25.54 9.07097C24.9724 9.07097 24.5184 9.18434 24.0643 9.52448C23.6103 9.97799 23.2697 10.5449 23.1562 11.2251C22.8157 12.9258 22.7022 14.6265 22.8157 16.3272V20.9757H22.7022Z" fill="white"/>
<path d="M41.4319 20.9749V18.7073C40.8643 19.501 40.0697 20.1812 39.1616 20.6347C38.2536 21.0883 37.2319 21.315 36.2103 21.315C35.1887 21.315 34.2806 21.0883 33.3725 20.6347C32.5779 20.1812 31.8969 19.6143 31.5563 18.7073C31.1023 17.5735 30.9888 16.4398 30.9888 15.306V5.78223H35.1887V12.8117C35.0752 14.1722 35.1887 15.4194 35.4157 16.7799C35.5293 17.2334 35.8698 17.6869 36.2103 17.9137C36.6644 18.2538 37.2319 18.3672 37.686 18.3672C38.3671 18.3672 39.0481 18.1404 39.6157 17.8003C40.1833 17.4602 40.5238 17.0066 40.7508 16.4398C40.9778 15.0792 41.0914 13.7187 41.0914 12.3581V5.78223H45.1778V20.9749H41.4319Z" fill="white"/>
<path d="M54.3718 20.9749L48.2422 5.78223H52.5557L55.507 13.4919L56.4151 16.0996C56.6421 15.4194 56.7556 14.9658 56.8691 14.8525C56.9826 14.399 57.0961 13.9454 57.3232 13.6053L60.2745 5.78223H64.4744L58.3448 20.9749H54.3718Z" fill="white"/>
<path d="M67.54 3.74147V0H71.6265V3.74147H67.54ZM67.54 20.9749V5.78228H71.6265V20.9749H67.54Z" fill="white"/>
<path d="M83.6582 5.78189V8.95647H80.8204V15.1923C80.8204 15.8725 80.8203 16.6662 80.9339 17.3464C81.0474 17.5732 81.1609 17.6866 81.2744 17.9133C81.5014 18.0267 81.7284 18.1401 81.9555 18.1401C82.523 18.1401 83.0906 18.0267 83.6582 17.8L83.9987 20.9745C82.9771 21.4281 81.842 21.5414 80.8204 21.5414C80.1393 21.5414 79.4582 21.4281 78.7771 21.2013C78.2096 20.9745 77.869 20.6344 77.415 20.2943C77.0744 19.8408 76.9609 19.2739 76.8474 18.707C76.7339 17.8 76.7339 16.7796 76.7339 15.8725V9.18323H74.8042V5.78189H76.7339V2.72068L80.8204 0.453125V5.78189H83.6582Z" fill="white"/>
<path d="M90.3557 10.431L86.6098 9.75077C86.9504 8.39023 87.6314 7.25646 88.7666 6.46281C90.1287 5.66916 91.7179 5.32903 93.3071 5.44241C94.6692 5.32903 96.1449 5.55579 97.3935 6.12268C98.1881 6.46281 98.8691 7.0297 99.3232 7.70997C99.7772 8.84375 100.004 10.0909 99.8908 11.3381V15.9866C99.8908 17.007 99.8908 17.914 100.118 18.9344C100.231 19.6147 100.572 20.2949 100.799 20.9752H96.7124C96.5989 20.6351 96.4854 20.1815 96.3719 19.8414C96.2584 19.6147 96.2584 19.3879 96.2584 19.3879C95.5773 20.0682 94.7827 20.5217 93.9881 20.8618C93.1935 21.2019 92.2854 21.4287 91.4909 21.4287C90.1287 21.5421 88.7666 21.0886 87.745 20.1815C86.8369 19.3879 86.3828 18.1407 86.3828 16.8936C86.3828 16.0999 86.6098 15.3063 87.0639 14.626C87.5179 13.9458 88.0855 13.3789 88.8801 13.0387C89.9017 12.5852 91.0368 12.2451 92.1719 12.1317C93.5341 11.905 94.8962 11.5648 96.1449 11.1113V10.6578C96.2584 10.0909 96.0313 9.41064 95.5773 8.95712C94.8962 8.50361 94.1016 8.39024 93.4206 8.50361C92.853 8.50361 92.1719 8.61699 91.7179 8.95712C90.8098 9.29726 90.4693 9.86415 90.3557 10.431ZM95.8043 13.719C95.2368 13.8324 94.4422 14.0591 93.3071 14.2859C92.5125 14.3993 91.7179 14.626 91.0368 14.9662C90.5828 15.3063 90.2422 15.7598 90.2422 16.4401C90.2422 17.007 90.4692 17.5739 90.8098 17.914C91.2638 18.3675 91.8314 18.5943 92.399 18.4809C93.1935 18.4809 93.8746 18.2541 94.5557 17.8006C95.0097 17.4605 95.3503 17.007 95.5773 16.4401C95.6908 15.7598 95.8043 15.1929 95.8043 14.5126V13.719Z" fill="white"/>
<path d="M104.658 20.9749V0H108.745V20.9749H104.658Z" fill="white"/>
<path d="M112.15 16.6666L116.236 16.0997C116.35 16.78 116.69 17.4602 117.258 17.9137C117.939 18.3672 118.734 18.594 119.528 18.4806C120.323 18.594 121.231 18.3672 121.912 17.9137C122.252 17.687 122.48 17.2335 122.48 16.78C122.48 16.5532 122.366 16.2131 122.139 15.9863C121.685 15.7596 121.231 15.5328 120.777 15.4194C118.62 15.0793 116.463 14.399 114.534 13.492C113.399 12.8117 112.604 11.4512 112.717 10.0907C112.717 8.8435 113.285 7.59634 114.307 6.80269C115.669 5.78229 117.485 5.32878 119.188 5.44216C120.777 5.32878 122.48 5.66891 123.955 6.46256C125.09 7.14283 125.771 8.27661 126.112 9.52376L122.252 10.204C122.139 9.63714 121.798 9.18363 121.344 8.8435C120.777 8.50336 120.096 8.27661 119.415 8.38998C118.62 8.27661 117.826 8.50336 117.031 8.8435C116.69 9.07025 116.577 9.29701 116.577 9.63714C116.577 9.97728 116.69 10.204 117.031 10.3174C118.28 10.8843 119.528 11.2244 120.89 11.4512C122.48 11.6779 124.069 12.3582 125.431 13.2652C126.339 14.0589 126.793 15.0793 126.679 16.2131C126.679 17.5736 125.998 18.9341 124.977 19.7278C123.501 20.8616 121.571 21.3151 119.755 21.2017C118.053 21.3151 116.236 20.8616 114.761 19.9545C113.399 19.2743 112.604 18.1405 112.15 16.6666Z" fill="white"/>
</svg>
