<svg width="108" height="35" viewBox="0 0 108 35" fill="none" xmlns="http://www.w3.org/2000/svg">
<g clip-path="url(#clip0_384_384)">
<path d="M45.5021 23.8148C44.503 23.8135 43.5452 23.4145 42.8387 22.7054C42.1322 21.9962 41.7348 21.0348 41.7335 20.032V11.2079H45.7943V7.94896H41.7335V4.06836H38.4868V20.032C38.4867 21.2781 38.816 22.5019 39.4412 23.5785C40.0664 24.6551 40.9649 25.5459 42.0452 26.1599C43.1255 26.7739 44.3487 27.0893 45.5901 27.0736C46.8313 27.058 48.0464 26.712 49.1109 26.071L47.4376 23.2758C46.8534 23.629 46.1841 23.8154 45.5021 23.8148Z" fill="white"/>
<path fill-rule="evenodd" clip-rule="evenodd" d="M61.2139 7.78793C63.0561 8.07279 64.7768 8.88623 66.169 10.1303V8.00195H69.4156V26.7507H66.169V24.6224C64.7768 25.8664 63.0561 26.6799 61.2139 26.9647C59.3718 27.2496 57.4868 26.9937 55.7862 26.228C54.0856 25.4622 52.642 24.2192 51.6289 22.6487C50.616 21.0782 50.0771 19.2472 50.0771 17.3763C50.0771 15.5054 50.616 13.6744 51.6289 12.1039C52.642 10.5334 54.0856 9.29049 55.7862 8.52467C57.4868 7.75892 59.3718 7.50306 61.2139 7.78793ZM56.1901 22.7309C57.2455 23.4383 58.4863 23.8156 59.7555 23.8152C61.4559 23.8132 63.0859 23.1343 64.2883 21.9275C65.4906 20.7206 66.1669 19.0843 66.169 17.3776C66.1694 16.1037 65.7935 14.8582 65.0887 13.7987C64.3839 12.7393 63.3819 11.9134 62.2094 11.4257C61.037 10.938 59.7467 10.8102 58.5019 11.0586C57.2571 11.307 56.1136 11.9204 55.2163 12.8213C54.3188 13.722 53.7077 14.8698 53.4602 16.1193C53.2127 17.3688 53.34 18.6639 53.8259 19.8407C54.3119 21.0176 55.1346 22.0234 56.1901 22.7309Z" fill="white"/>
<path fill-rule="evenodd" clip-rule="evenodd" d="M76.4982 10.13C78.2638 8.54849 80.5477 7.67481 82.9141 7.67578C84.4785 7.67594 86.0195 8.05747 87.4045 8.78757C88.7894 9.51767 89.9773 10.5745 90.8655 11.8672C91.7537 13.1598 92.3159 14.6497 92.5035 16.2086C92.6912 17.7676 92.4993 19.349 91.9431 20.8169C91.3877 22.2848 90.4851 23.5952 89.3133 24.6355C88.1415 25.6759 86.7354 26.4149 85.2163 26.7893C83.6966 27.1636 82.1094 27.1619 80.5909 26.7844C79.0724 26.4069 77.6679 25.6649 76.4982 24.622V34.093H73.2515V8.00167H76.4982V10.13ZM79.3466 22.7342C80.4031 23.4408 81.6446 23.8169 82.9141 23.8149C84.6129 23.8102 86.2412 23.1303 87.441 21.9237C88.6417 20.7173 89.3176 19.0825 89.3201 17.3773C89.321 16.103 88.9448 14.8573 88.2392 13.7976C87.5344 12.738 86.5316 11.9122 85.3589 11.4247C84.1859 10.9371 82.8953 10.8099 81.6503 11.0589C80.4053 11.3079 79.2619 11.9221 78.3647 12.8236C77.4676 13.7252 76.8571 14.8736 76.6105 16.1236C76.3638 17.3736 76.4922 18.669 76.9792 19.8457C77.4663 21.0224 78.2901 22.0277 79.3466 22.7342Z" fill="white"/>
<path d="M102.982 23.8151C103.65 23.8078 104.304 23.6226 104.877 23.2783L106.552 26.071C105.487 26.7126 104.272 27.0592 103.031 27.0751C101.789 27.091 100.565 26.7759 99.4849 26.1617C98.4039 25.5476 97.5055 24.6565 96.8797 23.5796C96.2548 22.5027 95.9253 21.2785 95.9253 20.032V4.06836H99.1724V7.93642H103.23V11.1954H99.1724V20.0194C99.1698 20.6896 99.3447 21.3484 99.6793 21.9284C100.015 22.5083 100.496 22.9886 101.077 23.3202C101.657 23.6516 102.314 23.8225 102.982 23.8151Z" fill="white"/>
<path d="M18.6021 3.29922C18.6021 5.01184 17.2189 6.40019 15.5127 6.40019C13.8065 6.40019 12.4233 5.01184 12.4233 3.29922C12.4233 1.58659 13.8065 0.198242 15.5127 0.198242C17.2189 0.198242 18.6021 1.58659 18.6021 3.29922Z" fill="white"/>
<path d="M10.0708 6.84609C10.0708 8.55873 8.6876 9.94709 6.98144 9.94709C5.27524 9.94709 3.89209 8.55873 3.89209 6.84609C3.89209 5.13347 5.27524 3.74512 6.98144 3.74512C8.6876 3.74512 10.0708 5.13347 10.0708 6.84609Z" fill="white"/>
<path d="M3.44775 18.5106C5.15394 18.5106 6.53709 17.1222 6.53709 15.4095C6.53709 13.697 5.15394 12.3086 3.44775 12.3086C1.74154 12.3086 0.358398 13.697 0.358398 15.4095C0.358398 17.1222 1.74154 18.5106 3.44775 18.5106Z" fill="white"/>
<path d="M10.0708 23.9755C10.0708 25.6881 8.6876 27.0764 6.98144 27.0764C5.27524 27.0764 3.89209 25.6881 3.89209 23.9755C3.89209 22.2629 5.27524 20.8745 6.98144 20.8745C8.6876 20.8745 10.0708 22.2629 10.0708 23.9755Z" fill="white"/>
<path d="M15.5127 30.6234C17.2189 30.6234 18.6021 29.235 18.6021 27.5223C18.6021 25.8097 17.2189 24.4214 15.5127 24.4214C13.8065 24.4214 12.4233 25.8097 12.4233 27.5223C12.4233 29.235 13.8065 30.6234 15.5127 30.6234Z" fill="white"/>
<path d="M27.1362 23.9755C27.1362 25.6881 25.7531 27.0764 24.0469 27.0764C22.3407 27.0764 20.9575 25.6881 20.9575 23.9755C20.9575 22.2629 22.3407 20.8745 24.0469 20.8745C25.7531 20.8745 27.1362 22.2629 27.1362 23.9755Z" fill="white"/>
<path d="M27.5805 18.5106C29.2868 18.5106 30.6699 17.1222 30.6699 15.4095C30.6699 13.697 29.2868 12.3086 27.5805 12.3086C25.8744 12.3086 24.4912 13.697 24.4912 15.4095C24.4912 17.1222 25.8744 18.5106 27.5805 18.5106Z" fill="white"/>
<path d="M27.1362 6.84609C27.1362 8.55873 25.7531 9.94709 24.0469 9.94709C22.3407 9.94709 20.9575 8.55873 20.9575 6.84609C20.9575 5.13347 22.3407 3.74512 24.0469 3.74512C25.7531 3.74512 27.1362 5.13347 27.1362 6.84609Z" fill="white"/>
</g>
<defs>
<clipPath id="clip0_384_384">
<rect width="106.991" height="34.0932" fill="white" transform="translate(0.161133)"/>
</clipPath>
</defs>
</svg>
