<svg width="108" height="38" viewBox="0 0 108 38" fill="none" xmlns="http://www.w3.org/2000/svg">
<path d="M31.6387 36.142V33.0347H32.0246V36.696H31.5664L29.42 33.5405V36.696H29.0342V33.0347H29.4924L31.6387 36.142Z" fill="white"/>
<path d="M35.5463 36.3588H37.5238V36.696H35.1846V33.0347H37.4515V33.3719H35.5463V34.6244H37.3309V34.9617H35.5463V36.3588Z" fill="white"/>
<path d="M41.3091 36.1901L42.2255 33.0347H42.6837L43.6001 36.1901L44.5165 33.0347H44.9024L43.8172 36.696H43.3831L42.4667 33.5405H42.4425L41.5261 36.696H41.092L40.0068 33.0347H40.3927L41.3091 36.1901Z" fill="white"/>
<path d="M53.3421 33.3478L51.1957 36.3588H53.3661V36.696H50.7134V36.3828L52.8597 33.3719H50.7857V33.0347H53.3421V33.3478Z" fill="white"/>
<path d="M56.5753 36.3588H58.5291V36.696H56.1899V33.0347H58.4568V33.3719H56.5753V34.6244H58.3361V34.9617H56.5753V36.3588Z" fill="white"/>
<path d="M61.4222 36.696H61.0117L62.6034 33.0347H62.9655L64.5327 36.696H64.1228L63.7129 35.7325H61.8076L61.4222 36.696ZM61.9527 35.3953H63.5683L62.7486 33.4441L61.9527 35.3953Z" fill="white"/>
<path d="M67.6207 36.3588H69.3331V36.696H67.2354V33.0347H67.6207V36.3588Z" fill="white"/>
<path d="M72.0339 36.696H71.624L73.2157 33.0347H73.5772L75.145 36.696H74.7345L74.3246 35.7325H72.4199L72.0339 36.696ZM72.5884 35.3953H74.204L73.3842 33.4441L72.5884 35.3953Z" fill="white"/>
<path d="M80.4741 36.142V33.0347H80.86V36.696H80.4018L78.255 33.5405V36.696H77.8696V33.0347H78.3273L80.4741 36.142Z" fill="white"/>
<path d="M84.0181 33.0347H85.2483C86.1648 33.0347 87.1775 33.6368 87.1775 34.8653C87.1775 36.0938 86.1648 36.696 85.2483 36.696H84.0181V33.0347ZM84.3801 36.3588H85.1276C86.2371 36.3588 86.7677 35.612 86.7677 34.8653C86.7677 34.1186 86.2371 33.3719 85.1276 33.3719H84.3801V36.3588Z" fill="white"/>
<path d="M107.097 36.6953C103.504 33.9251 99.4525 31.8055 95.2564 30.1675C91.0358 28.5295 86.6467 27.4215 82.2097 26.6025C73.3108 25.0127 64.2668 24.6755 55.2717 24.9887C46.2764 25.3018 37.3293 26.3135 28.4545 27.7828C24.0172 28.5295 19.6039 29.3726 15.2148 30.3602C13.0202 30.842 10.8256 31.3718 8.65516 31.95C7.56995 32.239 6.48474 32.5281 5.39948 32.8412C4.31427 33.1544 3.25315 33.4675 2.14381 33.8529C1.78206 33.9733 1.58914 34.3828 1.70971 34.7442C1.8303 35.1054 2.24027 35.2981 2.60201 35.1777H2.62613C3.63901 34.8405 4.72426 34.5274 5.78533 34.2383C6.8706 33.9493 7.93167 33.6602 9.01693 33.3952C11.1873 32.8412 13.3578 32.3594 15.5524 31.8777C19.9174 30.9142 24.3066 30.0711 28.7198 29.3485C37.5222 27.8792 46.4211 26.8675 55.3441 26.458C64.2668 26.0726 73.2386 26.3134 82.0168 27.8069C86.4059 28.5536 90.7466 29.6134 94.9188 31.1791C99.091 32.7208 103.094 34.72 106.663 37.3697C106.832 37.4901 107.073 37.4661 107.194 37.2974C107.29 37.0565 107.266 36.8157 107.097 36.6953Z" fill="white"/>
<path d="M3.22968 25.3499C4.19434 25.7113 5.23133 25.8076 6.22011 25.6872C7.20888 25.5668 8.17351 25.2777 9.04166 24.8201C9.47579 24.5792 9.88572 24.3383 10.2957 24.0252C10.7057 23.712 11.0433 23.3507 11.381 22.9894C11.9598 22.3149 12.442 21.5923 12.8762 20.8456C13.6479 21.2792 14.4678 21.6887 15.336 21.9777C16.2283 22.2908 17.2171 22.5317 18.2541 22.4835C19.291 22.4354 20.328 22.05 21.0997 21.3996C21.558 21.0142 21.9438 20.5806 22.2332 20.0989C22.3297 20.3397 22.4985 20.5806 22.6914 20.7733C22.9808 21.0383 23.3184 21.231 23.6319 21.3273C23.9696 21.4478 24.3313 21.496 24.669 21.4719C25.3924 21.4478 26.0195 21.1346 26.5259 20.7733C27.0323 20.3879 27.4665 19.9543 27.804 19.4726C27.9729 19.2317 28.1417 18.9908 28.2864 18.75C28.3346 19.1835 28.4311 19.6412 28.7928 20.0989C28.9857 20.3397 29.2752 20.5324 29.5887 20.6288C29.9022 20.7252 30.1916 20.7492 30.4569 20.7011C30.9874 20.6288 31.4215 20.4361 31.8073 20.2193C32.1932 19.9784 32.555 19.7135 32.8685 19.4244C33.182 19.1354 33.4714 18.7981 33.7125 18.5091C33.9778 18.1959 34.219 17.8828 34.4601 17.5938C34.9425 16.9675 35.4248 16.3412 35.883 15.7149C36.0036 15.5463 36.1242 15.4018 36.2447 15.2332C36.1 15.8113 36.0277 16.3894 36.0036 16.9675C36.0036 17.7383 36.0277 18.5332 36.3894 19.3762C36.5824 19.7857 36.8717 20.2193 37.3059 20.5084C37.7399 20.7974 38.2464 20.9179 38.6805 20.9419C39.6451 21.0383 40.3927 20.7974 41.1162 20.5565C41.285 20.4843 41.478 20.4361 41.6467 20.3638C41.8155 20.2916 41.9844 20.2193 42.1773 20.123C42.539 19.9303 42.8526 19.7376 43.1661 19.5449C43.7207 19.1835 44.2513 18.8222 44.7577 18.4127C44.9506 18.9186 45.2883 19.4003 45.7224 19.7376C46.4218 20.3157 47.3382 20.5084 48.134 20.4602C48.544 20.4361 48.954 20.3638 49.3157 20.2434C49.6774 20.123 50.0633 19.9543 50.3768 19.7616C51.0521 19.4003 51.6549 18.9186 52.1614 18.3886C52.7884 17.7624 53.319 17.0638 53.7531 16.3412C53.7772 16.558 53.8254 16.7748 53.8736 16.9675C54.0666 17.6419 54.4283 18.2682 54.9106 18.7981C55.393 19.3281 56.02 19.7616 56.8156 19.9062C57.5876 20.0266 58.2627 19.9303 58.9379 19.7616C59.613 19.593 60.2404 19.304 60.8193 18.9186C61.3977 18.5332 61.8805 18.0514 62.2904 17.5215C62.3627 17.4251 62.4349 17.3288 62.4833 17.2324C62.7002 18.1237 63.0378 18.9908 63.5445 19.7616C64.1228 20.677 64.9432 21.496 65.932 22.05C66.8963 22.604 68.0059 22.9171 69.0909 22.9894C70.1759 23.0617 71.2616 22.9653 72.2982 22.7003C74.3726 22.1945 76.2535 21.1587 77.8691 19.8339C78.6411 19.2076 79.3646 18.485 80.0159 17.7142C80.0398 17.7142 80.0637 17.7142 80.0882 17.7142C81.1248 17.7865 82.162 17.6419 83.1508 17.3529C83.4161 17.2806 83.6814 17.1843 83.9467 17.0879C83.826 17.4011 83.7292 17.7383 83.7053 18.0996C83.6091 18.8945 83.7537 19.7376 84.2598 20.4843C84.3327 20.5806 84.405 20.677 84.4773 20.7492L84.5974 20.8697L84.7181 20.966C84.8626 21.0865 85.0317 21.2069 85.2008 21.3033C85.5384 21.52 85.9483 21.6887 86.3581 21.7609C86.768 21.8332 87.2024 21.8573 87.5883 21.8091C87.9737 21.7368 88.3597 21.6405 88.7218 21.496C89.4447 21.231 90.0482 20.8215 90.6027 20.412C90.7956 20.2675 90.9886 20.123 91.1571 19.9543C91.3501 20.2434 91.567 20.5324 91.8323 20.7974C92.0976 21.0624 92.4351 21.2792 92.7972 21.4237C93.1587 21.5682 93.5691 21.6164 93.9545 21.5682C94.2198 21.52 94.4851 21.4478 94.7265 21.3514C94.7026 21.4719 94.6542 21.5682 94.6297 21.6887C94.5819 21.8814 94.5335 22.05 94.5096 22.2427L94.4612 22.5317L94.4373 22.604C94.4373 22.6522 94.4128 22.7485 94.4373 22.8449C94.4612 23.0376 94.6058 23.2062 94.6781 23.2784C94.8472 23.158 95.0402 23.0376 95.257 22.8449C95.4739 22.6763 95.6669 22.4113 95.7876 22.2427C96.0045 21.9777 96.2214 21.6887 96.4628 21.4237C96.9449 20.8938 97.4277 20.3879 97.9583 19.9062C98.0061 19.8821 98.0305 19.8339 98.0784 19.8098C98.1028 20.6288 98.2713 21.4237 98.5611 22.2186C98.971 23.2784 99.6222 24.3142 100.635 25.0128C101.142 25.3499 101.744 25.6149 102.347 25.7113C102.974 25.8076 103.601 25.7354 104.18 25.5668C105.338 25.1814 106.23 24.4106 106.857 23.5193C106.881 23.4711 106.881 23.3989 106.857 23.3507C106.809 23.2784 106.736 23.2784 106.664 23.3266C105.772 23.9288 104.879 24.4587 103.915 24.6274C103.456 24.6996 102.974 24.7237 102.54 24.6033C102.106 24.5069 101.696 24.3142 101.31 24.0492C100.563 23.5193 99.9598 22.7003 99.4771 21.8091C99.1156 21.1346 98.8264 20.412 98.5611 19.6412C99.164 20.3157 99.9598 20.8215 100.9 21.0624C102.106 21.3755 103.505 21.1346 104.542 20.3397C105.048 19.9303 105.506 19.4003 105.675 18.6536C105.748 18.2923 105.723 17.8587 105.555 17.4974C105.506 17.4011 105.458 17.3288 105.434 17.2565C105.386 17.1843 105.338 17.112 105.289 17.0397C105.193 16.8952 105.072 16.7748 104.928 16.6784C104.373 16.2448 103.698 16.1244 103.119 16.1485L103.191 16.1003C103.794 15.6908 104.421 15.2573 105.024 14.7032C105.603 14.1492 106.085 13.4748 106.399 12.6799C106.543 12.2704 106.664 11.8368 106.616 11.331C106.592 11.066 106.519 10.801 106.35 10.5361C106.181 10.2711 105.941 10.0543 105.675 9.93386C105.145 9.693 104.638 9.74117 104.228 9.78938C103.794 9.86159 103.408 9.98208 103.046 10.1507C102.685 10.2952 102.323 10.4638 101.985 10.6565C101.648 10.8492 101.31 11.066 100.996 11.2828C99.7423 12.1981 98.7057 13.3543 97.8615 14.6069C97.0172 15.8594 96.3182 17.1843 95.7153 18.5573C95.4255 19.2558 95.1603 19.9303 94.9434 20.6529V20.677C94.5819 20.7974 94.2443 20.8938 93.9067 20.8938C93.3278 20.9179 92.8211 20.677 92.4112 20.2434C92.1699 20.0025 92.0014 19.6894 91.8323 19.3762C91.953 19.2558 92.0498 19.1595 92.1699 19.039C92.4112 18.774 92.6526 18.4609 92.8456 18.1237C92.9418 17.9551 93.0386 17.7624 93.0864 17.5215C93.1348 17.3047 93.1832 17.0397 93.1348 16.7266C93.0864 16.4135 92.8456 16.1003 92.5803 15.9317C92.2905 15.7631 92.0014 15.739 91.7361 15.7631C91.6393 15.7872 91.5431 15.8113 91.4224 15.8354C91.2055 15.3295 90.8918 14.8718 90.4581 14.4864C90.1683 14.2456 89.8307 14.0529 89.4692 13.9324C89.1072 13.812 88.6973 13.7638 88.3113 13.812C87.54 13.8602 86.8403 14.1733 86.2135 14.5346C85.5862 14.8959 85.0078 15.3777 84.5496 15.9799C84.405 16.1485 84.2843 16.3412 84.1875 16.558C83.8021 16.6784 83.3916 16.7989 83.0063 16.8711C82.1859 17.0397 81.3662 17.0879 80.5464 17.0397C81.0286 16.3894 81.4385 15.7149 81.8 14.9923C82.741 13.1134 83.2715 10.9937 83.2231 8.87405C83.1987 7.81418 83.0541 6.77841 82.8133 5.74265C82.548 4.73094 82.162 3.71928 81.5592 2.77984C80.9563 1.86452 80.136 1.04554 79.0993 0.539696C78.0621 0.0338573 76.8803 -0.11067 75.7952 0.0820348C73.7698 0.419261 71.9851 1.71999 70.9963 3.45431C70.4657 3.52658 69.9351 3.6229 69.4285 3.79155C68.4157 4.10468 67.4753 4.65867 66.6311 5.30903C65.7868 5.9594 65.0878 6.7543 64.4849 7.64553C63.882 8.5127 63.3993 9.45215 63.0378 10.4397C62.3866 12.1981 62.0974 14.101 62.2904 16.004C62.0251 16.293 61.8076 16.5821 61.5423 16.847C61.1569 17.2565 60.6987 17.6178 60.192 17.8828C59.7098 18.1478 59.1793 18.3646 58.6248 18.485C58.0942 18.6054 57.4908 18.6777 57.0331 18.5813C56.5987 18.5091 56.1165 18.2441 55.7065 17.8828C55.2965 17.5215 54.983 17.0879 54.766 16.5821C54.6454 16.3171 54.5971 16.0281 54.5971 15.739C55.0553 15.9317 55.5377 16.0521 56.02 16.1244C56.6955 16.2208 57.3707 16.1726 58.0458 16.004C58.721 15.8113 59.3962 15.474 59.8783 14.8718C60.1197 14.5587 60.2888 14.1974 60.3611 13.7879C60.4334 13.4266 60.4334 12.993 60.2888 12.5835C60.1436 12.174 59.8305 11.8127 59.4685 11.5959C59.107 11.3791 58.721 11.2828 58.3595 11.2346C57.6115 11.1623 56.9124 11.331 56.2851 11.62C55.9717 11.7645 55.6582 11.9572 55.393 12.174C55.1277 12.3908 54.8865 12.6799 54.6695 12.9207C54.2836 13.4266 53.9701 14.0047 53.8013 14.631C53.4637 14.4624 53.1743 14.2456 52.8849 13.9806C52.8126 13.9324 52.7402 13.9083 52.6678 13.9565C52.5955 14.0047 52.5714 14.1251 52.6196 14.1974C52.909 14.6069 53.2708 14.9441 53.6807 15.2091C53.6807 15.2573 53.6807 15.2813 53.6807 15.3295C53.0055 16.1726 52.3061 16.9434 51.5103 17.5938C50.4733 18.4368 49.2192 19.0872 48.0134 19.1354C47.4105 19.1354 46.8558 18.9668 46.4458 18.6295C46.0841 18.3405 45.8671 17.8828 45.7947 17.4011C47.724 15.7872 49.4845 13.9324 50.835 11.7886C51.6067 10.5361 52.282 9.18718 52.5714 7.66964C52.6437 7.28424 52.6678 6.85068 52.5955 6.41706C52.5231 5.98351 52.3061 5.50173 51.9202 5.16455C51.5344 4.82731 50.9797 4.68277 50.5215 4.73093C50.0392 4.7791 49.6292 4.94774 49.2916 5.1886C48.5681 5.64627 48.0858 6.32074 47.6999 6.92295C47.2899 7.54921 46.9282 8.17546 46.6147 8.82583C45.9636 10.1266 45.433 11.4996 45.023 12.8967C44.8301 13.5952 44.6613 14.3178 44.5407 15.0645C44.4684 15.5704 44.4442 16.0762 44.4201 16.5821C44.2754 16.7025 44.1066 16.8229 43.9619 16.9434C43.4072 17.3529 42.8284 17.7383 42.2497 18.0996C41.9602 18.2682 41.6709 18.4609 41.4056 18.5813C41.285 18.6295 41.1162 18.7018 40.9715 18.774L40.5133 18.9427C39.8863 19.1595 39.2593 19.3281 38.7287 19.304C38.1981 19.2558 37.9329 19.0872 37.6917 18.6295C37.4746 18.1719 37.4023 17.5215 37.4023 16.8711C37.4023 16.2208 37.4746 15.5945 37.6676 14.9441C38.0052 13.6916 38.6805 12.439 39.3557 11.2105L41.2127 7.93461C41.3091 7.93461 41.4297 7.9105 41.5262 7.9105L42.8043 7.76602C43.6484 7.66964 44.4924 7.62148 45.3606 7.5251H45.3848C45.5777 7.50105 45.7224 7.3324 45.7224 7.1397C45.7224 6.92295 45.5536 6.7543 45.3365 6.73025C44.4684 6.70614 43.6002 6.70614 42.732 6.73025C42.4426 6.7543 42.1532 6.7543 41.8638 6.77841C41.9844 6.5616 42.105 6.3448 42.2015 6.12805C42.6596 5.33314 43.0937 4.53824 43.4554 3.69517C43.5037 3.6229 43.4796 3.55063 43.4072 3.50247C43.3349 3.45431 43.2625 3.47836 43.2143 3.55063L43.1902 3.57474C42.4426 4.65867 41.695 5.74265 40.9474 6.82657C40.658 6.85068 40.3927 6.87473 40.1033 6.89884C38.3669 7.06743 36.6547 7.35651 34.9666 7.7178C34.5566 7.81418 34.1466 7.9105 33.7366 8.03098C34.1225 7.35651 34.5325 6.65798 34.9425 5.98351C34.9666 5.93535 34.9666 5.86308 34.9183 5.81492C34.8701 5.7667 34.7737 5.7667 34.7254 5.83897C34.026 6.63387 33.3749 7.47694 32.7479 8.32C31.8073 8.58497 30.8909 8.87405 29.9745 9.23534C28.3587 9.86159 26.767 10.5842 25.3201 11.5477C25.2718 11.5959 25.2478 11.6441 25.2718 11.7164C25.296 11.7886 25.3924 11.8127 25.4407 11.7886C26.9841 11.066 28.5999 10.5361 30.2398 10.0543C30.7704 9.90981 31.3009 9.76527 31.8315 9.62074C30.9633 10.9215 30.1434 12.2704 29.4681 13.7156C29.1304 14.4383 28.8169 15.185 28.5758 15.9799C28.4793 16.3412 28.3829 16.7266 28.3105 17.112C27.8764 17.6901 27.4423 18.22 26.96 18.7018C26.5741 19.0631 26.1883 19.4244 25.7783 19.6653C25.3683 19.9062 24.9342 20.0989 24.5243 20.0989C24.3313 20.0989 24.1143 20.0748 23.9214 20.0266C23.7043 19.9543 23.5355 19.8821 23.4149 19.7616C23.2944 19.6412 23.1979 19.5208 23.1255 19.3522C23.0532 19.1835 23.0291 18.9427 23.0291 18.7259C23.0532 17.7624 23.4149 16.7025 23.8008 15.6667C23.8249 15.6186 23.8008 15.5704 23.7766 15.5222C23.7284 15.474 23.6319 15.474 23.5837 15.5222C23.1738 15.9558 22.8602 16.4135 22.5709 16.9434C22.2814 17.4733 22.0644 18.0273 21.9679 18.6536C21.9438 18.8463 21.9438 19.0631 21.9438 19.2799C21.4374 19.7376 20.931 20.147 20.3763 20.4361C19.6528 20.8215 18.9052 20.9901 18.1093 20.9901C17.3135 20.9901 16.5177 20.7974 15.7219 20.5084C15.0949 20.3157 14.3472 19.9543 13.5755 19.593C13.8167 19.1113 14.0578 18.6295 14.2749 18.1478C15.3601 15.7149 16.2524 13.2098 17.1688 10.7529C18.9775 10.6083 20.8345 10.0543 22.3056 8.84994C23.0532 8.24773 23.7043 7.47694 24.1625 6.60976C24.6207 5.74265 24.9101 4.75504 24.886 3.71928C24.8619 3.21345 24.7654 2.61125 24.3554 2.10542C23.9696 1.59955 23.3184 1.3105 22.7397 1.3105C21.5339 1.28642 20.5692 1.96087 19.918 2.68352C19.2428 3.40615 18.7364 4.201 18.2541 5.02001C17.7958 5.83897 17.3859 6.65798 17.0241 7.50105C16.6865 8.27184 16.373 9.04264 16.0595 9.81343C14.5884 9.83754 13.1414 9.59663 11.7668 9.06675C10.9468 8.75356 10.1751 8.36816 9.42751 7.88645C8.70408 7.40467 8.00467 6.85068 7.42589 6.22437L7.40181 6.20031C7.2571 6.03167 6.99181 6.00762 6.82297 6.17621C6.65418 6.32074 6.63004 6.58571 6.77475 6.7543C7.42589 7.50105 8.14938 8.07914 8.92109 8.60908C9.69279 9.13902 10.5369 9.57257 11.4051 9.90981C12.7555 10.4397 14.2025 10.7288 15.6495 10.7769C14.7572 13.0653 13.9132 15.3295 12.9003 17.5215C12.6833 17.9792 12.4662 18.4368 12.225 18.8945C11.8391 18.6777 11.4292 18.485 11.0433 18.2682C10.2234 17.8346 9.42751 17.4492 8.53523 17.0638C6.63004 16.3412 4.45962 16.6784 2.84382 17.8105C2.02387 18.3886 1.34862 19.1835 0.962763 20.123C0.76983 20.6047 0.649252 21.1106 0.601018 21.6164C0.552789 22.1222 0.625138 22.7244 0.8663 23.2303C1.08334 23.7361 1.44509 24.1938 1.85506 24.531C2.28915 24.9164 2.74736 25.1814 3.22968 25.3499ZM103.143 16.8952C103.625 16.9675 104.059 17.1602 104.324 17.4492C104.445 17.5938 104.566 17.7865 104.614 17.9551C104.663 18.0996 104.638 18.2441 104.59 18.4127C104.494 18.75 104.204 19.0872 103.842 19.304C103.481 19.5449 103.071 19.7135 102.613 19.7857C102.178 19.858 101.72 19.858 101.238 19.8098C100.49 19.7135 99.7668 19.4485 98.971 19.1113C99.7423 18.485 100.563 17.9069 101.407 17.3529L102.13 16.8711C102.492 16.847 102.83 16.8711 103.143 16.8952ZM98.8987 15.3295C99.7423 14.1974 100.683 13.1375 101.792 12.3426C102.082 12.1499 102.347 11.9813 102.66 11.8127C102.974 11.6441 103.288 11.4996 103.577 11.3791C103.891 11.2587 104.204 11.1623 104.494 11.1142C104.783 11.066 105.072 11.0901 105.193 11.1623C105.265 11.1864 105.289 11.2346 105.338 11.2828C105.362 11.331 105.41 11.4032 105.41 11.5237C105.434 11.7405 105.386 12.0295 105.265 12.3186C105.048 12.8967 104.663 13.4266 104.204 13.9083C103.239 14.8237 101.937 15.5704 100.756 16.4135C99.5499 17.2565 98.3681 18.1959 97.2825 19.2317C96.8487 19.6653 96.4389 20.123 96.0529 20.5806C96.2698 20.0507 96.4867 19.5449 96.728 19.039C97.3554 17.7142 98.0545 16.4857 98.8987 15.3295ZM91.9046 16.9675C91.9775 16.9675 92.0253 16.9916 92.0253 16.9916C92.0253 17.0156 92.0014 16.9916 92.0253 17.0157C92.0253 17.0638 91.9775 17.3047 91.8323 17.5215C91.7361 17.6901 91.6154 17.8346 91.4708 17.9792C91.4708 17.931 91.4469 17.8828 91.4469 17.8346C91.4224 17.6901 91.4224 17.5456 91.4469 17.4492C91.4469 17.377 91.4947 17.2806 91.5431 17.2084C91.6154 17.0397 91.7845 16.9675 91.9046 16.9675ZM86.8887 15.4981C87.3954 15.1368 87.9259 14.8478 88.5043 14.7514C89.0594 14.631 89.6377 14.7273 90.1444 15.0645C90.5304 15.3054 90.8918 15.6667 91.1571 16.0521C90.9163 16.1967 90.6989 16.4135 90.5788 16.6784C90.4581 16.8952 90.3858 17.1361 90.3858 17.377C90.3858 17.5938 90.3858 17.7865 90.4336 17.9792C90.482 18.2682 90.5543 18.5332 90.651 18.7981C90.3858 19.0149 90.1205 19.2076 89.8552 19.4003C89.3485 19.7616 88.7941 20.0748 88.2635 20.2916C87.7329 20.5084 87.1779 20.5806 86.6957 20.4843C86.4543 20.4361 86.2135 20.3397 85.9967 20.1952L85.8276 20.0989L85.6585 19.9784L85.5862 19.9303L85.5384 19.8821C85.5139 19.858 85.4661 19.8098 85.4416 19.7616C85.1763 19.4244 85.0317 18.8463 85.104 18.3164C85.1524 17.7865 85.3454 17.2324 85.6585 16.7748C85.9483 16.2689 86.382 15.8594 86.8887 15.4981ZM76.0366 1.47912C76.9048 1.35868 77.7729 1.47912 78.5443 1.86452C79.3162 2.22585 79.943 2.87622 80.4257 3.6229C81.3662 5.14044 81.7761 7.09154 81.8 8.94626C81.8 10.8251 81.3417 12.6799 80.4735 14.3419C80.0398 15.2091 79.4853 16.0281 78.8579 16.7989C78.3758 16.6543 77.9175 16.4857 77.4592 16.2689C76.615 15.8354 75.8436 15.2813 75.1685 14.6069C73.7937 13.2821 72.8049 11.5959 72.0329 9.83754C71.8399 9.37988 71.6714 8.97037 71.5746 8.5127C71.4545 8.07914 71.3822 7.62148 71.3822 7.16381C71.3577 6.27258 71.5268 5.35725 71.9367 4.56235C71.9606 4.51418 71.9851 4.49008 71.9851 4.44192C72.1781 4.41781 72.3705 4.41781 72.588 4.41781C73.0701 4.41781 73.5284 4.46597 74.0106 4.53824C74.4927 4.61051 74.951 4.73093 75.4093 4.87547C76.3258 5.16455 77.2179 5.59811 78.086 6.07989C78.1344 6.10394 78.2312 6.10394 78.2551 6.05578C78.3035 6.00762 78.279 5.91124 78.2312 5.86308C76.6395 4.63461 74.7341 3.67112 72.6119 3.50247H72.588C73.4561 2.4426 74.7102 1.67182 76.0366 1.47912ZM64.4126 10.9937C65.0394 9.21123 66.1005 7.59737 67.4992 6.3689C68.1989 5.7667 68.9947 5.26087 69.8628 4.92363C70.0797 4.85136 70.2966 4.75504 70.5141 4.70688C70.2488 5.50173 70.1036 6.3689 70.152 7.21197C70.1759 7.76602 70.2727 8.29589 70.4173 8.82583C70.5619 9.35577 70.7549 9.86159 70.9718 10.3193C71.816 12.174 72.9255 13.9806 74.4927 15.3777C75.2647 16.0762 76.1567 16.6543 77.0978 17.0879C77.4831 17.2565 77.8691 17.377 78.279 17.4974C77.8691 17.931 77.4353 18.3646 76.9526 18.7259C75.4816 19.9062 73.7937 20.8456 71.9851 21.2792C70.2004 21.7368 68.2712 21.6887 66.7279 20.8215C65.9559 20.3879 65.3286 19.7616 64.8464 19.0149C64.3642 18.2682 64.0505 17.4251 63.882 16.5098C63.52 14.6791 63.7614 12.7521 64.4126 10.9937ZM55.4895 13.5952C55.6824 13.3784 55.8512 13.1616 56.0682 13.0171C56.2851 12.8485 56.5264 12.728 56.7678 12.6076C57.2739 12.3908 57.8289 12.3186 58.335 12.3667C58.8417 12.439 59.2277 12.6799 59.3478 13.0171C59.4206 13.1857 59.4206 13.4266 59.3962 13.6675C59.3723 13.8843 59.2755 14.101 59.1309 14.2937C58.8656 14.6791 58.3834 14.9682 57.8529 15.1368C57.3223 15.3295 56.7433 15.3777 56.1889 15.3536C55.7065 15.3295 55.2242 15.2332 54.7418 15.0886C54.8383 14.5587 55.1036 14.0288 55.4895 13.5952ZM46.3253 13.3543C46.687 12.0295 47.1453 10.7047 47.7481 9.45215C48.0375 8.82583 48.351 8.19957 48.7369 7.64553C49.0987 7.06743 49.4845 6.5616 49.9909 6.24848C50.4733 5.91124 51.0521 5.86308 51.3174 6.12805C51.6309 6.39301 51.7032 6.99516 51.5585 7.59737C51.2932 8.87405 50.6662 10.1266 49.9186 11.2587C49.1469 12.3908 48.2305 13.4266 47.2417 14.3901C46.8076 14.7996 46.3735 15.2091 45.9394 15.5945C46.0118 14.8478 46.1565 14.101 46.3253 13.3543ZM29.9745 16.4616C30.1674 15.739 30.4327 15.0405 30.7221 14.3419C31.4215 12.6799 32.2414 11.066 33.1338 9.4762C33.8572 9.30761 34.5807 9.13902 35.3042 8.99448C36.1482 8.84994 36.9682 8.68135 37.8123 8.56086C38.2223 8.5127 38.6563 8.41638 39.0663 8.36816L40.1274 8.22368C39.3557 9.25945 38.584 10.2711 37.7881 11.3069C36.8476 12.5353 35.883 13.7638 34.9183 14.9923C34.436 15.5945 33.9537 16.2208 33.4473 16.7989C32.9408 17.377 32.4826 18.0273 31.9761 18.485C31.7109 18.7259 31.4456 18.9186 31.1562 19.0872C30.8668 19.2558 30.5774 19.3762 30.3363 19.4003C30.2157 19.4003 30.1192 19.4003 30.0469 19.3762C29.9745 19.3522 29.9263 19.3281 29.8781 19.2558C29.7816 19.1354 29.6851 18.8704 29.661 18.5573C29.6369 17.9069 29.7816 17.1843 29.9745 16.4616ZM19.3875 5.62222C19.7975 4.85136 20.2557 4.10468 20.8345 3.50247C21.1239 3.18934 21.4133 2.94848 21.7268 2.75579C22.0403 2.58714 22.402 2.46671 22.7156 2.49082C23.0291 2.49082 23.2944 2.61125 23.4631 2.828C23.6319 3.0448 23.7284 3.35793 23.7526 3.76744C23.8008 4.53824 23.5596 5.35725 23.1979 6.10394C22.812 6.82657 22.2814 7.50105 21.6303 8.03098C20.4969 8.97037 19.074 9.50031 17.5788 9.71711C17.7958 9.16307 18.037 8.58497 18.2541 8.03098C18.6158 7.21197 18.9775 6.39301 19.3875 5.62222ZM2.02387 20.5806C2.31327 19.858 2.84382 19.2076 3.49496 18.7259C4.79726 17.7624 6.65418 17.4733 8.14938 18.1237C8.51115 18.2923 8.92108 18.5091 9.30694 18.7259C9.69279 18.9427 10.0786 19.1595 10.4646 19.4003C10.8504 19.6412 11.2363 19.858 11.6221 20.0989C11.2121 20.7733 10.7781 21.4237 10.2716 22.0018C10.0064 22.3149 9.71693 22.604 9.40343 22.8449C9.08993 23.0857 8.72816 23.3266 8.36644 23.4952C7.64295 23.8806 6.8471 24.1456 6.05126 24.266C5.25547 24.3624 4.41135 24.3383 3.68792 24.0974C2.94029 23.8565 2.31327 23.3989 1.99976 22.7726C1.83095 22.4595 1.78271 22.1222 1.80683 21.7368C1.80683 21.3514 1.87918 20.966 2.02387 20.5806Z" fill="white"/>
<path d="M25.1029 14.2695C25.1029 14.5104 24.8859 14.7031 24.6447 14.7031C24.3795 14.7031 24.1865 14.5104 24.1865 14.2695C24.1865 14.0286 24.4035 13.8359 24.6447 13.8359C24.8859 13.8359 25.1029 14.0286 25.1029 14.2695Z" fill="white"/>
</svg>
