<svg width="123" height="30" viewBox="0 0 123 30" fill="none" xmlns="http://www.w3.org/2000/svg">
<g clip-path="url(#clip0_384_151)">
<path d="M10.5437 25.5328C11.1017 25.5328 11.6536 25.4841 12.1995 25.3867C12.7453 25.2771 13.2427 25.1492 13.6914 25.0031V28.2541C13.2184 28.461 12.6058 28.6376 11.8538 28.7837C11.1017 28.9298 10.3193 29.0029 9.5066 29.0029C8.36632 29.0029 7.34133 28.8142 6.43157 28.4367C5.52181 28.0471 4.80007 27.3835 4.26634 26.446C3.73261 25.5084 3.46575 24.2117 3.46575 22.5558V11.6888H0.718262V9.77118L3.66589 8.25527L5.06693 3.92676H7.75985V8.41961H13.5277V11.6888H7.75985V22.501C7.75985 23.5238 8.01453 24.2848 8.524 24.7839C9.03346 25.2832 9.70672 25.5328 10.5437 25.5328Z" fill="white"/>
<path d="M24.8778 8.03564C26.673 8.03564 28.2135 8.407 29.4994 9.1497C30.7851 9.89247 31.7737 10.9457 32.4652 12.3094C33.1566 13.673 33.5023 15.3046 33.5023 17.204V19.5053H20.056C20.1045 21.4656 20.6261 22.9754 21.6208 24.0347C22.6276 25.094 24.0347 25.6237 25.8421 25.6237C27.1279 25.6237 28.2802 25.5019 29.2992 25.2584C30.3302 25.0026 31.3917 24.6313 32.4834 24.1443V27.6326C31.4766 28.1075 30.4516 28.4545 29.4083 28.6737C28.3651 28.8928 27.1157 29.0024 25.6601 29.0024C23.6829 29.0024 21.9422 28.6189 20.4381 27.8518C18.9461 27.0725 17.7755 25.9159 16.9264 24.3817C16.0894 22.8476 15.6709 20.942 15.6709 18.6651C15.6709 16.4004 16.053 14.4766 16.8172 12.8938C17.5814 11.311 18.655 10.1056 20.0378 9.27758C21.4207 8.4496 23.034 8.03564 24.8778 8.03564ZM24.8778 11.2683C23.5313 11.2683 22.4396 11.7066 21.6026 12.5833C20.7777 13.4599 20.2926 14.7445 20.147 16.437H29.3174C29.3052 15.4264 29.1354 14.5315 28.8079 13.7522C28.4925 12.9729 28.0073 12.3641 27.3523 11.9258C26.7094 11.4875 25.8845 11.2683 24.8778 11.2683Z" fill="white"/>
<path d="M41.6862 28.6376H37.3921V0.219238H41.6862V28.6376Z" fill="white"/>
<path d="M54.8923 8.03564C56.6876 8.03564 58.2282 8.407 59.5138 9.1497C60.8 9.89247 61.7881 10.9457 62.4798 12.3094C63.1709 13.673 63.5168 15.3046 63.5168 17.204V19.5053H50.0706C50.1191 21.4656 50.6408 22.9754 51.6354 24.0347C52.6422 25.094 54.0493 25.6237 55.8567 25.6237C57.1425 25.6237 58.2949 25.5019 59.3135 25.2584C60.3447 25.0026 61.4061 24.6313 62.4978 24.1443V27.6326C61.4911 28.1075 60.4664 28.4545 59.423 28.6737C58.3798 28.8928 57.1304 29.0024 55.6748 29.0024C53.6976 29.0024 51.9569 28.6189 50.4527 27.8518C48.9607 27.0725 47.7901 25.9159 46.941 24.3817C46.1041 22.8476 45.6855 20.942 45.6855 18.6651C45.6855 16.4004 46.0677 14.4766 46.8319 12.8938C47.5961 11.311 48.6696 10.1056 50.0524 9.27758C51.4352 8.4496 53.0486 8.03564 54.8923 8.03564ZM54.8923 11.2683C53.5459 11.2683 52.4542 11.7066 51.6172 12.5833C50.7924 13.4599 50.3071 14.7445 50.1616 16.437H59.3322C59.3199 15.4264 59.1499 14.5315 58.8227 13.7522C58.5072 12.9729 58.0219 12.3641 57.3669 11.9258C56.724 11.4875 55.8992 11.2683 54.8923 11.2683Z" fill="white"/>
<path d="M74.9037 25.5328C75.4615 25.5328 76.0134 25.4841 76.559 25.3867C77.1051 25.2771 77.6024 25.1492 78.0513 25.0031V28.2541C77.5779 28.461 76.9654 28.6376 76.2137 28.7837C75.4614 28.9298 74.6789 29.0029 73.8661 29.0029C72.726 29.0029 71.7007 28.8142 70.7912 28.4367C69.8812 28.0471 69.1598 27.3835 68.6259 26.446C68.0925 25.5084 67.8253 24.2117 67.8253 22.5558V11.6888H65.0776V9.77118L68.0256 8.25527L69.4264 3.92676H72.1193V8.41961H77.8877V11.6888H72.1193V22.501C72.1193 23.5238 72.3744 24.2848 72.8838 24.7839C73.3933 25.2832 74.0664 25.5328 74.9037 25.5328Z" fill="white"/>
<path d="M85.4895 8.41909V28.6371H81.2135V8.41909H85.4895ZM83.3789 0.675293C84.0339 0.675293 84.5975 0.851841 85.0709 1.20494C85.5559 1.55804 85.7987 2.16683 85.7987 3.03132C85.7987 3.88362 85.5559 4.49242 85.0709 4.85769C84.5975 5.21079 84.0339 5.38734 83.3789 5.38734C82.6994 5.38734 82.123 5.21079 81.6502 4.85769C81.1891 4.49242 80.9585 3.88362 80.9585 3.03132C80.9585 2.16683 81.1891 1.55804 81.6502 1.20494C82.123 0.851841 82.6994 0.675293 83.3789 0.675293Z" fill="white"/>
<path d="M100.897 8.03564C101.237 8.03564 101.607 8.05388 102.007 8.09046C102.408 8.12693 102.754 8.17568 103.045 8.23657L102.644 12.2546C102.39 12.1815 102.074 12.1267 101.698 12.0902C101.334 12.0537 101.007 12.0354 100.716 12.0354C99.9512 12.0354 99.2234 12.1633 98.5322 12.4189C97.8405 12.6625 97.228 13.0399 96.6941 13.5513C96.1608 14.0505 95.7421 14.6776 95.4388 15.4324C95.1354 16.1874 94.984 17.064 94.984 18.0624V28.6371H90.6899V8.41915H94.0379L94.6201 11.9806H94.8204C95.2204 11.2622 95.7177 10.6047 96.3121 10.0081C96.9066 9.41153 97.5861 8.93668 98.35 8.58356C99.1267 8.21828 99.9756 8.03564 100.897 8.03564Z" fill="white"/>
<path d="M113.867 8.03564C115.662 8.03564 117.202 8.407 118.489 9.1497C119.774 9.89247 120.763 10.9457 121.455 12.3094C122.146 13.673 122.492 15.3046 122.492 17.204V19.5053H109.045C109.093 21.4656 109.615 22.9754 110.61 24.0347C111.617 25.094 113.024 25.6237 114.831 25.6237C116.117 25.6237 117.269 25.5019 118.288 25.2584C119.319 25.0026 120.381 24.6313 121.473 24.1443V27.6326C120.466 28.1075 119.441 28.4545 118.398 28.6737C117.354 28.8928 116.105 29.0024 114.649 29.0024C112.672 29.0024 110.932 28.6189 109.427 27.8518C107.935 27.0725 106.764 25.9159 105.915 24.3817C105.079 22.8476 104.66 20.942 104.66 18.6651C104.66 16.4004 105.042 14.4766 105.807 12.8938C106.571 11.311 107.644 10.1056 109.027 9.27758C110.41 8.4496 112.023 8.03564 113.867 8.03564ZM113.867 11.2683C112.521 11.2683 111.429 11.7066 110.592 12.5833C109.767 13.4599 109.281 14.7445 109.136 16.437H118.306C118.294 15.4264 118.125 14.5315 117.797 13.7522C117.482 12.9729 116.996 12.3641 116.341 11.9258C115.698 11.4875 114.873 11.2683 113.867 11.2683Z" fill="white"/>
</g>
<defs>
<clipPath id="clip0_384_151">
<rect width="122.272" height="29.222" fill="white" transform="translate(0.572266)"/>
</clipPath>
</defs>
</svg>
