<svg width="158" height="54" viewBox="0 0 158 54" fill="none" xmlns="http://www.w3.org/2000/svg">
<path d="M26.5336 53.7468C26.1968 53.7468 26.0284 53.7468 25.6748 53.7468L31.1307 38.8946H38.641C40.005 38.8946 41.369 37.8674 41.891 36.6718L47.7006 20.4556C48.7277 17.896 47.1954 15.6732 44.2822 15.6732H33.8755L25.338 39.3998L20.3873 52.888C8.785 50.1601 0.0791016 39.585 0.0791016 27.1239C0.0791016 14.9997 8.26299 4.76138 19.3601 1.52824L14.2409 15.5217L5.87181 38.7262H11.4961L18.6865 19.1084H22.9468L15.7733 38.7262H21.4145L28.066 20.304C29.0932 17.7445 27.5608 15.5217 24.6476 15.5217H19.8652L25.3212 0.669434C25.658 0.669434 26.18 0.669434 26.5168 0.669434C41.2006 0.669434 52.9712 12.6085 52.9712 27.1239C52.9881 41.7909 41.2006 53.7468 26.5336 53.7468ZM42.9182 18.7548H38.8263L33.0167 34.449H37.1087L42.9182 18.7548Z" fill="white"/>
<path d="M73.33 3.49854C69.659 3.49854 66.6953 6.46225 66.6953 10.1332V15.9764C66.6953 19.6474 69.659 22.6111 73.33 22.6111C77.0009 22.6111 79.9647 19.6474 79.9647 15.9764V10.1332C79.9647 6.46225 76.9841 3.49854 73.33 3.49854ZM77.0683 16.5153C77.0683 18.6034 75.3844 20.2873 73.2963 20.2873C71.2082 20.2873 69.5243 18.6034 69.5243 16.5153V9.56067C69.5243 7.4726 71.2082 5.78867 73.2963 5.78867C75.3844 5.78867 77.0683 7.4726 77.0683 9.56067V16.5153Z" fill="white"/>
<path d="M93.7729 3.04363C90.8765 3.1615 90.9102 5.88947 90.9102 7.25345C90.9102 7.47236 90.9102 8.02805 90.9102 8.78582H86.3973C86.3973 7.42184 86.4141 6.41148 86.4141 6.09154C86.431 4.62652 89.7146 5.23274 89.7146 5.23274V3.59932C89.7146 3.59932 89.3947 2.92576 86.4983 3.04363C83.602 3.1615 83.6357 5.88947 83.6357 7.25345C83.6357 7.47236 83.6357 8.02805 83.6357 8.78582H82.1201V10.5034C82.1201 10.7392 82.3053 10.9244 82.5411 10.9244H83.6357C83.6357 15.3868 83.6357 22.2236 83.6357 22.2236H86.3299C86.3299 22.2236 86.3636 15.7068 86.3805 10.9244H90.9102C90.9102 15.3868 90.9102 22.2236 90.9102 22.2236H93.6045C93.6045 22.2236 93.6382 15.7068 93.655 10.9244H96.8376V9.2068C96.8376 8.97105 96.6524 8.78582 96.4167 8.78582H93.6719C93.6719 7.42184 93.6887 6.41148 93.6887 6.09154C93.7055 4.62652 96.9892 5.23274 96.9892 5.23274V3.59932C96.9892 3.59932 96.6692 2.92576 93.7729 3.04363Z" fill="white"/>
<path d="M101.3 8.80273H99.1782V21.7016C99.1782 22.0047 99.414 22.2405 99.7171 22.2405H101.839V9.34159C101.856 9.03848 101.603 8.80273 101.3 8.80273Z" fill="white"/>
<path d="M100.795 3.6499H100.239C99.3972 3.6499 98.7236 4.32347 98.7236 5.16544V5.2328C98.7236 6.07476 99.3972 6.74833 100.239 6.74833H100.795C101.637 6.74833 102.31 6.07476 102.31 5.2328V5.16544C102.31 4.34031 101.637 3.6499 100.795 3.6499Z" fill="white"/>
<path d="M118.476 8.80273H116.354V21.7016C116.354 22.0047 116.59 22.2405 116.893 22.2405H119.015V9.34159C119.015 9.03848 118.763 8.80273 118.476 8.80273Z" fill="white"/>
<path d="M117.954 3.6499H117.398C116.556 3.6499 115.883 4.32347 115.883 5.16544V5.2328C115.883 6.07476 116.556 6.74833 117.398 6.74833H117.954C118.796 6.74833 119.47 6.07476 119.47 5.2328V5.16544C119.47 4.34031 118.796 3.6499 117.954 3.6499Z" fill="white"/>
<path d="M113.492 20.22C112.38 20.3716 108.962 20.6915 108.137 19.1423C107.143 17.29 107.076 11.6994 109.096 10.9416C111.1 10.1838 113.677 10.9416 113.677 10.9416V9.29135C113.677 9.29135 111.622 7.69163 107.884 8.80302C104.062 9.93125 104.55 17.7278 105.745 20.3716C106.924 23.0154 111.841 22.6112 113.845 21.8534V20.5231C113.845 20.3379 113.677 20.1864 113.492 20.22Z" fill="white"/>
<path d="M122.518 9.15655V10.4027C122.518 10.7058 122.77 10.9247 123.073 10.891C124.1 10.7563 126.306 10.5205 127.704 10.7058C129.573 10.9415 129.59 12.1539 129.607 13.9052C128.378 13.7705 123.157 13.3832 122.08 16.128C120.851 19.2433 122.703 22.4259 125.734 22.4091C127.99 22.3922 129.321 21.2977 129.843 20.742V21.6513C129.843 21.9712 130.112 22.2407 130.432 22.2407H132.167C132.167 22.2407 132.167 14.4272 132.167 12.2213C132.167 9.99851 130.466 7.05164 122.518 9.15655ZM126.357 20.422C123.949 20.1189 123.747 17.5088 124.69 16.4985C125.498 15.6397 128.698 15.7239 129.624 15.7575C129.624 16.8184 129.624 18.014 129.624 18.9233C128.883 19.7148 127.738 20.6073 126.357 20.422Z" fill="white"/>
<path d="M139.508 20.2027H138.953C138.262 20.2027 138.077 19.9838 138.077 19.3608C138.077 18.7377 138.077 3.24561 138.077 3.24561H135.383V19.8323C135.383 21.1626 136.461 22.2235 137.774 22.2235H139.508C139.761 22.2235 139.963 22.0214 139.963 21.7688V20.6406C139.963 20.4217 139.761 20.2027 139.508 20.2027Z" fill="white"/>
<path d="M81.4972 36.9243H79.3755V49.8232C79.3755 50.1263 79.6112 50.3621 79.9143 50.3621H82.0361V37.4632C82.0361 37.1769 81.8003 36.9243 81.4972 36.9243Z" fill="white"/>
<path d="M80.975 31.7886H80.4193C79.5774 31.7886 78.9038 32.4621 78.9038 33.3041V33.3715C78.9038 34.2134 79.5774 34.887 80.4193 34.887H80.975C81.817 34.887 82.4906 34.2134 82.4906 33.3715V33.3041C82.4906 32.4621 81.817 31.7886 80.975 31.7886Z" fill="white"/>
<path d="M93.6888 48.3416C92.5774 48.4932 89.159 48.8131 88.3339 47.2639C87.3404 45.4116 87.273 39.821 89.2937 39.0632C91.2976 38.3054 93.874 39.0632 93.874 39.0632V37.4129C93.874 37.4129 91.8196 35.8132 88.0813 36.9246C84.2588 38.0528 84.7471 45.8494 85.9427 48.4932C87.1215 51.1369 92.0385 50.7328 94.0424 49.975V48.6447C94.0256 48.4595 93.8572 48.3248 93.6888 48.3416Z" fill="white"/>
<path d="M76.9335 50.3787H66.9814V31.8555H69.3053C69.6757 31.8555 69.9788 32.1586 69.9788 32.529V47.9033H76.3609C76.6809 47.9033 76.9335 48.1559 76.9335 48.4758V50.3787Z" fill="white"/>
<path d="M105.982 44.5698C105.982 44.5698 107.565 36.3186 101.149 36.5375C94.733 36.7732 94.7835 45.3949 96.8885 48.6954C98.9934 51.9959 105.712 49.9752 105.712 49.9752V48.4765C105.712 48.2576 105.51 48.0892 105.291 48.1229C104.55 48.2576 102.883 48.5102 100.879 48.3923C98.1514 48.2239 98.2356 44.5698 98.2356 44.5698H105.982ZM100.997 38.5919C104.601 38.5919 103.692 42.667 103.692 42.667H98.2524C98.2524 42.6838 97.9156 38.5919 100.997 38.5919Z" fill="white"/>
<path d="M144.594 44.5698C144.594 44.5698 146.177 36.3186 139.761 36.5375C133.345 36.7732 133.396 45.3949 135.501 48.6954C137.606 51.9959 144.325 49.9752 144.325 49.9752V48.4765C144.325 48.2576 144.122 48.0892 143.904 48.1229C143.163 48.2576 141.496 48.5102 139.492 48.3923C136.764 48.2239 136.848 44.5698 136.848 44.5698H144.594ZM139.61 38.5919C143.213 38.5919 142.304 42.667 142.304 42.667H136.865C136.865 42.6838 136.528 38.5919 139.61 38.5919Z" fill="white"/>
<path d="M157.509 44.5698C157.509 44.5698 159.092 36.3186 152.677 36.5375C146.261 36.7732 146.311 45.3949 148.416 48.6954C150.521 51.9959 157.24 49.9752 157.24 49.9752V48.4765C157.24 48.2576 157.038 48.0892 156.819 48.1229C156.078 48.2576 154.411 48.5102 152.407 48.3923C149.679 48.2239 149.763 44.5698 149.763 44.5698H157.509ZM152.525 38.5919C156.129 38.5919 155.219 42.667 155.219 42.667H149.78C149.78 42.6838 149.443 38.5919 152.525 38.5919Z" fill="white"/>
<path d="M131.206 38.9786V37.3283C131.206 37.3283 129.59 36.52 126.39 36.5369C123.191 36.5369 122.4 38.5913 122.231 40.4941C122.063 42.3969 123.292 43.862 125.397 44.1819C127.502 44.5187 129.32 45.1081 129.287 46.5562C129.253 48.0044 128.108 48.7622 122.501 48.0381V49.4863C122.501 49.4863 122.669 50.5977 127.047 50.5808C131.425 50.564 132.587 46.7415 131.358 44.3166C130.129 41.8918 125.498 42.8348 124.959 40.9488C124.454 39.0796 125.565 38.2545 131.206 38.9786Z" fill="white"/>
<path d="M111.707 50.3116H109.568C109.248 50.3116 108.979 50.0422 108.979 49.7222V36.7392H110.764C111.185 36.7392 111.522 37.076 111.522 37.4969V38.2547C111.522 38.2547 112.65 36.5034 115.58 36.5371C118.51 36.5708 119.706 37.9853 119.739 40.427C119.773 42.8687 119.739 50.3116 119.739 50.3116H117.567C117.247 50.3116 116.978 50.0422 116.978 49.7222V40.6459C116.978 38.8778 114.435 37.7664 111.707 40.0733V50.3116Z" fill="white"/>
</svg>
