<svg width="75" height="28" viewBox="0 0 75 28" fill="none" xmlns="http://www.w3.org/2000/svg">
<g clip-path="url(#clip0_384_160)">
<mask id="mask0_384_160" style="mask-type:luminance" maskUnits="userSpaceOnUse" x="0" y="0" width="75" height="28">
<path d="M74.504 0H0.426758V27.1862H74.504V0Z" fill="white"/>
</mask>
<g mask="url(#mask0_384_160)">
<path d="M1.01626 23.9448C0.623257 23.9448 0.426758 23.8081 0.426758 23.5347V23.4016L5.44764 2.59601C5.48065 2.52474 5.49692 2.44682 5.4952 2.36824C5.4527 2.11378 5.36047 1.87026 5.22384 1.65171C5.08721 1.43316 4.90886 1.24389 4.69907 1.0948C4.16935 0.607961 3.90475 0.318885 3.90527 0.227571C3.90527 0.077293 4.04173 -0.000976562 4.31386 -0.000976562H15.5206C15.8845 -0.000976562 16.0664 0.150866 16.0664 0.454552V0.591524L11.0455 21.3486V21.4848C11.0455 21.7885 11.242 21.9403 11.635 21.9403H39.6183C39.86 21.9403 39.9809 21.9857 39.9809 22.0765C39.9809 22.1381 39.8902 22.2291 39.7088 22.3497L37.8935 23.5347C37.5229 23.8007 37.0789 23.9441 36.6232 23.9448H1.01626Z" fill="white"/>
<path d="M44.6501 2.55094C45.0436 2.55094 45.2404 2.70279 45.2404 3.00647C45.2347 3.05449 45.2193 3.10084 45.1951 3.14266L42.0932 14.8275C41.7219 16.0103 40.9308 17.0149 39.8701 17.6507C38.7192 18.431 37.3602 18.8438 35.9713 18.8349H20.5336C20.1235 18.8597 19.7189 18.7299 19.3991 18.471L18.2193 17.2414C18.1681 17.1756 18.1368 17.0966 18.1289 17.0136C18.1289 16.8915 18.2648 16.8307 18.5367 16.8312H30.7508C31.5067 16.8312 31.8846 16.3 31.8846 15.2377C31.8846 14.9645 31.6873 14.8275 31.2951 14.8275H21.9481C20.8975 14.8688 19.8646 14.5473 19.0217 13.9165C18.6579 13.6504 18.363 13.3007 18.1617 12.8966C17.9604 12.4926 17.8584 12.0459 17.8645 11.5942C17.8646 11.3183 17.895 11.0432 17.955 10.7739L19.4724 5.14949C19.4992 5.07636 19.5147 4.99956 19.5184 4.92173C19.4821 4.66226 19.3929 4.41309 19.2563 4.1898C19.1197 3.96651 18.9387 3.7739 18.7246 3.62402C18.1949 3.1544 17.9303 2.85828 17.9308 2.73566C17.9308 2.61434 18.0673 2.55329 18.3386 2.55329H29.5461C29.91 2.55329 30.0919 2.70513 30.0919 3.00882V3.14501L27.67 12.2313C27.6688 12.2487 27.6642 12.2657 27.6565 12.2813C27.6487 12.2969 27.6379 12.3107 27.6248 12.3221C27.6248 12.6258 27.8208 12.7776 28.2127 12.7776H31.8339C32.3158 12.7776 32.6017 12.595 32.6917 12.2298L35.1144 3.14423C35.1563 2.95441 35.2683 2.78762 35.428 2.6775C35.5876 2.56739 35.7829 2.52216 35.9745 2.55094H44.6501Z" fill="white"/>
<path d="M43.6953 18.1639C43.4832 18.1639 43.3774 18.1185 43.3779 18.0277C43.3779 17.9369 43.4559 17.8453 43.6049 17.7545L53.3144 12.0722C53.4175 12.0097 53.5042 11.9234 53.5673 11.8205C53.6303 11.7175 53.668 11.601 53.677 11.4805C53.6745 11.3823 53.6427 11.2872 53.5858 11.2073C49.5627 5.65119 47.5512 2.84262 47.5512 2.78157C47.5512 2.62973 47.7025 2.5538 48.005 2.5538H58.1232C58.3145 2.53891 58.5064 2.57287 58.6811 2.65252C58.8557 2.73217 59.0074 2.85493 59.1221 3.00933L61.3904 6.51581C61.4378 6.59201 61.5053 6.65358 61.5854 6.69377C61.6654 6.73395 61.755 6.75119 61.8442 6.74357C62.0267 6.74327 62.2033 6.67874 62.3433 6.56121L67.3797 2.96081C67.7463 2.68616 68.1935 2.54186 68.6508 2.55067H74.141C74.3833 2.55067 74.5044 2.59607 74.5044 2.68686C74.5044 2.74791 74.4288 2.83897 74.2775 2.96002L64.5679 9.24507C64.4643 9.29568 64.3761 9.37315 64.3123 9.46948C64.2486 9.56581 64.2117 9.67749 64.2054 9.79296C64.1999 9.88626 64.2154 9.9796 64.2506 10.0661C68.3053 15.6233 70.3327 17.8281 70.3327 17.8892C70.3327 18.0713 70.1814 18.1623 69.8789 18.1623H59.7576C59.5664 18.1775 59.3745 18.1437 59.1999 18.064C59.0253 17.9843 58.8738 17.8614 58.7595 17.7068L56.4904 14.7576C56.4347 14.693 56.3645 14.6428 56.2855 14.6111C56.2066 14.5793 56.1212 14.567 56.0366 14.5752C55.8609 14.5736 55.6882 14.6207 55.5375 14.7114L50.5011 17.7522C50.1347 18.0265 49.6878 18.1708 49.2308 18.1623L43.6953 18.1639Z" fill="white"/>
<path d="M43.9089 18.4839L48.6756 18.4886C50.338 18.4886 50.5571 19.1648 50.3131 20.0673L50.1322 20.7334C50.0201 21.175 49.7583 21.5637 49.3917 21.8326C49.0252 22.1016 48.5768 22.234 48.1235 22.2072H44.6489L44.1865 23.908H42.4375L43.9089 18.4839ZM44.9584 21.059H47.6767C47.8326 21.0747 47.9889 21.0341 48.1176 20.9444C48.2462 20.8547 48.3388 20.7219 48.3785 20.5698L48.5009 20.1197C48.5859 19.8066 48.4448 19.6298 47.9169 19.629H45.3483L44.9584 21.059Z" fill="white"/>
<path d="M52.9636 18.4907L58.2426 18.4954C59.59 18.4954 59.8021 19.0378 59.5806 19.8643L59.5027 20.1563C59.4448 20.5008 59.2838 20.8195 59.0412 21.07C58.7986 21.3205 58.4858 21.491 58.1443 21.5589V21.5714C58.6442 21.6497 59.027 21.8328 58.8212 22.5889L58.4609 23.9148H56.7119L56.8624 23.3614C56.9942 22.8777 57.3482 22.1756 56.8039 22.1756H53.7176L53.2451 23.9148H51.4961L52.9636 18.4907ZM54.0241 21.0282H56.9154C57.388 21.0282 57.6032 20.8764 57.6952 20.5453L57.8106 20.1211C57.9213 19.7141 57.6897 19.6374 57.1384 19.6366H54.4046L54.0241 21.0282Z" fill="white"/>
<path d="M61.8459 20.1142C62.2124 18.7656 63.2362 18.4486 64.809 18.4502H67.6162C69.1921 18.4502 70.0436 18.7703 69.6771 20.1189L69.0821 22.3105C68.7156 23.6583 67.6918 23.976 66.1191 23.9745H63.3119C61.736 23.9745 60.8845 23.6543 61.251 22.3058L61.8459 20.1142ZM63.1645 21.8635C62.9829 22.5312 63.0865 22.7855 63.9146 22.7863H66.1526C66.9799 22.7863 67.2224 22.5327 67.4002 21.8651L67.7565 20.5541C67.9125 19.9819 67.8345 19.6321 66.912 19.6305H64.8628C63.9404 19.6305 63.6721 19.9788 63.517 20.5517L63.1645 21.8635Z" fill="white"/>
</g>
</g>
<defs>
<clipPath id="clip0_384_160">
<rect width="74.0773" height="27.1862" fill="white" transform="translate(0.426758)"/>
</clipPath>
</defs>
</svg>
