<svg width="144" height="51" viewBox="0 0 144 51" fill="none" xmlns="http://www.w3.org/2000/svg">
<g clip-path="url(#clip0_384_243)">
<path d="M32.7539 4.34604C32.7539 4.93876 32.7539 5.53148 32.7539 6.14216C33.1734 6.27239 33.1734 6.27239 33.6013 6.40526C33.9689 6.52218 34.3364 6.63911 34.7151 6.75957C35.2612 6.93148 35.2612 6.93148 35.8183 7.10687C36.8469 7.48924 36.8469 7.48924 38.2112 8.3873C38.0611 9.42456 37.9111 10.4618 37.7564 11.5305C36.6763 11.8111 36.6763 11.8111 35.4826 11.9795C35.0323 11.535 35.0323 11.535 34.573 11.0815C33.9727 11.0815 33.3724 11.0815 32.7539 11.0815C32.5288 11.7483 32.5288 11.7483 32.2991 12.4286C33.3497 12.7249 34.4002 13.0213 35.4826 13.3266C35.3325 14.3639 35.1824 15.4011 35.0278 16.4698C34.7183 16.2661 34.4087 16.0623 34.0898 15.8524C32.7482 15.0468 32.7482 15.0468 31.0769 14.7018C29.5705 14.2247 29.5705 14.2247 28.9167 13.2705C28.8323 12.9927 28.7479 12.7148 28.6609 12.4286C28.6609 13.3176 28.6609 14.2067 28.6609 15.1227C29.3644 15.095 29.3644 15.095 30.0821 15.0666C31.3716 15.2452 31.7749 15.4936 32.6473 16.4751C34.1737 18.8638 34.9221 20.837 35.0278 23.6543C35.7004 23.6664 36.3731 23.6751 37.0459 23.6824C37.6078 23.6902 37.6078 23.6902 38.181 23.6981C39.117 23.7588 39.117 23.7588 39.5755 23.2053C41.0928 23.1412 42.6042 23.1863 44.1233 23.2053C44.1233 24.9834 44.1233 26.7616 44.1233 28.5936C43.2228 29.0381 43.2228 29.0381 42.3042 29.4917C42.0791 29.9362 42.0791 29.9362 41.8494 30.3897C41.5493 30.3897 41.2491 30.3897 40.9399 30.3897C40.3112 29.6595 39.7032 28.9113 39.1208 28.1446C38.7831 28.302 38.4454 28.4595 38.0975 28.6217C36.7183 29.0859 36.3651 29.0337 35.0278 28.5936C34.1192 28.4383 33.2098 28.2876 32.2991 28.1446C32.5243 28.4965 32.7494 28.8484 32.9813 29.211C33.6635 30.3897 33.6635 30.3897 33.6635 31.2878C33.0708 31.313 33.0708 31.313 32.4661 31.3386C28.535 31.4895 28.535 31.4895 25.0227 33.0839C24.0136 34.5785 24.0166 35.1293 23.9711 36.8726C23.7708 39.2211 23.7708 39.2211 22.8341 40.4648C21.0029 41.3511 19.1309 41.94 17.1743 42.5012C15.9326 42.9605 15.3154 43.2412 14.5629 44.3096C14.5629 44.9023 14.5629 45.4951 14.5629 46.1057C14.8372 46.0797 15.1116 46.0536 15.3943 46.0268C18.3733 45.8608 18.3733 45.8608 19.8212 47.116C20.475 48.3509 20.475 48.3509 20.475 50.147C20.2217 50.0636 19.9685 49.9803 19.7075 49.8944C18.458 49.661 17.6209 49.8849 16.382 50.147C15.0177 50.3154 15.0177 50.3154 13.6533 50.147C10.9145 47.9959 10.411 45.8362 10.0151 42.5135C9.53676 42.6802 9.0584 42.8469 8.56553 43.0187C6.7351 43.4334 6.13625 43.4486 4.55782 42.5135C3.43993 40.8579 3.50676 39.9794 3.64827 38.0232C3.94842 37.5787 4.24858 37.1341 4.55782 36.6761C4.41585 35.4879 4.41585 35.4879 4.10305 34.431C4.85343 34.431 5.60381 34.431 6.37693 34.431C6.527 34.7273 6.67708 35.0237 6.8317 35.329C7.38042 35.4957 7.38042 35.4957 7.94022 35.6658C9.10558 36.2271 9.10558 36.2271 9.63319 37.6093C9.82225 38.2587 9.82225 38.2587 10.0151 38.9213C10.9149 38.1063 11.8027 37.2827 12.6869 36.4516C12.9396 36.2247 13.1923 35.9978 13.4526 35.764C15.3755 33.934 15.9105 32.5306 16.382 29.9407C16.5321 29.4962 16.6821 29.0516 16.8368 28.5936C16.6222 28.9999 16.6222 28.9999 16.4033 29.4145C14.216 33.4477 14.216 33.4477 12.7438 34.431C11.0384 34.5432 11.0384 34.5432 9.56036 34.431C9.71043 33.8383 9.86051 33.2455 10.0151 32.6349C9.60359 32.5611 9.60359 32.5611 9.18374 32.4858C5.42235 31.749 5.42235 31.749 4.10305 30.3897C4.10305 30.0934 4.10305 29.797 4.10305 29.4917C4.38796 29.4969 4.67287 29.5021 4.96641 29.5074C5.52392 29.5135 5.52392 29.5135 6.09269 29.5197C6.64668 29.5275 6.64668 29.5275 7.21187 29.5355C8.21848 29.5566 8.21848 29.5566 9.10558 29.0426C8.81422 29.0091 8.52286 28.9755 8.22268 28.9409C5.31874 28.505 3.27722 27.7398 1.37439 25.4504C1.37439 25.154 1.37439 24.8577 1.37439 24.5523C3.17531 24.7746 3.17531 24.7746 5.0126 25.0014C4.79862 24.8381 4.58465 24.6749 4.36419 24.5067C2.54279 23.0546 1.28733 21.8463 0.464844 19.613C0.61492 19.3167 0.764996 19.0203 0.919619 18.715C1.97015 19.4559 3.02068 20.1968 4.10305 20.9601C3.81228 20.5341 3.5215 20.1081 3.22192 19.6692C2.03183 17.6471 1.92286 15.6253 1.82917 13.3266C2.60611 14.0604 3.16372 14.6149 3.64827 15.5718C3.63772 15.1984 3.62717 14.8251 3.6163 14.4404C3.60809 13.9525 3.59988 13.4645 3.59143 12.9618C3.58087 12.4773 3.57032 11.9928 3.55945 11.4937C3.64827 10.1834 3.64827 10.1834 4.55782 8.83633C4.79408 9.23167 5.03033 9.62701 5.27374 10.0343C5.59392 10.5612 5.91429 11.088 6.23481 11.6147C6.46652 12.0041 6.46652 12.0041 6.70291 12.4014C9.1501 16.3984 12.9543 19.5485 17.2915 21.4091C19.1281 21.6486 20.2624 21.4692 21.8393 20.5111C21.2202 20.5389 21.2202 20.5389 20.5887 20.5672C19.1106 20.0621 19.1106 20.0621 18.5244 19.1745C17.3803 16.5496 17.1062 14.367 17.2915 11.5305C16.9914 11.5305 16.6912 11.5305 16.382 11.5305C16.6266 8.51131 17.5103 6.73717 19.7644 4.68281C23.7635 1.9862 28.4694 2.55135 32.7539 4.34604ZM20.475 26.3485C20.475 26.4966 20.475 26.6448 20.475 26.7975C21.2253 26.7975 21.9757 26.7975 22.7488 26.7975C22.7488 26.6493 22.7488 26.5011 22.7488 26.3485C21.9985 26.3485 21.2481 26.3485 20.475 26.3485ZM6.37693 38.0232C6.22685 38.7641 6.07677 39.505 5.92215 40.2684C6.82261 40.7129 6.82261 40.7129 7.74125 41.1664C8.34156 40.5737 8.94186 39.981 9.56036 39.3703C9.11013 39.2221 8.6599 39.0739 8.19603 38.9213C7.7458 39.1435 7.7458 39.1435 7.28648 39.3703C7.28648 38.9258 7.28648 38.4812 7.28648 38.0232C6.98633 38.0232 6.68617 38.0232 6.37693 38.0232Z" fill="white"/>
<path d="M67.4465 15.079C68.0717 15.0868 68.0717 15.0868 68.7095 15.0948C69.1275 15.0988 69.5455 15.1029 69.9762 15.1071C70.2992 15.1123 70.6222 15.1175 70.955 15.1229C71.276 15.9433 71.276 15.9433 71.6034 16.7804C71.8894 17.5095 72.1754 18.2386 72.4614 18.9677C72.6721 19.5064 72.6721 19.5064 72.8869 20.056C73.7182 22.1727 74.5834 24.2677 75.5028 26.3486C75.6528 26.3486 75.8029 26.3486 75.9575 26.3486C75.9575 22.6441 75.9575 18.9396 75.9575 15.1229C76.9612 15.1043 77.9648 15.0858 78.9988 15.0667C79.5634 15.0563 80.1279 15.0459 80.7096 15.0352C82.2624 15.1195 83.2411 15.2917 84.5983 16.0209C85.6568 17.5886 85.7366 18.2177 85.5078 20.0622C84.4581 21.5962 83.8396 21.8285 81.9833 22.1951C81.2517 22.2506 81.2517 22.2506 80.5053 22.3073C80.7304 24.7523 80.7304 24.7523 80.9601 27.2466C77.3582 27.2466 73.7564 27.2466 70.0455 27.2466C70.0455 26.0612 70.0455 24.8758 70.0455 23.6544C68.9949 23.6544 67.9444 23.6544 66.862 23.6544C66.862 24.8398 66.862 26.0253 66.862 27.2466C65.5113 27.2466 64.1607 27.2466 62.769 27.2466C62.9029 26.9212 63.0368 26.5958 63.1747 26.2606C63.6312 25.1199 64.0552 23.9757 64.4638 22.8177C64.6045 22.4198 64.7452 22.0219 64.8901 21.6119C65.1065 20.9976 65.1065 20.9976 65.3272 20.3709C65.4749 19.9527 65.6226 19.5345 65.7748 19.1036C66.1377 18.0762 66.5001 17.0486 66.862 16.0209C66.5619 15.8727 66.2617 15.7246 65.9525 15.5719C66.4072 15.1229 66.4072 15.1229 67.4465 15.079ZM80.5053 17.817C80.5053 19.0025 80.5053 20.1879 80.5053 21.4093C81.263 20.8864 81.263 20.8864 81.8696 20.0622C81.7648 18.8702 81.7648 18.8702 81.4148 17.817C81.1147 17.817 80.8145 17.817 80.5053 17.817ZM68.2264 19.6131C68.0763 20.2059 67.9262 20.7986 67.7716 21.4093C68.2218 21.2611 68.672 21.1129 69.1359 20.9602C68.8358 20.5157 68.5356 20.0712 68.2264 19.6131Z" fill="white"/>
<path d="M33.3792 32.9159C35.1034 34.4562 36.2214 35.7591 36.6479 38.0517C36.2913 39.8904 35.5975 40.4596 34.1182 41.6159C32.9327 42.2801 31.7254 42.8658 30.48 43.412C30.6301 44.1529 30.7802 44.8938 30.9348 45.6571C31.3076 45.6311 31.6805 45.605 32.0646 45.5782C36.0803 45.4122 36.0803 45.4122 37.6427 46.6394C38.2359 47.9572 38.2594 48.7321 38.2112 50.1474C37.0359 50.196 35.8626 50.2315 34.6867 50.2597C34.3549 50.2747 34.0231 50.2898 33.6812 50.3053C31.1742 50.3503 31.1742 50.3503 29.9329 49.2985C29.6632 48.9859 29.3935 48.6733 29.1157 48.3513C28.5573 48.1377 28.5573 48.1377 27.9876 47.9198C26.5449 47.3323 25.8807 46.548 24.8806 45.3765C24.5634 45.0095 24.2463 44.6425 23.9195 44.2644C23.5652 43.8425 23.5652 43.8425 23.2036 43.412C24.2993 42.3302 25.4517 41.8232 26.8418 41.1668C26.6269 39.0445 25.9743 37.5592 24.9055 35.7469C24.4838 34.6645 24.589 34.1493 25.0227 33.0843C27.467 31.5272 30.8556 31.7162 33.3792 32.9159Z" fill="white"/>
<path d="M126.893 15.1232C128.393 15.1232 129.894 15.1232 131.44 15.1232C132.191 16.9013 132.941 18.6795 133.714 20.5115C133.93 19.7058 134.146 18.9001 134.368 18.0699C135.022 15.6283 135.022 15.6283 135.533 15.1232C136.3 15.0908 137.068 15.0855 137.836 15.0951C138.254 15.0992 138.672 15.1032 139.102 15.1074C139.425 15.1126 139.748 15.1178 140.081 15.1232C140.071 15.412 140.06 15.7008 140.049 15.9984C139.973 19.7812 140.226 23.636 141.445 27.247C139.645 27.247 137.844 27.247 135.988 27.247C136.073 26.8395 136.157 26.432 136.244 26.0121C136.545 24.4851 136.545 24.4851 135.988 22.7567C135.388 24.2385 134.788 25.7203 134.169 27.247C131.895 26.7979 131.895 26.7979 131.176 25.7718C130.991 25.3603 130.806 24.9487 130.616 24.5247C130.426 24.112 130.235 23.6993 130.039 23.2741C129.901 22.9552 129.763 22.6362 129.621 22.3076C129.537 22.8726 129.452 23.4375 129.365 24.0196C129.318 24.3373 129.271 24.6551 129.222 24.9825C129.103 25.9908 129.103 25.9908 129.621 27.247C128.271 27.247 126.92 27.247 125.528 27.247C125.627 26.748 125.725 26.2491 125.827 25.735C126.513 22.1527 127.069 18.786 126.893 15.1232Z" fill="white"/>
<path d="M122.572 15.8806C124.379 17.531 125.144 18.7232 125.272 21.1567C125.197 23.1842 124.631 24.3559 123.254 25.8996C120.786 27.654 118.467 27.5972 115.523 27.2466C113.728 26.4382 113.027 25.795 111.942 24.1876C111.256 22.2701 111.023 20.7142 111.744 18.7625C112.458 17.3626 113.139 16.5524 114.414 15.6C117.236 14.7388 119.883 14.6008 122.572 15.8806ZM116.063 18.0416C115.304 19.6181 115.217 21.0626 115.523 22.7564C116.207 24.1344 116.207 24.1344 117.342 25.0015C118.499 25.3009 118.499 25.3009 119.616 25.0015C120.555 24.2838 120.933 23.8767 121.177 22.7178C121.18 20.9163 121.11 19.8461 120.213 18.238C119.232 17.2903 119.232 17.2903 117.996 17.1154C116.86 17.2882 116.86 17.2882 116.063 18.0416Z" fill="white"/>
<path d="M108.247 15.9087C109.882 17.1193 110.386 17.8823 110.705 19.8605C110.784 22.1487 110.769 23.6996 109.242 25.5067C107.627 27.1516 106.078 27.3494 103.813 27.4431C101.31 27.4341 100.085 26.9696 98.3358 25.2295C97.0181 23.6042 97.1553 21.9709 97.174 19.9587C97.4246 17.9874 98.0954 17.3136 99.606 16.0209C102.083 14.4834 105.696 14.5701 108.247 15.9087ZM101.994 17.8732C101.173 19.0889 101.027 19.9466 100.97 21.4093C101.362 22.6883 101.817 24.041 102.789 25.0015C104.372 24.9226 104.372 24.9226 105.973 24.5525C107.12 22.8531 106.922 22.082 106.643 20.1358C106.368 18.8925 106.068 18.183 105.063 17.368C103.765 17.1436 103.108 17.1655 101.994 17.8732Z" fill="white"/>
<path d="M86.4175 15.1227C88.0355 15.0811 88.0355 15.0811 89.6862 15.0385C90.1893 15.0201 90.1893 15.0201 90.7027 15.0014C92.6897 14.9767 93.9874 15.1828 95.513 16.4698C95.8824 17.758 95.6663 18.6997 95.513 20.062C95.2128 20.3584 94.9127 20.6548 94.6034 20.9601C94.6608 22.9406 95.6616 24.1521 96.8507 25.6521C97.3321 26.3485 97.3321 26.3485 97.3321 27.2465C93.7751 27.6597 93.7751 27.6597 92.461 26.6466C91.8464 25.8994 91.8464 25.8994 90.9652 24.5523C91.1153 25.4414 91.2654 26.3305 91.42 27.2465C89.7692 27.2465 88.1183 27.2465 86.4175 27.2465C86.4175 23.2457 86.4175 19.2448 86.4175 15.1227ZM90.5105 17.3679C90.5105 18.4051 90.5105 19.4424 90.5105 20.5111C90.9607 20.3629 91.4109 20.2147 91.8748 20.062C91.8748 19.3211 91.8748 18.5803 91.8748 17.8169C91.4246 17.6687 90.9743 17.5205 90.5105 17.3679Z" fill="white"/>
<path d="M16.382 2.10107C16.8322 2.24925 17.2825 2.39743 17.7463 2.5501C17.5875 2.85341 17.4286 3.15671 17.2649 3.46921C17.058 3.86976 16.851 4.2703 16.6378 4.68299C16.432 5.07891 16.2263 5.47482 16.0143 5.88274C13.9743 10.2413 14.8845 15.2214 16.382 19.6132C13.4578 18.6704 11.7986 17.1411 10.0151 14.6739C9.13915 12.0791 9.07301 8.90572 9.96718 6.30721C10.4699 5.32847 10.4699 5.32847 11.3795 3.89719C11.6796 3.89719 11.9798 3.89719 12.289 3.89719C12.289 4.93445 12.289 5.9717 12.289 7.04039C12.4702 6.75908 12.6513 6.47777 12.838 6.18794C13.0789 5.82096 13.3198 5.45399 13.5681 5.07589C13.8055 4.71123 14.0429 4.34657 14.2875 3.97086C15.0177 2.99913 15.0177 2.99913 16.382 2.10107Z" fill="white"/>
<path d="M95.5131 31.2882C96.8476 32.0949 97.5469 32.6102 98.2418 33.9824C98.5731 36.3216 98.6426 37.9379 97.1901 39.8759C95.1849 41.1958 92.8098 41.1636 90.5106 40.7178C89.0894 39.6233 89.0894 39.6233 88.2367 38.4727C88.0867 38.3245 87.9366 38.1763 87.782 38.0237C87.4678 34.9732 87.4678 34.9732 88.258 33.6105C90.388 31.0622 92.3078 30.915 95.5131 31.2882ZM91.5623 33.5895C90.6905 34.8192 90.7833 35.6573 90.9654 37.1256C91.5926 38.1775 91.5926 38.1775 92.3297 38.9217C93.4449 38.8741 93.4449 38.8741 94.6036 38.4727C95.3313 37.4811 95.3313 37.4811 95.5131 36.2275C95.1153 34.8198 94.743 34.12 93.694 33.0843C92.3652 32.9598 92.3652 32.9598 91.5623 33.5895Z" fill="white"/>
<path d="M54.5832 15.123C57.5847 15.123 60.5862 15.123 63.6787 15.123C63.5286 16.1603 63.3786 17.1976 63.2239 18.2662C62.0984 18.044 62.0984 18.044 60.9501 17.8172C60.9377 18.9679 60.9287 20.1184 60.9216 21.2691C60.9178 21.593 60.914 21.9168 60.9101 22.2505C60.9019 24.0187 61.05 25.4953 61.4048 27.2468C59.754 27.2468 58.1032 27.2468 56.4023 27.2468C56.5524 24.1351 56.7024 21.0233 56.8571 17.8172C55.9566 17.9654 55.0562 18.1136 54.1284 18.2662C54.2785 17.229 54.4286 16.1917 54.5832 15.123Z" fill="white"/>
<path d="M40.9703 14.1812C42.5469 14.2031 42.5469 14.2031 44.1235 14.225C44.1235 15.855 44.1235 17.485 44.1235 19.1643C43.2231 19.6089 43.2231 19.6089 42.3044 20.0624C41.9353 21.2097 41.9353 21.2097 41.8497 22.3075C41.2165 22.2658 41.2165 22.2658 40.5706 22.2233C38.9195 22.3192 38.8076 22.5226 37.7567 23.6546C37.1564 23.6546 36.5561 23.6546 35.9376 23.6546C35.4873 22.1728 35.0371 20.691 34.5732 19.1643C35.2298 18.9235 35.8864 18.6827 36.5629 18.4346C38.3791 17.6593 38.3791 17.6593 39.3484 15.9369C39.4234 15.5202 39.4985 15.1034 39.5758 14.674C40.0305 14.225 40.0305 14.225 40.9703 14.1812Z" fill="white"/>
<path d="M112.795 31.2883C112.945 32.0292 113.095 32.7701 113.249 33.5334C112.199 33.3852 111.148 33.237 110.066 33.0844C110.798 33.8799 111.381 34.4081 112.368 34.8805C113.249 35.3295 113.249 35.3295 114.159 36.6766C114.074 38.2763 114.074 38.2763 113.704 39.8198C112.148 40.8439 111.575 40.8163 109.753 40.774C109.075 40.7618 109.075 40.7618 108.384 40.7494C108.038 40.739 107.693 40.7286 107.337 40.7179C107.187 39.8288 107.037 38.9397 106.882 38.0237C108.908 38.4682 108.908 38.4682 110.975 38.9218C110.004 37.4834 109.278 37.0713 107.792 36.2276C106.882 35.3295 106.882 35.3295 106.712 34.0105C106.882 32.6354 106.882 32.6354 107.536 31.7934C109.271 31.0416 110.928 31.1819 112.795 31.2883Z" fill="white"/>
<path d="M43.6687 1.20312C44.5782 1.20312 44.5782 1.20312 45.3172 1.87667C45.5236 2.09894 45.7299 2.32121 45.9425 2.55021C46.3928 2.40203 46.843 2.25385 47.3069 2.10118C47.4569 2.39754 47.607 2.6939 47.7616 2.99924C47.3353 3.95343 47.3353 3.95343 46.8521 4.79536C47.4524 4.94354 48.0527 5.09172 48.6712 5.24438C48.6712 5.54074 48.6712 5.8371 48.6712 6.14244C48.0709 6.29062 47.4706 6.4388 46.8521 6.59147C47.1522 7.33237 47.4524 8.07327 47.7616 8.83662C46.8612 8.68844 45.9607 8.54026 45.033 8.38759C44.8829 8.98031 44.7328 9.57302 44.5782 10.1837C44.2781 10.1837 43.9779 10.1837 43.6687 10.1837C43.5186 9.59098 43.3685 8.99827 43.2139 8.38759C42.4635 8.53577 41.7131 8.68395 40.94 8.83662C41.0901 8.09572 41.2402 7.35482 41.3948 6.59147C40.7945 6.44329 40.1942 6.29511 39.5757 6.14244C39.5757 5.84608 39.5757 5.54972 39.5757 5.24438C40.176 5.09621 40.7763 4.94803 41.3948 4.79536C41.2447 3.90628 41.0946 3.0172 40.94 2.10118C41.5403 2.24936 42.1406 2.39754 42.7591 2.55021C43.0593 2.10567 43.3594 1.66113 43.6687 1.20312Z" fill="white"/>
<path d="M97.7866 31.7373C99.1373 31.7373 100.488 31.7373 101.88 31.7373C102.18 32.33 102.48 32.9227 102.789 33.5334C102.939 32.9407 103.089 32.348 103.244 31.7373C104.294 31.7373 105.345 31.7373 106.427 31.7373C106.263 32.0626 106.099 32.3879 105.93 32.7231C105.613 33.3742 105.613 33.3742 105.29 34.0386C105.079 34.4658 104.868 34.8929 104.651 35.333C103.928 37.286 103.946 38.7554 104.608 40.7179C103.258 40.7179 101.907 40.7179 100.515 40.7179C100.562 40.1344 100.609 39.551 100.657 38.9498C100.674 36.4001 99.6075 34.7272 98.2414 32.6354C98.0913 32.339 97.9412 32.0426 97.7866 31.7373Z" fill="white"/>
<path d="M80.0505 31.7373C82.4517 31.7373 84.8529 31.7373 87.3269 31.7373C87.1768 32.4782 87.0267 33.2191 86.8721 33.9824C86.2718 33.8343 85.6715 33.6861 85.053 33.5334C85.117 34.5626 85.1838 35.5916 85.252 36.6205C85.2889 37.1935 85.3258 37.7666 85.3639 38.357C85.4132 39.7673 85.4132 39.7673 85.9626 40.7179C84.4618 40.7179 82.961 40.7179 81.4148 40.7179C81.5649 40.4215 81.715 40.1252 81.8696 39.8198C81.9743 38.7551 82.0566 37.6881 82.1254 36.6205C82.1635 36.0451 82.2016 35.4698 82.2409 34.877C82.2822 34.2119 82.2822 34.2119 82.3244 33.5334C81.4239 33.6816 80.5234 33.8298 79.5957 33.9824C79.7458 33.2416 79.8959 32.5007 80.0505 31.7373Z" fill="white"/>
<path d="M4.10303 29.4917C5.60379 29.4917 7.10455 29.4917 8.65078 29.4917C7.74123 31.2878 7.74123 31.2878 6.88853 31.7088C5.92213 31.7368 5.92213 31.7368 4.89888 31.1475C4.63625 30.8974 4.37362 30.6474 4.10303 30.3898C4.10303 30.0934 4.10303 29.797 4.10303 29.4917Z" fill="white"/>
<path d="M95.513 31.2876C95.513 32.3249 95.513 33.3621 95.513 34.4308C95.0628 34.2826 94.6126 34.1344 94.1487 33.9818C94.1487 33.3891 94.1487 32.7963 94.1487 32.1857C93.5484 32.0375 92.9481 31.8893 92.3296 31.7366C94.4898 31.2876 94.4898 31.2876 95.513 31.2876Z" fill="white"/>
<path d="M140.991 15.123C141.741 15.123 142.491 15.123 143.265 15.123C143.265 15.5676 143.265 16.0121 143.265 16.4701C142.514 16.322 141.764 16.1738 140.991 16.0211C140.991 15.7247 140.991 15.4284 140.991 15.123Z" fill="white"/>
</g>
<defs>
<clipPath id="clip0_384_243">
<rect width="142.8" height="49.3932" fill="white" transform="translate(0.464844 0.753906)"/>
</clipPath>
</defs>
</svg>
