<svg width="175" height="36" viewBox="0 0 175 36" fill="none" xmlns="http://www.w3.org/2000/svg">
<g clip-path="url(#clip0_384_262)">
<path d="M57.1173 13.7616C57.0912 14.9646 56.7264 16.0368 56.0229 16.9783C56.7264 17.946 57.0912 19.0182 57.1173 20.2212V20.352C57.0912 21.8427 56.544 23.1241 55.5019 24.1964C54.4337 25.2424 53.157 25.7917 51.6719 25.7917H46.1484V3.77148H51.6459C53.157 3.77148 54.4337 4.29453 55.5019 5.36677C56.5701 6.43901 57.1173 7.72047 57.1173 9.23731V13.6047V13.7616ZM50.5256 14.7816H51.6198C51.9064 14.7816 52.167 14.677 52.3754 14.4678C52.5838 14.2585 52.688 13.997 52.688 13.6831V9.26341C52.688 8.97579 52.5838 8.71428 52.3754 8.50505C52.167 8.29582 51.9064 8.1912 51.6198 8.1912H51.5938H50.4995V14.7816H50.5256ZM52.4015 21.0581C52.6098 20.8489 52.7141 20.5873 52.7141 20.2735C52.7141 19.9858 52.6098 19.7243 52.4015 19.5151C52.193 19.3059 51.9325 19.2013 51.6459 19.2013H50.5516V21.398H51.6459C51.9325 21.398 52.193 21.2935 52.4015 21.0581Z" fill="white"/>
<path d="M60.2179 8.00767C61.2861 6.93543 62.5888 6.38623 64.1 6.38623C65.6111 6.38623 66.8878 6.93543 67.9821 8.00767C69.0503 9.07989 69.5974 10.3875 69.5974 11.9043V25.7912H65.1942V21.3976H63.0057V25.8173H58.6025V11.9043C58.6286 10.3614 59.1497 9.07989 60.2179 8.00767ZM65.1942 16.9778V11.9043C65.1942 11.5905 65.09 11.329 64.8816 11.1198C64.6731 10.9106 64.4126 10.8059 64.126 10.8059C63.8134 10.8059 63.5528 10.9106 63.3444 11.1198C63.136 11.329 63.0318 11.5905 63.0318 11.9043V16.9778H65.1942Z" fill="white"/>
<path d="M82.8588 25.7911H78.4812L77.7262 20.4822L77.7002 20.273C77.6481 19.9592 77.4913 19.6977 77.2573 19.4884C77.0224 19.2792 76.7356 19.1746 76.4495 19.1746H75.5377V25.7911H71.1343V6.85693H76.6316C78.1431 6.85693 79.4197 7.40613 80.4876 8.47835C81.5562 9.55059 82.0771 10.8321 82.0771 12.3489V13.7088C82.0771 15.0687 81.6342 16.2717 80.7484 17.2917C81.4774 18.1808 81.9203 19.1746 82.0511 20.273L82.0771 20.4037L82.8588 25.7911ZM76.6316 14.8072C76.9444 14.8072 77.2045 14.7026 77.4133 14.4934C77.6214 14.2842 77.7262 14.0227 77.7262 13.7088V12.375C77.7262 12.0873 77.6214 11.8258 77.4133 11.6166C77.2045 11.4074 76.9444 11.3028 76.6316 11.3028H75.5377V14.8333H76.6316V14.8072Z" fill="white"/>
<path d="M94.4788 13.7611C94.4528 14.9641 94.0879 16.0363 93.3842 16.9778C94.0879 17.9455 94.4528 19.0177 94.4788 20.2207V20.3515C94.4528 21.8683 93.9311 23.1497 92.8633 24.1959C91.7947 25.2419 90.518 25.7911 89.0333 25.7911H83.5098V6.85693H89.0073C90.518 6.85693 91.7947 7.37998 92.8633 8.45224C93.9311 9.52448 94.4788 10.8059 94.4788 12.3227V13.6303V13.7611ZM87.9127 14.781H89.0073C89.2941 14.781 89.5542 14.6765 89.763 14.4672C89.9711 14.258 90.0751 13.9965 90.0751 13.6827V12.3489C90.0751 12.0612 89.9711 11.7997 89.763 11.5905C89.5542 11.3813 89.2941 11.2767 89.0073 11.2767H88.9813H87.8867V14.781H87.9127ZM89.763 21.0576C89.9711 20.8484 90.0751 20.5869 90.0751 20.273C90.0751 19.9854 89.9711 19.7238 89.763 19.5146C89.5542 19.3054 89.2941 19.2008 89.0073 19.2008H87.9127V21.3975H89.0073C89.2941 21.3975 89.5542 21.2929 89.763 21.0576Z" fill="white"/>
<path d="M100.393 11.2505V14.781H104.796V19.2008H100.393V21.4237H105.656V25.8434H95.9902V6.85693H105.656V11.2767H100.393V11.2505Z" fill="white"/>
<path d="M116.781 21.3976V25.8173H107.115V6.85693H111.518V21.4237H116.781V21.3976Z" fill="white"/>
<path d="M127.489 21.3976V25.8173H117.823V6.85693H122.226V21.4237H127.489V21.3976Z" fill="white"/>
<path d="M118.787 33.7936V34.8659H114.28V34.6043L116.468 32.2245C117.042 31.5968 117.328 31.1523 117.328 30.6815C117.328 30.1585 117.016 29.7662 116.468 29.7662C115.947 29.7662 115.608 30.1585 115.608 30.7077C115.608 30.8123 115.634 30.9953 115.661 31.1523H114.411C114.358 30.9692 114.358 30.7861 114.358 30.6293C114.358 29.6093 115.166 28.5894 116.521 28.5894C117.745 28.5894 118.631 29.4262 118.631 30.5508C118.631 31.4661 118.032 32.1983 117.302 32.9306L116.521 33.7675H118.787V33.7936Z" fill="white"/>
<path d="M119.699 34.1076C119.699 33.6107 120.064 33.2446 120.559 33.2446C121.054 33.2446 121.419 33.6369 121.419 34.1076C121.419 34.6045 121.054 34.9707 120.559 34.9707C120.064 34.9707 119.699 34.6045 119.699 34.1076Z" fill="white"/>
<path d="M122.278 31.754C122.278 29.9756 123.06 28.6157 124.702 28.6157C126.342 28.6157 127.124 29.9756 127.124 31.754C127.124 33.5323 126.342 34.9707 124.702 34.9707C123.06 34.9707 122.278 33.5062 122.278 31.754ZM125.847 31.754C125.847 30.4725 125.509 29.7664 124.728 29.7664C123.92 29.7664 123.581 30.4725 123.581 31.754C123.581 33.0354 123.92 33.82 124.728 33.82C125.509 33.82 125.847 33.0354 125.847 31.754Z" fill="white"/>
<path d="M44.1684 16.4025H26.3213V0.92041H18.7656V35.2321H26.3213V19.75H44.1684V16.4025Z" fill="white"/>
<path d="M17.2544 5.18311H9.69873V30.9953H17.2544V5.18311Z" fill="white"/>
<path d="M8.47417 8.50488H0.918457V27.6483H8.47417V8.50488Z" fill="white"/>
<path d="M155.107 0.92041H154.872H154.664H154.429H154.221H153.986H153.778H153.543H153.335H153.101H152.866H152.658H152.424H152.215H151.981H151.772H151.537H151.329H151.094H150.886H150.651H150.443H150.208H149.974H149.765H149.531H149.323H149.089H148.88H148.646H148.437H148.203H147.994V16.4025H147.421H146.874H146.326H145.779H145.233H144.685H144.112H143.565H143.018H142.47H141.923H141.377H140.803H140.256H139.709H139.162H138.614H138.041H137.495H136.947H136.4H135.853H135.305H134.732H134.185H133.639H133.091H132.544H131.997H131.423H130.876H130.329H129.783H129.235V19.75H129.783H130.329H130.876H131.423H131.997H132.544H133.091H133.639H134.185H134.732H135.305H135.853H136.4H136.947H137.495H138.041H138.614H139.162H139.709H140.256H140.803H141.377H141.923H142.47H143.018H143.565H144.112H144.685H145.233H145.779H146.326H146.874H147.421H147.994V35.2321H148.203H148.437H148.646H148.88H149.089H149.323H149.531H149.765H149.974H150.208H150.443H150.651H150.886H151.094H151.329H151.537H151.772H151.981H152.215H152.424H152.658H152.866H153.101H153.335H153.543H153.778H153.986H154.221H154.429H154.664H154.872H155.107H155.315H155.55V0.92041H155.315H155.107Z" fill="white"/>
<path d="M164.174 5.18311H163.966H163.731H163.523H163.288H163.054H162.845H162.611H162.402H162.168H161.959H161.725H161.516H161.282H161.074H160.839H160.631H160.396H160.162H159.953H159.719H159.51H159.276H159.067H158.833H158.624H158.39H158.181H157.947H157.738H157.504H157.296H157.062V30.9953H157.296H157.504H157.738H157.947H158.181H158.39H158.624H158.833H159.067H159.276H159.51H159.719H159.953H160.162H160.396H160.631H160.839H161.074H161.282H161.516H161.725H161.959H162.168H162.402H162.611H162.845H163.054H163.288H163.523H163.731H163.966H164.174H164.409H164.617V5.18311H164.409H164.174Z" fill="white"/>
<path d="M173.162 8.50488H172.954H172.72H172.511H172.277H172.069H171.834H171.626H171.391H171.183H170.948H170.739H170.505H170.27H170.062H169.827H169.619H169.384H169.176H168.942H168.733H168.499H168.291H168.056H167.848H167.613H167.379H167.17H166.936H166.727H166.493H166.284H166.05H165.841V27.6483H166.05H166.284H166.493H166.727H166.936H167.17H167.379H167.613H167.848H168.056H168.291H168.499H168.733H168.942H169.176H169.384H169.619H169.827H170.062H170.27H170.505H170.739H170.948H171.183H171.391H171.626H171.834H172.069H172.277H172.511H172.72H172.954H173.162H173.397V8.50488H173.162Z" fill="white"/>
</g>
<defs>
<clipPath id="clip0_384_262">
<rect width="173.144" height="34.3117" fill="white" transform="translate(0.918457 0.92041)"/>
</clipPath>
</defs>
</svg>
