<svg width="191" height="35" viewBox="0 0 191 35" fill="none" xmlns="http://www.w3.org/2000/svg">
<g clip-path="url(#clip0_384_228)">
<path d="M7.28974 15.0616H15.6867L26.7758 34.0252L46.1941 0.816406H31.7815L22.8683 16.059L24.9558 19.6302L33.8299 4.45421H39.8907L26.7758 26.8849L17.7351 11.4237H0.986328L8.0589 23.5199H18.2102L16.0836 19.8821H10.1093L7.28974 15.0616Z" fill="white"/>
<path d="M72.2488 25.9938C69.6246 25.9938 68.3125 24.6903 68.3125 22.0832C68.3125 19.4762 69.6246 18.1726 72.2488 18.1726H75.601V16.7462C75.601 16.2215 75.3418 15.9591 74.8236 15.9591H69.6348L70.4966 13.0063H75.019C77.6432 13.0063 78.9553 14.3349 78.9553 16.9919V25.9958H72.2508L72.2488 25.9938ZM71.6647 22.2539C71.6647 22.7787 71.9239 23.041 72.4421 23.041H75.601V20.7776H72.4421C71.9239 20.7776 71.6647 21.04 71.6647 21.5647V22.2539Z" fill="white"/>
<path d="M86.0259 22.0083V16.99C86.0259 14.3328 87.338 13.0044 89.9622 13.0044H93.1211C95.7453 13.0044 97.0574 14.3328 97.0574 16.99V20.7526H89.3802V22.254C89.3802 22.7787 89.6393 23.0411 90.1575 23.0411H96.5721V25.9939H89.9643C87.34 25.9939 86.028 24.6653 86.028 22.0083H86.0259ZM89.3782 18.1456H93.7031V16.7442C93.7031 16.2195 93.4439 15.9571 92.9257 15.9571H90.1555C89.6372 15.9571 89.3782 16.2195 89.3782 16.7442V18.1456Z" fill="white"/>
<path d="M98.8076 25.9938V14.6785C99.4061 13.5624 100.558 13.0063 102.257 13.0063H104.212L105.128 15.9591H103.155C102.67 15.9591 102.337 16.0819 102.16 16.3276V25.9958H98.8076V25.9938Z" fill="white"/>
<path d="M104.212 13.0045H107.603L110.567 23.0412H110.809L113.773 13.0045H117.164L111.636 30.9125H108.235L109.863 25.9919H108.235L104.212 13.0024V13.0045Z" fill="white"/>
<path d="M130.076 25.9938V14.6785C130.675 13.5624 131.826 13.0063 133.524 13.0063H137V15.9591H134.424C133.938 15.9591 133.605 16.0819 133.428 16.3276V25.9958H130.076V25.9938Z" fill="white"/>
<path d="M139.575 25.9938C136.951 25.9938 135.639 24.6903 135.639 22.0832C135.639 19.4762 136.951 18.1726 139.575 18.1726H142.927V16.7462C142.927 16.2215 142.668 15.9591 142.15 15.9591H137V13.0063H142.345C144.969 13.0063 146.281 14.3349 146.281 16.9919V25.9958H139.577L139.575 25.9938ZM138.991 22.2539C138.991 22.7787 139.251 23.041 139.768 23.041H142.927V20.7776H139.768C139.251 20.7776 138.991 21.04 138.991 21.5647V22.2539Z" fill="white"/>
<path d="M148.025 22.0081V16.9897C148.025 14.3326 149.337 13.0042 151.962 13.0042H155.703V7.79004H159.055V25.9937H151.962C149.337 25.9937 148.025 24.6651 148.025 22.0081ZM151.378 22.2538C151.378 22.7786 151.637 23.0409 152.155 23.0409H155.703V15.9568H152.155C151.637 15.9568 151.378 16.2192 151.378 16.744V22.2538Z" fill="white"/>
<path d="M161.019 11.1113V7.79004H164.517V11.1113H161.019ZM161.091 25.9937V13.0042H164.443V25.9937H161.091Z" fill="white"/>
<path d="M166.491 25.9939V13.0044H173.584C176.209 13.0044 177.521 14.3328 177.521 16.99V25.9939H174.169V16.7442C174.169 16.2195 173.91 15.9571 173.391 15.9571H169.844V25.9939H166.491Z" fill="white"/>
<path d="M179.166 22.0083V16.99C179.166 14.3328 180.478 13.0044 183.102 13.0044H190.196V26.9267C190.196 29.5838 188.884 30.9123 186.259 30.9123H180.258V27.9596H186.064C186.583 27.9596 186.841 27.6972 186.841 27.1724V25.9918H183.1C180.476 25.9918 179.164 24.6633 179.164 22.0063L179.166 22.0083ZM182.519 22.254C182.519 22.7787 182.777 23.0411 183.296 23.0411H186.843V15.9571H183.296C182.777 15.9571 182.519 16.2195 182.519 16.7442V22.254Z" fill="white"/>
<path d="M53.9761 9.021H57.6923L61.5072 22.7956H61.896L65.7335 9.021H69.4271L64.4708 25.9939H58.9325L53.9782 9.021H53.9761Z" fill="white"/>
<path d="M80.7959 25.9937V7.79004H84.1481V25.9937H80.7959Z" fill="white"/>
<path fill-rule="evenodd" clip-rule="evenodd" d="M130.026 9.02113H118.396L117.41 12.2196H121.426V25.9962H124.924V12.2175H130.026V9.01904V9.02113Z" fill="white"/>
</g>
<defs>
<clipPath id="clip0_384_228">
<rect width="189.209" height="33.3646" fill="white" transform="translate(0.986328 0.816406)"/>
</clipPath>
</defs>
</svg>
