<svg width="115" height="44" viewBox="0 0 115 44" fill="none" xmlns="http://www.w3.org/2000/svg">
<g clip-path="url(#clip0_384_178)">
<mask id="mask0_384_178" style="mask-type:luminance" maskUnits="userSpaceOnUse" x="0" y="0" width="115" height="44">
<path d="M114.241 0.478027H0V43.2503H114.241V0.478027Z" fill="white"/>
</mask>
<g mask="url(#mask0_384_178)">
<mask id="mask1_384_178" style="mask-type:luminance" maskUnits="userSpaceOnUse" x="0" y="0" width="115" height="44">
<path d="M114.059 0.43457H0.181641V43.2929H114.059V0.43457Z" fill="white"/>
</mask>
<g mask="url(#mask1_384_178)">
<mask id="mask2_384_178" style="mask-type:luminance" maskUnits="userSpaceOnUse" x="0" y="0" width="115" height="44">
<path d="M114.059 0.43457H0.181641V43.2929H114.059V0.43457Z" fill="white"/>
</mask>
<g mask="url(#mask2_384_178)">
<path d="M63.2561 9.58932C63.2561 8.95808 63.091 8.44629 62.8876 8.44629C62.6841 8.44629 62.519 8.95808 62.519 9.58932V34.1384C62.519 34.7697 62.6841 35.2814 62.8876 35.2814C63.091 35.2814 63.2561 34.7697 63.2561 34.1384V9.58932Z" fill="white"/>
<mask id="mask3_384_178" style="mask-type:luminance" maskUnits="userSpaceOnUse" x="65" y="8" width="50" height="28">
<path d="M114.059 8.51318H65.1851V35.2149H114.059V8.51318Z" fill="white"/>
</mask>
<g mask="url(#mask3_384_178)">
<mask id="mask4_384_178" style="mask-type:luminance" maskUnits="userSpaceOnUse" x="65" y="8" width="50" height="28">
<path d="M114.059 8.51318H65.1851V35.2149H114.059V8.51318Z" fill="white"/>
</mask>
<g mask="url(#mask4_384_178)">
<mask id="mask5_384_178" style="mask-type:luminance" maskUnits="userSpaceOnUse" x="65" y="8" width="50" height="28">
<path d="M114.059 8.51318H65.1851V35.2149H114.059V8.51318Z" fill="white"/>
</mask>
<g mask="url(#mask5_384_178)">
<mask id="mask6_384_178" style="mask-type:luminance" maskUnits="userSpaceOnUse" x="65" y="8" width="50" height="28">
<path d="M114.059 8.51318H65.1851V35.2149H114.059V8.51318Z" fill="white"/>
</mask>
<g mask="url(#mask6_384_178)">
<path d="M68.843 8.86133C69.7846 8.86133 70.5585 9.06656 71.1652 9.47717C71.7701 9.88778 72.0727 10.4958 72.0727 11.3014V11.4409H69.8501V11.3944C69.8501 11.1697 69.7714 10.9854 69.614 10.8413C69.4549 10.6988 69.2135 10.6275 68.8893 10.6275C68.5728 10.6275 68.3337 10.6717 68.1716 10.7599C68.0096 10.8499 67.9285 10.9684 67.9285 11.1155C67.9285 11.2937 68.0234 11.4346 68.2133 11.5385C68.4015 11.6438 68.677 11.7353 69.0398 11.8127L70.0701 12.0451C71.5055 12.3704 72.2232 13.118 72.2232 14.2876C72.2232 15.2405 71.9107 15.9416 71.2856 16.3908C70.6604 16.84 69.7962 17.0647 68.6925 17.0647C68.0829 17.0647 67.5217 16.9718 67.0094 16.7859C66.4954 16.5999 66.0826 16.3148 65.7707 15.9306C65.4575 15.548 65.3008 15.0738 65.3008 14.5084V14.369C65.3008 14.3069 65.3047 14.2605 65.3123 14.2296H67.558C67.5505 14.2528 67.5465 14.2993 67.5465 14.369C67.5465 14.6091 67.6299 14.8066 67.7965 14.9616C67.9616 15.1166 68.2371 15.194 68.6231 15.194C69.0474 15.194 69.3368 15.1492 69.4913 15.0592C69.6457 14.9709 69.7228 14.8494 69.7228 14.6944C69.7228 14.5084 69.6146 14.3667 69.3986 14.2691C69.1826 14.1731 68.843 14.0746 68.38 13.9739C67.7936 13.85 67.305 13.712 66.9145 13.5603C66.5255 13.4099 66.1882 13.1622 65.9027 12.8166C65.6173 12.4727 65.4744 11.9986 65.4744 11.3944C65.4744 10.8523 65.6233 10.3912 65.9212 10.0117C66.2176 9.63216 66.6204 9.34543 67.1298 9.15187C67.6391 8.95823 68.2102 8.86133 68.843 8.86133ZM79.8984 14.4155C79.8984 14.95 79.769 15.4164 79.5118 15.8145C79.2522 16.2142 78.8873 16.5225 78.4162 16.7394C77.946 16.9562 77.3977 17.0647 76.7725 17.0647H76.2748C75.6496 17.0647 75.1017 16.9562 74.631 16.7394C74.1603 16.5225 73.7959 16.2142 73.5382 15.8145C73.279 15.4164 73.1493 14.95 73.1493 14.4155V8.97751H75.5918V14.3806C75.5918 14.6363 75.6828 14.8454 75.865 15.0081C76.0456 15.1708 76.2671 15.252 76.5295 15.252C76.7917 15.252 77.014 15.1708 77.1962 15.0081C77.3768 14.8454 77.4671 14.6363 77.4671 14.3806V8.97751H79.8984V14.4155ZM85.3852 8.97751C85.8253 8.97751 86.232 9.08608 86.6078 9.30289C86.9812 9.51971 87.2756 9.81577 87.4918 10.1906C87.708 10.5671 87.8156 10.9761 87.8156 11.4176V11.6733C87.8156 12.1148 87.708 12.5231 87.4918 12.8979C87.2756 13.2744 86.9812 13.5712 86.6078 13.788C86.232 14.0048 85.8253 14.1134 85.3852 14.1134H83.5909V16.9485H81.1597V8.97751H85.3852ZM83.5909 10.8018V12.3356H84.6554C84.8715 12.3356 85.042 12.2635 85.1652 12.1195C85.2884 11.977 85.3504 11.8167 85.3504 11.6384V11.499C85.3504 11.3207 85.2907 11.1597 85.1722 11.0156C85.0513 10.8732 84.8793 10.8018 84.6554 10.8018H83.5909ZM94.5878 8.97751L94.3562 10.8135H91.0108V11.9754H94.2291V13.7532H91.0108V15.0429H94.3562L94.5878 16.9485H88.626V8.97751H94.5878ZM100.029 8.97751C100.407 8.97751 100.764 9.06049 101.1 9.22621C101.436 9.39349 101.707 9.62594 101.916 9.9234C102.124 10.2224 102.228 10.5655 102.228 10.9529C102.228 11.2317 102.165 11.5067 102.038 11.7778C101.91 12.049 101.738 12.2814 101.522 12.475C101.306 12.6686 101.066 12.7888 100.805 12.8353V12.8934C101.228 13.0251 101.548 13.2705 101.761 13.63C101.972 13.9909 102.077 14.4271 102.077 14.9383C102.077 15.3025 102.112 15.6139 102.182 15.8726C102.251 16.1328 102.413 16.2979 102.668 16.3675V16.8439C102.313 16.9911 101.85 17.0647 101.279 17.0647C100.731 17.0647 100.322 16.9502 100.051 16.7208C99.7818 16.4931 99.647 16.108 99.647 15.5658C99.647 15.0545 99.5835 14.6416 99.4564 14.3272C99.3286 14.0141 99.0489 13.8577 98.6166 13.8577H97.9449V16.9485H95.5718V8.97751H100.029ZM97.9449 10.8018V12.08H99.1721C99.334 12.08 99.4711 12.0235 99.5843 11.9103C99.695 11.7988 99.7508 11.6617 99.7508 11.499V11.3828C99.7508 11.2201 99.695 11.0823 99.5843 10.9691C99.4711 10.8575 99.334 10.8018 99.1721 10.8018H97.9449Z" fill="white"/>
<path d="M71.6213 17.8784V19.7957H69.6071V25.8495H67.1993V19.7957H65.1851V17.8784H71.6213ZM76.9114 17.8784C77.2895 17.8784 77.6469 17.9614 77.9832 18.1271C78.3186 18.2944 78.5898 18.5268 78.7982 18.8243C79.0066 19.1234 79.1112 19.4664 79.1112 19.8538C79.1112 20.1327 79.0477 20.4076 78.9214 20.6788C78.7928 20.9499 78.6208 21.1824 78.4046 21.3759C78.1885 21.5695 77.9491 21.6897 77.6872 21.7362V21.7943C78.1118 21.926 78.4302 22.1714 78.6433 22.5309C78.8548 22.8918 78.9601 23.328 78.9601 23.8392C78.9601 24.2034 78.995 24.5148 79.0647 24.7735C79.1337 25.0337 79.2964 25.1988 79.5505 25.2684V25.7449C79.1957 25.892 78.7331 25.9656 78.1614 25.9656C77.6136 25.9656 77.2048 25.8511 76.9346 25.6217C76.6645 25.394 76.5295 25.0089 76.5295 24.4667C76.5295 23.9555 76.4653 23.5425 76.3374 23.2281C76.2107 22.915 75.9315 22.7587 75.4992 22.7587H74.8278V25.8495H72.4547V17.8784H76.9114ZM74.8278 19.7027V20.9809H76.0549C76.217 20.9809 76.3542 20.9244 76.467 20.8112C76.5781 20.6997 76.6337 20.5626 76.6337 20.3999V20.2837C76.6337 20.121 76.5781 19.9832 76.467 19.87C76.3542 19.7585 76.217 19.7027 76.0549 19.7027H74.8278ZM85.3039 17.8784L87.9551 25.8495H85.4317L84.9568 24.4319H82.4334L81.9701 25.8495H79.6319L82.2831 17.8784H85.3039ZM83.7296 20.3302H83.6715L82.9889 22.7471H84.4013L83.7296 20.3302ZM92.6432 17.8784V19.5865H91.7057V24.1298H92.6432V25.8495H88.3138V24.1298H89.2513V19.5865H88.3138V17.8784H92.6432ZM96.1738 17.8784V23.8974H99.0559L99.2875 25.8495H93.7201V17.8784H96.1738ZM105.978 17.8784L105.747 19.7144H102.402V20.8763H105.62V22.6541H102.402V23.9438H105.747L105.978 25.8495H100.017V17.8784H105.978ZM111.42 17.8784C111.798 17.8784 112.155 17.9614 112.491 18.1271C112.826 18.2944 113.098 18.5268 113.306 18.8243C113.514 19.1234 113.619 19.4664 113.619 19.8538C113.619 20.1327 113.556 20.4076 113.429 20.6788C113.301 20.9499 113.129 21.1824 112.912 21.3759C112.696 21.5695 112.457 21.6897 112.195 21.7362V21.7943C112.62 21.926 112.938 22.1714 113.151 22.5309C113.363 22.8918 113.468 23.328 113.468 23.8392C113.468 24.2034 113.503 24.5148 113.573 24.7735C113.642 25.0337 113.804 25.1988 114.058 25.2684V25.7449C113.704 25.892 113.241 25.9656 112.669 25.9656C112.121 25.9656 111.712 25.8511 111.443 25.6217C111.172 25.394 111.038 25.0089 111.038 24.4667C111.038 23.9555 110.974 23.5425 110.848 23.2281C110.719 22.915 110.439 22.7587 110.007 22.7587H109.335V25.8495H106.962V17.8784H111.42ZM109.335 19.7027V20.9809H110.563C110.725 20.9809 110.862 20.9244 110.975 20.8112C111.086 20.6997 111.141 20.5626 111.141 20.3999V20.2837C111.141 20.121 111.086 19.9832 110.975 19.87C110.862 19.7585 110.725 19.7027 110.563 19.7027H109.335Z" fill="white"/>
<path d="M69.8966 26.7793C70.3365 26.7793 70.744 26.8878 71.119 27.1047C71.4925 27.3215 71.7874 27.6175 72.0034 27.9924C72.2194 28.3688 72.3276 28.7778 72.3276 29.2194V29.475C72.3276 29.9166 72.2194 30.3249 72.0034 30.6997C71.7874 31.0762 71.4925 31.3729 71.119 31.5897C70.744 31.8066 70.3365 31.9151 69.8966 31.9151H68.1023V34.7503H65.6714V26.7793H69.8966ZM68.1023 28.6035V30.1374H69.1673C69.3833 30.1374 69.5532 30.0653 69.6767 29.9212C69.8001 29.7788 69.8619 29.6184 69.8619 29.4402V29.3007C69.8619 29.1225 69.8024 28.9614 69.6836 28.8173C69.5632 28.6749 69.3912 28.6035 69.1673 28.6035H68.1023ZM78.0926 26.7793L80.743 34.7503H78.2196L77.7455 33.3327H75.2216L74.7586 34.7503H72.4202L75.0711 26.7793H78.0926ZM76.518 29.231H76.4602L75.7772 31.6478H77.1894L76.518 29.231ZM85.8022 26.7793C86.1803 26.7793 86.5375 26.8622 86.8737 27.028C87.2092 27.1953 87.4804 27.4276 87.6888 27.7251C87.8972 28.0242 88.0018 28.3672 88.0018 28.7546C88.0018 29.0334 87.9382 29.3084 87.8112 29.5796C87.6833 29.8508 87.5114 30.0832 87.2952 30.2768C87.079 30.4704 86.8396 30.5905 86.5778 30.6369V30.695C87.0023 30.8268 87.3208 31.0722 87.5338 31.4317C87.7453 31.7926 87.8507 32.2288 87.8507 32.7401C87.8507 33.1043 87.8856 33.4157 87.9553 33.6743C88.0242 33.9346 88.1869 34.0995 88.4411 34.1693V34.6457C88.0862 34.7928 87.6237 34.8665 87.0519 34.8665C86.5042 34.8665 86.0951 34.7519 85.8255 34.5225C85.5551 34.2948 85.4203 33.9097 85.4203 33.3675C85.4203 32.8563 85.3567 32.4433 85.2305 32.1289C85.1018 31.8159 84.8222 31.6595 84.3898 31.6595H83.7181V34.7503H81.345V26.7793H85.8022ZM83.7181 28.6035V29.8817H84.9453C85.1073 29.8817 85.2444 29.8252 85.3575 29.712C85.4683 29.6005 85.5241 29.4634 85.5241 29.3007V29.1845C85.5241 29.0219 85.4683 28.8841 85.3575 28.7709C85.2444 28.6593 85.1073 28.6035 84.9453 28.6035H83.7181ZM95.0862 26.7793V28.6965H93.0718V34.7503H90.6639V28.6965H88.6495V26.7793H95.0862ZM99.0909 26.6631C100.033 26.6631 100.807 26.8683 101.414 27.2789C102.018 27.6895 102.321 28.2975 102.321 29.1032V29.2426H100.098V29.1961C100.098 28.9714 100.02 28.7872 99.8618 28.6431C99.703 28.5006 99.4613 28.4293 99.1374 28.4293C98.8213 28.4293 98.5819 28.4734 98.42 28.5617C98.2581 28.6517 98.1767 28.7702 98.1767 28.9173C98.1767 29.0955 98.2712 29.2363 98.4595 29.3402C98.6493 29.4455 98.9251 29.5371 99.2877 29.6144L100.318 29.8468C101.754 30.1722 102.471 30.9198 102.471 32.0894C102.471 33.0422 102.159 33.7433 101.534 34.1926C100.909 34.6417 100.045 34.8665 98.9406 34.8665C98.3309 34.8665 97.77 34.7735 97.2578 34.5876C96.7434 34.4017 96.3305 34.1166 96.019 33.7324C95.706 33.3496 95.5487 32.8756 95.5487 32.3102V32.1708C95.5487 32.1087 95.5526 32.0622 95.5603 32.0313H97.8064C97.7986 32.0546 97.7947 32.101 97.7947 32.1708C97.7947 32.4108 97.8777 32.6083 98.045 32.7633C98.21 32.9183 98.4851 32.9957 98.8709 32.9957C99.2955 32.9957 99.5852 32.9508 99.7394 32.8609C99.8936 32.7726 99.9711 32.6511 99.9711 32.4961C99.9711 32.3102 99.8626 32.1684 99.6472 32.0708C99.431 31.9749 99.0909 31.8763 98.6284 31.7757C98.0419 31.6518 97.5538 31.5138 97.1649 31.362C96.7744 31.2116 96.4366 30.964 96.1507 30.6184C95.8656 30.2745 95.7223 29.8004 95.7223 29.1961C95.7223 28.6539 95.8718 28.1929 96.1693 27.8134C96.466 27.4339 96.8689 27.1472 97.3779 26.9535C97.8869 26.76 98.4587 26.6631 99.0909 26.6631Z" fill="white"/>
</g>
</g>
</g>
</g>
<mask id="mask7_384_178" style="mask-type:luminance" maskUnits="userSpaceOnUse" x="0" y="0" width="61" height="44">
<path d="M60.5895 0.43457H0.181641V43.2929H60.5895V0.43457Z" fill="white"/>
</mask>
<g mask="url(#mask7_384_178)">
<mask id="mask8_384_178" style="mask-type:luminance" maskUnits="userSpaceOnUse" x="0" y="0" width="61" height="44">
<path d="M60.5895 0.43457H0.181641V43.2929H60.5895V0.43457Z" fill="white"/>
</mask>
<g mask="url(#mask8_384_178)">
<path d="M54.5488 0.434701H15.8878C8.63879 0.434701 8.57178 3.88 8.57178 9.3372V34.1212H22.5326C22.5634 28.9242 27.6135 25.1023 32.8019 25.1023C37.9867 25.1023 42.4376 28.9242 42.4672 34.1212H60.5895V9.02916C60.5895 0.296452 58.8981 0.434701 54.5488 0.434701ZM35.42 9.94355V18.9624H15.2837V9.94355C15.2837 6.91176 15.2837 6.91176 18.3041 6.91176H33.406C35.8224 6.91176 35.42 7.76065 35.42 9.94355ZM53.8788 18.9624H40.4538V9.94355C40.4538 7.76065 40.2901 6.91176 42.4672 6.91176H50.3202C53.9447 6.91176 53.8788 6.91176 53.8788 9.94355V18.9624Z" fill="white"/>
<path d="M32.5625 43.2929C28.0651 43.2929 24.4063 39.6215 24.4063 35.1095C24.4056 30.5947 28.0645 26.9214 32.5625 26.9214C37.058 26.9214 40.7164 30.5947 40.7164 35.1095C40.7164 39.6215 37.058 43.2929 32.5625 43.2929ZM32.5625 30.5595C30.0634 30.5595 28.0307 32.6005 28.0307 35.1095C28.0307 37.6162 30.064 39.6548 32.5625 39.6548C35.0604 39.6548 37.0919 37.6162 37.0919 35.1095C37.0919 32.6005 35.0598 30.5595 32.5625 30.5595Z" fill="white"/>
<path d="M0.181641 30.5529C0.181641 32.1949 1.5088 34.1273 3.14283 34.1273H11.4362C13.0714 34.1273 14.3974 32.1949 14.3974 30.5523C14.3974 28.9073 13.0714 27.5781 11.4362 27.5781H3.14283C1.5088 27.5781 0.181641 28.9073 0.181641 30.5529Z" fill="white"/>
</g>
</g>
</g>
</g>
</g>
</g>
<defs>
<clipPath id="clip0_384_178">
<rect width="114.665" height="42.7722" fill="white" transform="translate(0 0.477539)"/>
</clipPath>
</defs>
</svg>
