<svg width="24" height="25" viewBox="0 0 24 25" fill="none" xmlns="http://www.w3.org/2000/svg">
<g clip-path="url(#clip0_433_325)">
<g clip-path="url(#clip1_433_325)">
<g clip-path="url(#clip2_433_325)">
<path d="M11.5174 3.83423L12.9324 9.70235L14.4806 4.42931C14.7534 3.50029 15.8345 3.08457 16.6593 3.59154C17.4798 4.09577 17.6014 5.2398 16.9053 5.90519L12.9324 9.70235L18.8048 8.28627C19.8564 8.03266 20.9145 8.67963 21.1681 9.73132C21.4217 10.783 20.7748 11.8411 19.7232 12.0947L13.8508 13.5108L19.0221 14.9183C19.9603 15.1737 20.3922 16.2571 19.8869 17.0879C19.3907 17.9036 18.2584 18.0322 17.5919 17.3485L13.8508 13.5108L15.2659 19.379C15.5248 20.4526 14.8643 21.533 13.7905 21.7919C12.7168 22.0508 11.6365 21.3903 11.3776 20.3165L9.96253 14.4485L8.38174 19.5695C8.10013 20.4818 7.03366 20.8834 6.22025 20.3835C5.39181 19.8743 5.28238 18.7133 6.00111 18.0583L9.96253 14.4485L4.09022 15.8646C3.03854 16.1182 1.9804 15.4712 1.72678 14.4195C1.47318 13.3678 2.12015 12.3097 3.17183 12.0561L9.04414 10.64L3.72572 9.13206C2.73591 8.85141 2.28588 7.70478 2.82053 6.8258C3.35805 5.94212 4.59203 5.81884 5.29374 6.57872L9.04414 10.64L7.62908 4.77187C7.37017 3.69815 8.03068 2.61784 9.1044 2.35892C10.1781 2.1 11.2585 2.76051 11.5174 3.83423Z" fill="black"/>
</g>
</g>
</g>
<defs>
<clipPath id="clip0_433_325">
<rect width="21" height="21" fill="white" transform="translate(0.215332 3.21631) rotate(-6.72481)"/>
</clipPath>
<clipPath id="clip1_433_325">
<rect width="21" height="21" fill="white" transform="translate(0.215332 3.21631) rotate(-6.72481)"/>
</clipPath>
<clipPath id="clip2_433_325">
<rect width="21" height="21" fill="white" transform="translate(0.215332 3.21631) rotate(-6.72481)"/>
</clipPath>
</defs>
</svg>
